LibertinusSerif-Medium.ufo
<glyph name="dollar" format="2">
	<unicode hex="0024"/>
	<advance width="481"/>
	<outline>
		<contour>
			<point x="57.3333" y="11" type="curve"/>
			<point x="111.667" y="11"/>
			<point x="165" y="-9.33333"/>
			<point x="222.667" y="-9.33333" type="curve" smooth="yes"/>
			<point x="335" y="-9.33333"/>
			<point x="433.667" y="60"/>
			<point x="433.667" y="171" type="curve" smooth="yes"/>
			<point x="433.667" y="241"/>
			<point x="376.667" y="305.667"/>
			<point x="275.333" y="348.667" type="curve"/>
			<point x="232" y="366" type="line" smooth="yes"/>
			<point x="173" y="391"/>
			<point x="139.333" y="417"/>
			<point x="139.333" y="480.333" type="curve" smooth="yes"/>
			<point x="139.333" y="536"/>
			<point x="186" y="576.333"/>
			<point x="240" y="576.333" type="curve" smooth="yes"/>
			<point x="316.333" y="576.333"/>
			<point x="347.667" y="516.667"/>
			<point x="367" y="452.333" type="curve"/>
			<point x="377.333" y="451"/>
			<point x="394.333" y="452"/>
			<point x="403" y="458" type="curve"/>
			<point x="401" y="504.333"/>
			<point x="397" y="534.333"/>
			<point x="388.333" y="585" type="curve"/>
			<point x="337" y="591.333"/>
			<point x="303.667" y="610"/>
			<point x="244.667" y="610" type="curve" smooth="yes"/>
			<point x="141.333" y="610"/>
			<point x="56" y="549.333"/>
			<point x="56" y="450.667" type="curve" smooth="yes"/>
			<point x="56" y="365.333"/>
			<point x="95" y="320.667"/>
			<point x="209.667" y="270.667" type="curve" smooth="yes"/>
			<point x="240.667" y="258" type="line" smooth="yes"/>
			<point x="303" y="232"/>
			<point x="342.667" y="189.333"/>
			<point x="342.667" y="128.333" type="curve" smooth="yes"/>
			<point x="342.667" y="59"/>
			<point x="295.667" y="25.3333"/>
			<point x="230" y="25.3333" type="curve" smooth="yes"/>
			<point x="145" y="25.3333"/>
			<point x="92" y="78.6667"/>
			<point x="74" y="159" type="curve"/>
			<point x="59.6667" y="162"/>
			<point x="47.6667" y="160.333"/>
			<point x="38.6667" y="156" type="curve"/>
			<point x="41.3333" y="84.6667"/>
			<point x="46.6667" y="53"/>
		</contour>
		<contour>
			<point x="200" y="13" type="line"/>
			<point x="238" y="11.3333" type="line"/>
			<point x="252.333" y="265.667" type="line"/>
			<point x="215" y="283" type="line"/>
		</contour>
		<contour>
			<point x="219.333" y="360.333" type="line"/>
			<point x="256.333" y="341" type="line"/>
			<point x="270" y="587.667" type="line"/>
			<point x="232.333" y="591" type="line"/>
		</contour>
		<contour>
			<point x="194.667" y="-98" type="line"/>
			<point x="204.667" y="-98"/>
			<point x="225" y="-97"/>
			<point x="233" y="-93" type="curve"/>
			<point x="238" y="6" type="line"/>
			<point x="200.667" y="7" type="line"/>
		</contour>
		<contour>
			<point x="231.667" y="595" type="line"/>
			<point x="270" y="594" type="line"/>
			<point x="276" y="695" type="line"/>
			<point x="263" y="695"/>
			<point x="246.667" y="693"/>
			<point x="237.667" y="690" type="curve"/>
		</contour>
	</outline>
</glyph>
<glyph name="quotesingle" format="2">
	<unicode hex="0027"/>
	<advance width="198"/>
	<outline>
		<contour>
			<point x="80.3333" y="422.333" type="line"/>
			<point x="92.6667" y="419.667" type="line"/>
			<point x="112" y="425.667" type="line"/>
			<point x="146.333" y="610" type="line"/>
			<point x="146.333" y="626.667"/>
			<point x="139.333" y="644.333"/>
			<point x="110.333" y="644.333" type="curve" smooth="yes"/>
			<point x="73.6667" y="644.333"/>
			<point x="52.3333" y="615.333"/>
			<point x="52.3333" y="593" type="curve"/>
		</contour>
	</outline>
</glyph>
<glyph name="comma" format="2">
	<unicode hex="002C"/>
	<advance width="228"/>
	<outline>
		<contour>
			<point x="106.667" y="105.667" type="curve" smooth="yes"/>
			<point x="77.3333" y="105.667"/>
			<point x="50.3333" y="78.3333"/>
			<point x="50.3333" y="52" type="curve" smooth="yes"/>
			<point x="50.3333" y="25.6667"/>
			<point x="70.6667" y="9"/>
			<point x="88.3333" y="4" type="curve"/>
			<point x="90.6667" y="3.66667"/>
			<point x="93.6667" y="3"/>
			<point x="96" y="2.66667" type="curve"/>
			<point x="110.667" y="-0.333333"/>
			<point x="125" y="-5.66667"/>
			<point x="128.333" y="-21.6667" type="curve"/>
			<point x="129" y="-23.6667"/>
			<point x="129" y="-25.6667"/>
			<point x="129" y="-28.3333" type="curve" smooth="yes"/>
			<point x="129" y="-51"/>
			<point x="88" y="-105.333"/>
			<point x="38.3333" y="-118" type="curve"/>
			<point x="36.6667" y="-129"/>
			<point x="38.3333" y="-137"/>
			<point x="46.6667" y="-144.333" type="curve"/>
			<point x="79" y="-139"/>
			<point x="113.667" y="-120.667"/>
			<point x="137.667" y="-96.6667" type="curve" smooth="yes"/>
			<point x="161.667" y="-72.6667"/>
			<point x="179.667" y="-36.3333"/>
			<point x="179.667" y="-1.33333" type="curve" smooth="yes"/>
			<point x="179.667" y="66"/>
			<point x="151.333" y="105.667"/>
		</contour>
	</outline>
</glyph>
<glyph name="slash" format="2">
	<unicode hex="002F"/>
	<advance width="321"/>
	<outline>
		<contour>
			<point x="296" y="658" type="line"/>
			<point x="247.667" y="658" type="line"/>
			<point x="10.6667" y="-46.3333" type="line"/>
			<point x="59" y="-46.3333" type="line"/>
		</contour>
	</outline>
</glyph>
<glyph name="zero" format="2">
	<unicode hex="0030"/>
	<advance width="481"/>
	<outline>
		<contour>
			<point x="237" y="-10" type="curve" smooth="yes"/>
			<point x="356" y="-10"/>
			<point x="442.667" y="121.667"/>
			<point x="442.667" y="304.333" type="curve" smooth="yes"/>
			<point x="442.667" y="482.333"/>
			<point x="359.333" y="610"/>
			<point x="241.333" y="610" type="curve" smooth="yes"/>
			<point x="122" y="610"/>
			<point x="36" y="477.667"/>
			<point x="36" y="295.333" type="curve" smooth="yes"/>
			<point x="36" y="120.667"/>
			<point x="122" y="-10"/>
		</contour>
		<contour>
			<point x="241.333" y="572.667" type="curve" smooth="yes"/>
			<point x="298.667" y="572.667"/>
			<point x="337.333" y="472.333"/>
			<point x="337.333" y="323.667" type="curve" smooth="yes"/>
			<point x="337.333" y="135.333"/>
			<point x="301" y="27.3333"/>
			<point x="238" y="27.3333" type="curve" smooth="yes"/>
			<point x="177" y="27.3333"/>
			<point x="141.667" y="121.667"/>
			<point x="141.667" y="284.333" type="curve" smooth="yes"/>
			<point x="141.667" y="469.667"/>
			<point x="177.333" y="572.667"/>
		</contour>
	</outline>
</glyph>
<glyph name="three" format="2">
	<unicode hex="0033"/>
	<advance width="481"/>
	<outline>
		<contour>
			<point x="226" y="572.667" type="curve" smooth="yes"/>
			<point x="268.667" y="572.667"/>
			<point x="302.333" y="547.333"/>
			<point x="302.333" y="489" type="curve" smooth="yes"/>
			<point x="302.333" y="430.333"/>
			<point x="243.333" y="358.667"/>
			<point x="146.667" y="342.333" type="curve"/>
			<point x="152.333" y="307.667" type="line"/>
			<point x="170.667" y="311"/>
			<point x="186.667" y="311.667"/>
			<point x="200.333" y="311.667" type="curve" smooth="yes"/>
			<point x="255.667" y="311.667"/>
			<point name=".hr01" x="329.333" y="296"/>
			<point x="329.333" y="180.667" type="curve" smooth="yes"/>
			<point x="329.333" y="53.6667"/>
			<point x="247.333" y="27.3333"/>
			<point x="211.667" y="27.3333" type="curve" smooth="yes"/>
			<point x="164.667" y="27.3333"/>
			<point x="151.667" y="51"/>
			<point x="139.333" y="68.6667" type="curve" smooth="yes"/>
			<point x="129" y="83"/>
			<point x="114.667" y="98.3333"/>
			<point x="89" y="98.3333" type="curve" smooth="yes"/>
			<point x="64.6667" y="98.3333"/>
			<point x="44.6667" y="77"/>
			<point x="44.6667" y="60.6667" type="curve" smooth="yes"/>
			<point x="44.6667" y="27"/>
			<point x="104.333" y="4"/>
			<point x="151.667" y="0.333333" type="curve" smooth="yes"/>
			<point x="243" y="-5.66667"/>
			<point x="331.333" y="41.3333"/>
			<point x="347.667" y="129.333" type="curve"/>
			<point x="387" y="202"/>
			<point x="376.333" y="259"/>
			<point x="337" y="312" type="curve"/>
			<point x="337" y="336"/>
			<point x="320.667" y="358.333"/>
			<point x="292.667" y="360.333" type="curve"/>
			<point x="362" y="393.667"/>
			<point name=".hr02" x="393.667" y="438.667"/>
			<point x="393.667" y="494.333" type="curve" smooth="yes"/>
			<point x="393.667" y="529"/>
			<point x="381" y="567.333"/>
			<point x="319" y="584" type="curve"/>
			<point x="269.667" y="598.667"/>
			<point x="232.333" y="598.333"/>
			<point x="187" y="588.667" type="curve"/>
			<point x="81.6667" y="582"/>
			<point x="51.6667" y="509"/>
			<point x="51.6667" y="482.667" type="curve" smooth="yes"/>
			<point x="51.6667" y="468.667"/>
			<point x="60" y="447.667"/>
			<point x="87" y="447.667" type="curve" smooth="yes"/>
			<point x="125" y="447.667"/>
			<point x="131.667" y="477.333"/>
			<point x="133.667" y="500.667" type="curve"/>
			<point x="137.333" y="563.667"/>
			<point x="197.333" y="572.667"/>
		</contour>
	</outline>
</glyph>
<glyph name="seven" format="2">
	<unicode hex="0037"/>
	<advance width="481"/>
	<outline>
		<contour>
			<point x="174.667" y="522.667" type="curve" smooth="yes"/>
			<point x="359" y="522.667" type="line"/>
			<point x="285" y="348"/>
			<point x="194.333" y="145.333"/>
			<point x="123" y="-4" type="curve"/>
			<point x="130.333" y="-12.6667" type="line"/>
			<point x="209.667" y="-7.33333" type="line"/>
			<point x="270" y="163"/>
			<point x="324.667" y="323.667"/>
			<point x="442.333" y="596.333" type="curve"/>
			<point x="429.667" y="607.333" type="line"/>
			<point x="409" y="604"/>
			<point x="385" y="600"/>
			<point x="350.333" y="600" type="curve" smooth="yes"/>
			<point x="129.333" y="600" type="line" smooth="yes"/>
			<point x="95.3333" y="600"/>
			<point x="96" y="610"/>
			<point x="78" y="614" type="curve"/>
			<point x="75" y="614"/>
			<point x="74" y="614"/>
			<point x="74" y="611" type="curve"/>
			<point x="73" y="563"/>
			<point x="62" y="490.667"/>
			<point x="54" y="438.667" type="curve"/>
			<point x="65.6667" y="435.333"/>
			<point x="75.6667" y="434.333"/>
			<point x="87" y="435.667" type="curve"/>
			<point x="109" y="515.667"/>
			<point x="142.333" y="522.667"/>
		</contour>
	</outline>
</glyph>
<glyph name="less" format="2">
	<unicode hex="003C"/>
	<advance width="537"/>
	<outline>
		<contour>
			<point x="143" y="239.333" type="line"/>
			<point x="460.333" y="354.667" type="line"/>
			<point x="469" y="367.453"/>
			<point x="469.667" y="401.914"/>
			<point x="460.333" y="408.667" type="curve"/>
			<point x="57.3333" y="262.667" type="line"/>
			<point x="51.3333" y="248.533"/>
			<point x="51.3333" y="228.547"/>
			<point x="57.3333" y="216" type="curve"/>
			<point x="460.333" y="69.3333" type="line"/>
			<point x="469.667" y="76.0861"/>
			<point x="469" y="110.547"/>
			<point x="460.333" y="123.333" type="curve"/>
		</contour>
	</outline>
</glyph>
<glyph name="at" format="2">
	<unicode hex="0040"/>
	<advance width="926"/>
	<outline>
		<contour>
			<point x="602" y="76" type="curve" smooth="yes"/>
			<point x="602" y="84.3333"/>
			<point x="609" y="116"/>
			<point x="615" y="142.667" type="curve" smooth="yes"/>
			<point x="674.667" y="399" type="line"/>
			<point x="660.333" y="404.333" type="line"/>
			<point x="620.333" y="397.333" type="line"/>
			<point x="604.667" y="370.333" type="line"/>
			<point x="592.333" y="394.667"/>
			<point x="560" y="411.667"/>
			<point x="522" y="411.667" type="curve" smooth="yes"/>
			<point x="413" y="411.667"/>
			<point x="281" y="292.667"/>
			<point x="281" y="154.667" type="curve" smooth="yes"/>
			<point x="281" y="129.333"/>
			<point x="288.333" y="94.3333"/>
			<point x="310" y="68.6667" type="curve" smooth="yes"/>
			<point x="329.333" y="45"/>
			<point x="359.333" y="28"/>
			<point x="408" y="28" type="curve" smooth="yes"/>
			<point x="439.333" y="28"/>
			<point x="491.667" y="53.3333"/>
			<point x="532" y="116.667" type="curve"/>
			<point x="533.333" y="116" type="line"/>
			<point x="528" y="93"/>
			<point x="525" y="73"/>
			<point x="530" y="58.3333" type="curve"/>
			<point x="533" y="45"/>
			<point name=".hr01" x="543.333" y="27"/>
			<point x="569.333" y="26.3333" type="curve" smooth="yes"/>
			<point x="583.667" y="26"/>
			<point x="596.333" y="26.6667"/>
			<point x="609.333" y="27.3333" type="curve" smooth="yes"/>
			<point x="776.667" y="39.3333"/>
			<point x="856" y="166.333"/>
			<point x="856" y="283.667" type="curve" smooth="yes"/>
			<point x="856" y="471.333"/>
			<point x="702.333" y="614.333"/>
			<point x="483.667" y="614.333" type="curve" smooth="yes"/>
			<point x="249.333" y="614.333"/>
			<point x="70" y="434.667"/>
			<point x="70" y="222.333" type="curve" smooth="yes"/>
			<point x="70" y="4.33333"/>
			<point x="231.667" y="-158.667"/>
			<point x="470" y="-158.667" type="curve" smooth="yes"/>
			<point x="586.333" y="-158.667"/>
			<point x="647.333" y="-123.333"/>
			<point x="708.667" y="-76.3333" type="curve"/>
			<point x="693" y="-54.6667" type="line"/>
			<point x="636.333" y="-100.333"/>
			<point x="571.333" y="-123.667"/>
			<point x="489" y="-123.667" type="curve" smooth="yes"/>
			<point x="235.667" y="-123.667"/>
			<point x="154.667" y="87.3333"/>
			<point x="154.667" y="236.667" type="curve" smooth="yes"/>
			<point x="154.667" y="471.667"/>
			<point x="321" y="581.333"/>
			<point x="474" y="581.333" type="curve" smooth="yes"/>
			<point x="596.333" y="581.333"/>
			<point x="774.333" y="485.333"/>
			<point x="774.333" y="274.333" type="curve" smooth="yes"/>
			<point x="774.333" y="115.667"/>
			<point x="695.667" y="63.3333"/>
			<point x="615.333" y="63.3333" type="curve" smooth="yes"/>
			<point x="610.333" y="63.3333"/>
			<point x="602" y="65"/>
		</contour>
		<contour>
			<point x="574.667" y="317.333" type="curve" smooth="yes"/>
			<point x="574.667" y="287.333"/>
			<point x="558.333" y="234"/>
			<point x="546" y="201.333" type="curve"/>
			<point x="544.333" y="196"/>
			<point x="542" y="191.333"/>
			<point x="540.333" y="186.333" type="curve"/>
			<point x="510.667" y="115"/>
			<point x="470.667" y="70.6667"/>
			<point name=".hr02" x="439.333" y="70.6667" type="curve" smooth="yes"/>
			<point x="381.667" y="70.6667"/>
			<point x="368.667" y="115"/>
			<point x="368.667" y="162.667" type="curve" smooth="yes"/>
			<point x="368.667" y="223.667"/>
			<point x="385" y="287"/>
			<point x="431.667" y="336.667" type="curve" smooth="yes"/>
			<point x="435.333" y="340.667"/>
			<point x="439.667" y="344.667"/>
			<point x="444" y="348.333" type="curve" smooth="yes"/>
			<point x="471" y="371.333"/>
			<point x="500.667" y="378.667"/>
			<point x="516.333" y="379.333" type="curve" smooth="yes"/>
			<point x="525.333" y="379.667"/>
			<point x="533.667" y="378.333"/>
			<point x="541" y="375.667" type="curve"/>
			<point x="563.333" y="369.667"/>
			<point x="574.667" y="347"/>
		</contour>
	</outline>
</glyph>
<glyph name="A" format="2">
	<unicode hex="0041"/>
	<advance width="710"/>
	<outline>
		<contour>
			<point x="158.333" y="79" type="curve" smooth="yes"/>
			<point x="212.667" y="222" type="line" smooth="yes"/>
			<point x="217.667" y="235"/>
			<point x="223.667" y="239"/>
			<point x="247.667" y="239" type="curve" smooth="yes"/>
			<point x="451.667" y="239" type="line"/>
			<point x="509" y="72" type="line" smooth="yes"/>
			<point x="520.333" y="39.3333"/>
			<point x="476.667" y="34.3333"/>
			<point x="435" y="31.3333" type="curve"/>
			<point x="429" y="25.3333"/>
			<point x="429" y="4"/>
			<point x="435" y="-2" type="curve"/>
			<point x="472" y="-1"/>
			<point x="540.333" y="0"/>
			<point x="579.333" y="0" type="curve" smooth="yes"/>
			<point x="620.333" y="0"/>
			<point x="664.333" y="-1"/>
			<point x="700" y="-2" type="curve"/>
			<point x="706" y="4"/>
			<point x="706" y="25.3333"/>
			<point x="700" y="31.3333" type="curve"/>
			<point x="661" y="35.3333"/>
			<point x="627.333" y="37"/>
			<point x="610" y="86" type="curve" smooth="yes"/>
			<point x="404" y="658" type="line"/>
			<point x="389" y="649"/>
			<point x="351" y="630"/>
			<point x="330.667" y="630" type="curve"/>
			<point x="107" y="102" type="line" smooth="yes"/>
			<point x="81" y="40"/>
			<point x="51" y="34.3333"/>
			<point x="7" y="31.3333" type="curve"/>
			<point x="1" y="25.3333"/>
			<point x="1" y="4"/>
			<point x="7" y="-2" type="curve"/>
			<point x="36.6667" y="-1"/>
			<point x="64.6667" y="0"/>
			<point x="97.6667" y="0" type="curve" smooth="yes"/>
			<point x="138.667" y="0"/>
			<point x="190.333" y="-1"/>
			<point x="227.333" y="-2" type="curve"/>
			<point x="233.333" y="4"/>
			<point x="233.333" y="25.3333"/>
			<point x="227.333" y="31.3333" type="curve"/>
			<point x="189.333" y="34.3333"/>
			<point x="142.333" y="38"/>
		</contour>
		<contour>
			<point x="266.333" y="283" type="line" smooth="yes"/>
			<point x="244.333" y="283"/>
			<point x="237.333" y="286"/>
			<point x="241.333" y="296" type="curve" smooth="yes"/>
			<point x="338.667" y="543.333" type="line"/>
			<point x="345" y="543.333" type="line"/>
			<point x="435" y="283" type="line"/>
		</contour>
	</outline>
	<anchor name="t.uni0302" x="354" y="740"/>
	<anchor name="m.uni0316_2" x="308" y="-110"/>
	<guideline x="0" y="740" angle="0"/>
</glyph>
<glyph name="C" format="2">
	<unicode hex="0043"/>
	<advance width="666"/>
	<outline>
		<contour>
			<point x="370.333" y="-10" type="curve" smooth="yes"/>
			<point x="467.333" y="-10"/>
			<point x="556.333" y="36"/>
			<point x="624.333" y="125" type="curve"/>
			<point x="619.333" y="134"/>
			<point x="609" y="142"/>
			<point x="598" y="142" type="curve"/>
			<point x="527" y="64"/>
			<point x="454.667" y="34.6667"/>
			<point x="369.333" y="34.6667" type="curve" smooth="yes"/>
			<point x="240.667" y="34.6667"/>
			<point x="148" y="181.333"/>
			<point x="148" y="330.667" type="curve" smooth="yes"/>
			<point x="148" y="466.333"/>
			<point x="220.667" y="619.667"/>
			<point x="360.333" y="619.667" type="curve" smooth="yes"/>
			<point x="498.333" y="619.667"/>
			<point x="550" y="539"/>
			<point x="576" y="453" type="curve"/>
			<point x="588" y="449"/>
			<point x="601.333" y="452"/>
			<point x="612.333" y="458" type="curve"/>
			<point x="607.333" y="510"/>
			<point x="600" y="558"/>
			<point x="590.333" y="613" type="curve"/>
			<point x="539.333" y="618"/>
			<point x="494.333" y="658"/>
			<point x="371.333" y="658" type="curve" smooth="yes"/>
			<point x="176.667" y="658"/>
			<point x="37" y="509"/>
			<point x="37" y="311.667" type="curve" smooth="yes"/>
			<point x="37" y="121"/>
			<point x="158.667" y="-10"/>
		</contour>
	</outline>
	<anchor name="t.uni0302" x="340" y="740"/>
	<anchor name="m.uni0316_2" x="363" y="-110"/>
	<anchor name="m.uni031A_3" x="609" y="732"/>
</glyph>
<glyph name="D" format="2">
	<unicode hex="0044"/>
	<advance width="712"/>
	<outline>
		<contour>
			<point x="23" y="-2" type="curve"/>
			<point x="52.6667" y="-1.33333"/>
			<point x="122.333" y="0"/>
			<point x="161" y="0" type="curve" smooth="yes"/>
			<point x="199" y="0"/>
			<point x="254.333" y="-2"/>
			<point x="336.333" y="-2" type="curve" smooth="yes"/>
			<point x="499" y="-2"/>
			<point x="667.333" y="73"/>
			<point x="667.333" y="308.333" type="curve" smooth="yes"/>
			<point x="667.333" y="494"/>
			<point x="525.333" y="646.667"/>
			<point x="315.333" y="646.667" type="curve" smooth="yes"/>
			<point x="250.333" y="646.667"/>
			<point x="199.667" y="645"/>
			<point x="160.333" y="645" type="curve" smooth="yes"/>
			<point x="123" y="645"/>
			<point x="53.3333" y="646.333"/>
			<point x="23" y="647" type="curve"/>
			<point x="15.6667" y="641"/>
			<point x="15.6667" y="619.667"/>
			<point x="23" y="613.667" type="curve"/>
			<point x="88" y="610.667"/>
			<point x="108.667" y="606"/>
			<point x="108.667" y="523" type="curve" smooth="yes"/>
			<point x="108.667" y="122" type="line" smooth="yes"/>
			<point x="108.667" y="39"/>
			<point x="88" y="34.3333"/>
			<point x="23" y="31.3333" type="curve"/>
			<point x="15.6667" y="25.3333"/>
			<point x="15.6667" y="4"/>
		</contour>
		<contour>
			<point x="212" y="95.6667" type="curve" smooth="yes"/>
			<point x="212" y="552.333" type="line" smooth="yes"/>
			<point x="212" y="594"/>
			<point x="244" y="610"/>
			<point x="288.667" y="610" type="curve" smooth="yes"/>
			<point x="498.333" y="610"/>
			<point x="553" y="437"/>
			<point x="553" y="284" type="curve" smooth="yes"/>
			<point x="553" y="88.6667"/>
			<point x="436" y="34.6667"/>
			<point x="316.667" y="34.6667" type="curve" smooth="yes"/>
			<point x="228" y="34.6667"/>
			<point x="212" y="52"/>
		</contour>
	</outline>
	<anchor name="m.uni0302" x="306" y="850"/>
	<anchor name="m.uni0316_2" x="299" y="-110"/>
	<anchor name="m.uni031A_3" x="619" y="732"/>
	<anchor name="t.uni0302" x="301.667" y="740"/>
</glyph>
<glyph name="G" format="2">
	<unicode hex="0047"/>
	<advance width="701"/>
	<outline>
		<contour>
			<point x="383" y="658" type="curve" smooth="yes"/>
			<point x="202.333" y="658"/>
			<point x="35.6667" y="524.333"/>
			<point x="35.6667" y="307" type="curve" smooth="yes"/>
			<point x="35.6667" y="116"/>
			<point x="169.667" y="-10"/>
			<point x="363" y="-10" type="curve" smooth="yes"/>
			<point x="479" y="-10"/>
			<point x="577" y="18"/>
			<point x="643.667" y="74.6667" type="curve"/>
			<point x="633" y="83.6667"/>
			<point x="628" y="91.6667"/>
			<point x="628" y="102.667" type="curve" smooth="yes"/>
			<point x="628" y="219" type="line" smooth="yes"/>
			<point x="628" y="254"/>
			<point x="644.333" y="264"/>
			<point x="673" y="267" type="curve"/>
			<point x="679" y="273"/>
			<point x="679" y="297.333"/>
			<point x="673" y="303.333" type="curve"/>
			<point x="647.667" y="302.333"/>
			<point x="615.333" y="301.333"/>
			<point x="576" y="301.333" type="curve" smooth="yes"/>
			<point x="541.667" y="301.333"/>
			<point x="488.333" y="302.333"/>
			<point x="444" y="303.333" type="curve"/>
			<point x="438" y="297.333"/>
			<point x="438" y="273"/>
			<point x="444" y="267" type="curve"/>
			<point x="498" y="263"/>
			<point x="524.667" y="259"/>
			<point x="524.667" y="219" type="curve" smooth="yes"/>
			<point x="524.667" y="67.3333" type="line"/>
			<point x="491.333" y="35.3333"/>
			<point x="438.667" y="28"/>
			<point x="385.667" y="28" type="curve" smooth="yes"/>
			<point x="224" y="28"/>
			<point x="150" y="195"/>
			<point x="150" y="327" type="curve" smooth="yes"/>
			<point x="150" y="487.333"/>
			<point x="237.667" y="620"/>
			<point x="369" y="620" type="curve" smooth="yes"/>
			<point x="509" y="620"/>
			<point x="558.333" y="539"/>
			<point x="584" y="453" type="curve"/>
			<point x="596.667" y="451.667"/>
			<point x="609.333" y="453.667"/>
			<point x="620.667" y="459" type="curve"/>
			<point x="616.333" y="501"/>
			<point x="611.333" y="544.333"/>
			<point x="598.333" y="616.333" type="curve"/>
			<point x="541" y="623"/>
			<point x="498.667" y="658"/>
		</contour>
	</outline>
	<anchor name="t.uni0302" x="365" y="740"/>
	<anchor name="t.uni0315_1" x="606.667" y="606"/>
	<anchor name="m.uni0316_2" x="367" y="-110"/>
	<anchor name="m.uni031A_3" x="631" y="732"/>
</glyph>
<glyph name="H" format="2">
	<unicode hex="0048"/>
	<advance width="759"/>
	<outline>
		<contour>
			<point x="23" y="-2" type="curve"/>
			<point x="65.6667" y="-1"/>
			<point x="122.333" y="0"/>
			<point x="161" y="0" type="curve" smooth="yes"/>
			<point x="198.333" y="0"/>
			<point x="255" y="-1"/>
			<point x="297.667" y="-2" type="curve"/>
			<point x="305" y="4"/>
			<point x="305" y="25.3333"/>
			<point x="297.667" y="31.3333" type="curve"/>
			<point x="232.667" y="34.3333"/>
			<point x="212" y="39"/>
			<point x="212" y="122" type="curve" smooth="yes"/>
			<point x="212" y="320.333" type="line"/>
			<point x="543.333" y="320.333" type="line"/>
			<point x="543.333" y="122" type="line" smooth="yes"/>
			<point x="543.333" y="39"/>
			<point x="522.667" y="34.3333"/>
			<point x="457.667" y="31.3333" type="curve"/>
			<point x="450.333" y="25.3333"/>
			<point x="450.333" y="4"/>
			<point x="457.667" y="-2" type="curve"/>
			<point x="501" y="-1"/>
			<point x="557.667" y="0"/>
			<point x="595.667" y="0" type="curve" smooth="yes"/>
			<point x="633.667" y="0"/>
			<point x="689.667" y="-1"/>
			<point x="732.333" y="-2" type="curve"/>
			<point x="739.667" y="4"/>
			<point x="739.667" y="25.3333"/>
			<point x="732.333" y="31.3333" type="curve"/>
			<point x="667.333" y="34.3333"/>
			<point x="646.667" y="39"/>
			<point x="646.667" y="122" type="curve" smooth="yes"/>
			<point x="646.667" y="523" type="line" smooth="yes"/>
			<point x="646.667" y="606"/>
			<point x="667.333" y="610.667"/>
			<point x="732.333" y="613.667" type="curve"/>
			<point x="739.667" y="619.667"/>
			<point x="739.667" y="641"/>
			<point x="732.333" y="647" type="curve"/>
			<point x="691.667" y="646"/>
			<point x="633.667" y="645"/>
			<point x="595" y="645" type="curve" smooth="yes"/>
			<point x="557" y="645"/>
			<point x="500.333" y="646"/>
			<point x="457.667" y="647" type="curve"/>
			<point x="450.333" y="641"/>
			<point x="450.333" y="619.667"/>
			<point x="457.667" y="613.667" type="curve"/>
			<point x="522.667" y="610.667"/>
			<point x="543.333" y="606"/>
			<point x="543.333" y="523" type="curve" smooth="yes"/>
			<point x="543.333" y="364.333" type="line"/>
			<point x="212" y="364.333" type="line"/>
			<point x="212" y="523" type="line" smooth="yes"/>
			<point x="212" y="606"/>
			<point x="232.667" y="610.667"/>
			<point x="297.667" y="613.667" type="curve"/>
			<point x="305" y="619.667"/>
			<point x="305" y="641"/>
			<point x="297.667" y="647" type="curve"/>
			<point x="259" y="646"/>
			<point x="207.667" y="645"/>
			<point x="160.333" y="645" type="curve" smooth="yes"/>
			<point x="113.667" y="645"/>
			<point x="61.6667" y="646"/>
			<point x="23" y="647" type="curve"/>
			<point x="15.6667" y="641"/>
			<point x="15.6667" y="619.667"/>
			<point x="23" y="613.667" type="curve"/>
			<point x="88" y="610.667"/>
			<point x="108.667" y="606"/>
			<point x="108.667" y="523" type="curve" smooth="yes"/>
			<point x="108.667" y="122" type="line" smooth="yes"/>
			<point x="108.667" y="39"/>
			<point x="88" y="34.3333"/>
			<point x="23" y="31.3333" type="curve"/>
			<point x="15.6667" y="25.3333"/>
			<point x="15.6667" y="4"/>
		</contour>
	</outline>
	<anchor name="t.uni0302" x="362.667" y="740"/>
	<anchor name="m.uni0316_2" x="377.667" y="-110"/>
	<anchor name="m.uni031A_3" x="729" y="732"/>
</glyph>
<glyph name="I" format="2">
	<unicode hex="0049"/>
	<advance width="320"/>
	<outline>
		<contour>
			<point x="23" y="-2" type="curve"/>
			<point x="66.3333" y="-1"/>
			<point x="123.667" y="0"/>
			<point x="161" y="0" type="curve" smooth="yes"/>
			<point x="198.333" y="0"/>
			<point x="254.333" y="-1"/>
			<point x="297.667" y="-2" type="curve"/>
			<point x="305" y="4"/>
			<point x="305" y="25.3333"/>
			<point x="297.667" y="31.3333" type="curve"/>
			<point x="232.667" y="34.3333"/>
			<point x="212" y="39"/>
			<point x="212" y="122" type="curve" smooth="yes"/>
			<point x="212" y="523" type="line" smooth="yes"/>
			<point x="212" y="606"/>
			<point x="232.667" y="610.667"/>
			<point x="297.667" y="613.667" type="curve"/>
			<point x="305" y="619.667"/>
			<point x="305" y="641"/>
			<point x="297.667" y="647" type="curve"/>
			<point x="255" y="646"/>
			<point x="199.667" y="645"/>
			<point x="160.333" y="645" type="curve" smooth="yes"/>
			<point x="125" y="645"/>
			<point x="67.6667" y="646"/>
			<point x="23" y="647" type="curve"/>
			<point x="15.6667" y="641"/>
			<point x="15.6667" y="619.667"/>
			<point x="23" y="613.667" type="curve"/>
			<point x="88" y="610.667"/>
			<point x="108.667" y="606"/>
			<point x="108.667" y="523" type="curve" smooth="yes"/>
			<point x="108.667" y="122" type="line" smooth="yes"/>
			<point x="108.667" y="39"/>
			<point x="88" y="34.3333"/>
			<point x="23" y="31.3333" type="curve"/>
			<point x="15.6667" y="25.3333"/>
			<point x="15.6667" y="4"/>
		</contour>
	</outline>
	<anchor name="t.uni0302" x="161.333" y="740"/>
	<anchor name="m.uni0316_2" x="147" y="-110"/>
</glyph>
<glyph name="N" format="2">
	<unicode hex="004E"/>
	<advance width="713"/>
	<outline>
		<contour>
			<point x="18" y="-2" type="curve"/>
			<point x="63" y="-1"/>
			<point x="99.3333" y="0"/>
			<point x="130" y="0" type="curve" smooth="yes"/>
			<point x="160" y="0"/>
			<point x="196.667" y="-1"/>
			<point x="241.333" y="-2" type="curve"/>
			<point x="247.333" y="4"/>
			<point x="247.333" y="25.3333"/>
			<point x="241.333" y="31.3333" type="curve"/>
			<point x="171.333" y="38.3333"/>
			<point x="154.333" y="42"/>
			<point x="154.333" y="133" type="curve" smooth="yes"/>
			<point x="154.333" y="436" type="line" smooth="yes"/>
			<point x="154.333" y="462"/>
			<point x="155" y="475.333"/>
			<point x="162.333" y="475.333" type="curve" smooth="yes"/>
			<point x="168" y="475.333"/>
			<point x="178" y="465.667"/>
			<point x="193" y="446.667" type="curve" smooth="yes"/>
			<point x="537.333" y="20" type="line" smooth="yes"/>
			<point x="552" y="1.66667"/>
			<point x="562" y="-6"/>
			<point x="568.667" y="-10.6667" type="curve"/>
			<point x="589.667" y="-10.6667"/>
			<point x="606.333" y="-8.33333"/>
			<point x="622.333" y="0" type="curve"/>
			<point x="617.667" y="18.3333"/>
			<point x="612" y="61.6667"/>
			<point x="612" y="102.667" type="curve" smooth="yes"/>
			<point x="612" y="225"/>
			<point x="612" y="445"/>
			<point x="612" y="512" type="curve" smooth="yes"/>
			<point x="612" y="601"/>
			<point x="629" y="606.667"/>
			<point x="699" y="613.667" type="curve"/>
			<point x="705" y="619.667"/>
			<point x="705" y="641"/>
			<point x="699" y="647" type="curve"/>
			<point x="655.333" y="646"/>
			<point x="618.333" y="645"/>
			<point x="588.333" y="645" type="curve" smooth="yes"/>
			<point x="559.333" y="645"/>
			<point x="521.667" y="646"/>
			<point x="475.667" y="647" type="curve"/>
			<point x="469.667" y="641"/>
			<point x="469.667" y="619.667"/>
			<point x="475.667" y="613.667" type="curve"/>
			<point x="545.667" y="606.667"/>
			<point x="562.667" y="603"/>
			<point x="562.667" y="512" type="curve" smooth="yes"/>
			<point x="562.667" y="436.333"/>
			<point x="562.667" y="273.333"/>
			<point x="562.667" y="200.333" type="curve" smooth="yes"/>
			<point x="562.667" y="183.667"/>
			<point x="561.667" y="174.667"/>
			<point x="555.333" y="174.667" type="curve" smooth="yes"/>
			<point x="551" y="174.667"/>
			<point x="538.667" y="188.667"/>
			<point x="517" y="216" type="curve" smooth="yes"/>
			<point x="170.333" y="645" type="line"/>
			<point x="26" y="647" type="line"/>
			<point x="20" y="641"/>
			<point x="20" y="619.667"/>
			<point x="26" y="613.667" type="curve"/>
			<point x="69" y="610.667"/>
			<point x="99" y="576"/>
			<point x="105" y="550" type="curve"/>
			<point x="105" y="133" type="line" smooth="yes"/>
			<point x="105" y="44"/>
			<point x="88" y="38.3333"/>
			<point x="18" y="31.3333" type="curve"/>
			<point x="12" y="25.3333"/>
			<point x="12" y="4"/>
		</contour>
	</outline>
	<anchor name="m.uni0302" x="346" y="850"/>
	<anchor name="m.uni0316_2" x="348" y="-110"/>
	<anchor name="t.uni0302" x="335.333" y="740"/>
</glyph>
<glyph name="S" format="2">
	<unicode hex="0053"/>
	<advance width="491"/>
	<outline>
		<contour>
			<point x="411" y="630.333" type="curve"/>
			<point x="351.333" y="638.333"/>
			<point x="345.667" y="658"/>
			<point x="244.667" y="658" type="curve" smooth="yes"/>
			<point x="145" y="658"/>
			<point x="47.6667" y="592"/>
			<point x="47.6667" y="485" type="curve" smooth="yes"/>
			<point x="47.6667" y="376"/>
			<point x="128.333" y="329"/>
			<point x="218" y="288.333" type="curve" smooth="yes"/>
			<point x="277" y="262.333"/>
			<point x="352.333" y="227.667"/>
			<point x="352.333" y="137.667" type="curve" smooth="yes"/>
			<point x="352.333" y="67.3333"/>
			<point x="308" y="28"/>
			<point x="234.333" y="28" type="curve" smooth="yes"/>
			<point x="150" y="28"/>
			<point x="87" y="75"/>
			<point x="65.6667" y="171.333" type="curve"/>
			<point x="51.6667" y="176"/>
			<point x="39.6667" y="173.333"/>
			<point x="28" y="168.667" type="curve"/>
			<point x="35.6667" y="122"/>
			<point x="38" y="101"/>
			<point x="40.3333" y="67" type="curve"/>
			<point x="87" y="42.3333"/>
			<point x="108.333" y="12.3333"/>
			<point x="166.667" y="-3.33333" type="curve"/>
			<point x="215.667" y="-3.33333"/>
			<point x="245.333" y="-2.66667"/>
			<point x="314.667" y="12" type="curve"/>
			<point x="389.333" y="36"/>
			<point x="450.333" y="102.667"/>
			<point x="450.333" y="184" type="curve" smooth="yes"/>
			<point x="450.333" y="289.667"/>
			<point x="364" y="345.667"/>
			<point x="280.333" y="378" type="curve" smooth="yes"/>
			<point x="227" y="398"/>
			<point x="136.667" y="442"/>
			<point x="136.667" y="517" type="curve" smooth="yes"/>
			<point x="136.667" y="573"/>
			<point x="182" y="621.667"/>
			<point x="238.333" y="621.667" type="curve" smooth="yes"/>
			<point x="331.333" y="621.667"/>
			<point x="361.333" y="554.667"/>
			<point x="380.667" y="488.667" type="curve"/>
			<point x="392.667" y="486"/>
			<point x="409.667" y="486.667"/>
			<point x="419.333" y="494.333" type="curve"/>
			<point x="410.667" y="544.333"/>
			<point x="409.667" y="575.667"/>
		</contour>
	</outline>
	<anchor name="t.uni0302" x="232" y="740"/>
	<anchor name="m.uni0316_2" x="234" y="-110"/>
	<anchor name="m.uni031A_3" x="481" y="732"/>
</glyph>
<glyph name="Y" format="2">
	<unicode hex="0059"/>
	<advance width="591"/>
	<outline>
		<contour>
			<point x="353.667" y="122" type="curve" smooth="yes"/>
			<point x="353.667" y="261.333" type="line" smooth="yes"/>
			<point x="353.667" y="294.667"/>
			<point x="355.667" y="312.333"/>
			<point x="371.333" y="339.667" type="curve" smooth="yes"/>
			<point x="493.333" y="555" type="line" smooth="yes"/>
			<point x="519.667" y="601.667"/>
			<point x="540.667" y="609.667"/>
			<point x="585.667" y="613.667" type="curve"/>
			<point x="591.667" y="619.667"/>
			<point x="591.667" y="641"/>
			<point x="585.667" y="647" type="curve"/>
			<point x="557" y="646"/>
			<point x="522.333" y="645"/>
			<point x="499.333" y="645" type="curve" smooth="yes"/>
			<point x="476.333" y="645"/>
			<point x="436.333" y="646"/>
			<point x="401.667" y="647" type="curve"/>
			<point x="395.667" y="641"/>
			<point x="395.667" y="619.667"/>
			<point x="401.667" y="613.667" type="curve"/>
			<point x="445.667" y="610.667"/>
			<point x="464" y="598.667"/>
			<point x="444.667" y="562" type="curve" smooth="yes"/>
			<point x="336.333" y="358" type="line" smooth="yes"/>
			<point x="328.667" y="343.667"/>
			<point x="323" y="344.333"/>
			<point x="314" y="360.333" type="curve" smooth="yes"/>
			<point x="202" y="558.333" type="line" smooth="yes"/>
			<point x="179" y="599"/>
			<point x="181.667" y="610.667"/>
			<point x="237.667" y="613.667" type="curve"/>
			<point x="243.667" y="619.667"/>
			<point x="243.667" y="641"/>
			<point x="237.667" y="647" type="curve"/>
			<point x="200.333" y="646"/>
			<point x="160.333" y="645"/>
			<point x="120.333" y="645" type="curve" smooth="yes"/>
			<point x="81.3333" y="645"/>
			<point x="35" y="646"/>
			<point x="5" y="647" type="curve"/>
			<point x="-1" y="641"/>
			<point x="0" y="619.667"/>
			<point x="6" y="613.667" type="curve"/>
			<point x="48" y="610.667"/>
			<point x="65.6667" y="604.333"/>
			<point x="100" y="547" type="curve" smooth="yes"/>
			<point x="229.667" y="328" type="line" smooth="yes"/>
			<point x="247.667" y="299"/>
			<point x="250.333" y="289.333"/>
			<point x="250.333" y="252.333" type="curve" smooth="yes"/>
			<point x="250.333" y="122" type="line" smooth="yes"/>
			<point x="250.333" y="39"/>
			<point x="233.333" y="34.3333"/>
			<point x="153.333" y="31.3333" type="curve"/>
			<point x="147.333" y="25.3333"/>
			<point x="147.333" y="4"/>
			<point x="153.333" y="-2" type="curve"/>
			<point x="202.333" y="-1"/>
			<point x="256.333" y="0"/>
			<point x="305" y="0" type="curve" smooth="yes"/>
			<point x="349.333" y="0"/>
			<point x="400.667" y="-1"/>
			<point x="450.667" y="-2" type="curve"/>
			<point x="456.667" y="4"/>
			<point x="456.667" y="25.3333"/>
			<point x="450.667" y="31.3333" type="curve"/>
			<point x="370.667" y="34.3333"/>
			<point x="353.667" y="39"/>
		</contour>
	</outline>
	<anchor name="m.uni0302" x="311.667" y="850"/>
	<anchor name="m.uni0316_2" x="304" y="-110"/>
	<anchor name="t.uni0302" x="310.333" y="740"/>
</glyph>
<glyph name="bracketleft" format="2">
	<unicode hex="005B"/>
	<advance width="370"/>
	<outline>
		<contour>
			<point x="104.333" y="-193" type="line"/>
			<point x="327.333" y="-193" type="line"/>
			<point x="333.333" y="-187"/>
			<point x="333.333" y="-169"/>
			<point x="327.333" y="-163" type="curve"/>
			<point x="189.333" y="-152"/>
			<point x="182.333" y="-137"/>
			<point x="182.333" y="-50" type="curve" smooth="yes"/>
			<point x="182.333" y="561" type="line" smooth="yes"/>
			<point x="182.333" y="648"/>
			<point x="190.333" y="663"/>
			<point x="327.333" y="673" type="curve"/>
			<point x="333.333" y="679"/>
			<point x="333.333" y="697"/>
			<point x="327.333" y="703" type="curve"/>
			<point x="104.333" y="703" type="line"/>
		</contour>
	</outline>
</glyph>
<glyph name="bracketright" format="2">
	<unicode hex="005D"/>
	<advance width="370"/>
	<outline>
		<contour>
			<point x="266" y="703" type="line"/>
			<point x="43" y="703" type="line"/>
			<point x="37" y="697"/>
			<point x="37" y="679"/>
			<point x="43" y="673" type="curve"/>
			<point x="181" y="662"/>
			<point x="188" y="647"/>
			<point x="188" y="560" type="curve" smooth="yes"/>
			<point x="188" y="-51" type="line" smooth="yes"/>
			<point x="188" y="-138"/>
			<point x="180" y="-153"/>
			<point x="43" y="-163" type="curve"/>
			<point x="37" y="-169"/>
			<point x="37" y="-187"/>
			<point x="43" y="-193" type="curve"/>
			<point x="266" y="-193" type="line"/>
		</contour>
	</outline>
</glyph>
<glyph name="underscore" format="2">
	<unicode hex="005F"/>
	<advance width="486"/>
	<outline>
		<contour>
			<point x="478" y="-107.667" type="curve"/>
			<point x="8.33333" y="-107.667" type="line"/>
			<point x="3" y="-115.033"/>
			<point x="3" y="-146.634"/>
			<point x="8.33333" y="-154" type="curve"/>
			<point x="478" y="-154" type="line"/>
			<point x="483.333" y="-146.634"/>
			<point x="483.333" y="-115.033"/>
		</contour>
	</outline>
</glyph>
<glyph name="b" format="2">
	<unicode hex="0062"/>
	<advance width="509"/>
	<outline>
		<contour>
			<point x="72" y="-2" type="curve"/>
			<point x="79.3333" y="-8.66667"/>
			<point x="86.3333" y="-12.3333"/>
			<point x="98" y="-12.3333" type="curve"/>
			<point x="112.333" y="-0.666667"/>
			<point x="123.667" y="12.6667"/>
			<point x="134" y="28" type="curve"/>
			<point x="167" y="-2"/>
			<point name=".hr01" x="206.667" y="-10"/>
			<point x="250" y="-10" type="curve" smooth="yes"/>
			<point x="355" y="-10"/>
			<point x="473.333" y="88.6667"/>
			<point x="473.333" y="242.333" type="curve" smooth="yes"/>
			<point x="473.333" y="363.667"/>
			<point x="390" y="440.667"/>
			<point x="291.667" y="440.667" type="curve" smooth="yes"/>
			<point x="239.333" y="440.667"/>
			<point x="198.667" y="408"/>
			<point x="157.667" y="374.667" type="curve"/>
			<point x="157.667" y="335.333" type="line"/>
			<point x="199" y="371"/>
			<point x="223" y="387.667"/>
			<point x="266.667" y="387.667" type="curve" smooth="yes"/>
			<point x="323.667" y="387.667"/>
			<point x="369.333" y="323.333"/>
			<point x="369.333" y="226" type="curve" smooth="yes"/>
			<point x="369.333" y="122.667"/>
			<point x="334" y="26.6667"/>
			<point x="244.333" y="26.6667" type="curve" smooth="yes"/>
			<point x="214" y="26.6667"/>
			<point x="192.333" y="45.3333"/>
			<point x="172.667" y="69.6667" type="curve"/>
			<point x="172.667" y="583" type="line" smooth="yes"/>
			<point x="172.667" y="648"/>
			<point x="176.333" y="683"/>
			<point x="176.333" y="687" type="curve" smooth="yes"/>
			<point x="176.333" y="694.667"/>
			<point x="171.333" y="698"/>
			<point x="162.333" y="698" type="curve"/>
			<point x="133.333" y="687.333"/>
			<point x="56.6667" y="674.333"/>
			<point x="6.33333" y="671.333" type="curve"/>
			<point x="4" y="662"/>
			<point x="5.66667" y="647.667"/>
			<point x="11.3333" y="640.667" type="curve"/>
			<point x="65.6667" y="637.667"/>
			<point x="76.6667" y="632"/>
			<point x="76.6667" y="591.667" type="curve" smooth="yes"/>
			<point x="76.6667" y="89.6667" type="line" smooth="yes"/>
			<point x="76.6667" y="36"/>
			<point x="75.3333" y="20"/>
		</contour>
	</outline>
	<anchor name="m.uni0316_2" x="234" y="-110"/>
	<anchor name="m.uni031A_3" x="420" y="580"/>
</glyph>
<glyph name="d" format="2">
	<unicode hex="0064"/>
	<advance width="524"/>
	<outline>
		<contour>
			<point x="359.667" y="-4.33333" type="curve"/>
			<point x="365.667" y="-10.3333"/>
			<point x="371.333" y="-11.3333"/>
			<point x="380" y="-10" type="curve"/>
			<point x="407" y="5.33333"/>
			<point x="450.333" y="20"/>
			<point name=".hr01" x="514" y="27.6667" type="curve"/>
			<point x="518.667" y="33.6667"/>
			<point x="518" y="50.3333"/>
			<point x="513.333" y="56.3333" type="curve"/>
			<point x="452.667" y="61.3333"/>
			<point x="443" y="79.3333"/>
			<point x="443" y="131" type="curve" smooth="yes"/>
			<point x="443" y="583" type="line" smooth="yes"/>
			<point x="443" y="648"/>
			<point x="446.667" y="684.333"/>
			<point x="446.667" y="687" type="curve" smooth="yes"/>
			<point x="446.667" y="694.667"/>
			<point x="441.667" y="698"/>
			<point x="432.667" y="698" type="curve"/>
			<point x="403.667" y="687.333"/>
			<point x="327" y="674.333"/>
			<point x="276.667" y="671.333" type="curve"/>
			<point x="274.333" y="662"/>
			<point x="276" y="647"/>
			<point x="281.667" y="640" type="curve"/>
			<point x="334.667" y="638.333"/>
			<point x="347" y="630"/>
			<point x="347" y="584.333" type="curve" smooth="yes"/>
			<point x="347" y="111.333" type="line" smooth="yes"/>
			<point x="347" y="68.3333"/>
			<point x="350.667" y="37.3333"/>
		</contour>
		<contour>
			<point x="361.667" y="417.667" type="line"/>
			<point x="332.333" y="431.667"/>
			<point x="296" y="440.667"/>
			<point x="265" y="440.667" type="curve" smooth="yes"/>
			<point x="133.333" y="440.667"/>
			<point x="38.3333" y="331.667"/>
			<point x="38.3333" y="201.333" type="curve" smooth="yes"/>
			<point x="38.3333" y="81.6667"/>
			<point x="103" y="-10"/>
			<point name=".hr02" x="214" y="-10" type="curve" smooth="yes"/>
			<point x="258.333" y="-10"/>
			<point x="322.333" y="31.3333"/>
			<point x="357" y="66.3333" type="curve"/>
			<point x="355.667" y="107" type="line"/>
			<point x="328.333" y="79.6667"/>
			<point x="285" y="43.3333"/>
			<point x="245.333" y="43.3333" type="curve" smooth="yes"/>
			<point x="192.667" y="43.3333"/>
			<point x="142.333" y="101.333"/>
			<point x="142.333" y="223.667" type="curve" smooth="yes"/>
			<point x="142.333" y="299.333"/>
			<point x="159" y="403.333"/>
			<point x="256.667" y="403.333" type="curve" smooth="yes"/>
			<point x="298" y="403.333"/>
			<point x="319.667" y="393.333"/>
			<point x="361.667" y="335.333" type="curve"/>
		</contour>
	</outline>
	<anchor name="m.uni0302" x="218" y="645"/>
	<anchor name="t.uni0315_1" x="500" y="466"/>
	<anchor name="m.uni0316_2" x="221" y="-110"/>
	<anchor name="m.uni031A_3" x="490" y="580"/>
	<anchor name="b.uni0321_4" x="312" y="20"/>
</glyph>
<glyph name="e" format="2">
	<unicode hex="0065"/>
	<advance width="461"/>
	<outline>
		<contour>
			<point x="401" y="105" type="curve"/>
			<point x="362.667" y="65.6667"/>
			<point x="325.333" y="51.3333"/>
			<point x="274" y="51.3333" type="curve" smooth="yes"/>
			<point x="170.667" y="51.3333"/>
			<point x="138.333" y="159"/>
			<point x="138.333" y="243.667" type="curve"/>
			<point x="395.667" y="242.333" type="line"/>
			<point x="411.667" y="242.333"/>
			<point x="418" y="252"/>
			<point x="418" y="264" type="curve" smooth="yes"/>
			<point x="418" y="348.333"/>
			<point x="387" y="439.333"/>
			<point x="245.333" y="439.333" type="curve" smooth="yes"/>
			<point x="152.333" y="439.333"/>
			<point x="37" y="353"/>
			<point x="37" y="200.667" type="curve" smooth="yes"/>
			<point x="37" y="71.3333"/>
			<point x="113.333" y="-10"/>
			<point x="244.333" y="-10" type="curve" smooth="yes"/>
			<point x="318" y="-10"/>
			<point x="376.667" y="25"/>
			<point x="420" y="84" type="curve"/>
			<point x="418" y="95"/>
			<point x="412.333" y="104.333"/>
		</contour>
		<contour>
			<point x="141" y="279.667" type="line"/>
			<point x="157.333" y="383"/>
			<point x="212.667" y="403.333"/>
			<point x="241" y="403.333" type="curve" smooth="yes"/>
			<point x="276" y="403.333"/>
			<point x="318.333" y="380.667"/>
			<point x="318.333" y="298" type="curve" smooth="yes"/>
			<point x="318.333" y="289.667"/>
			<point x="314.333" y="281.667"/>
			<point x="303.333" y="281.667" type="curve"/>
		</contour>
	</outline>
	<anchor name="t.uni0302" x="244.667" y="500"/>
	<anchor name="t.uni0315_1" x="421.667" y="396"/>
	<anchor name="m.uni0316_2" x="235.667" y="-110"/>
	<anchor name="b.uni0321_4" x="385.667" y="41"/>
</glyph>
<glyph name="f" format="2">
	<unicode hex="0066"/>
	<advance width="337"/>
	<outline>
		<contour>
			<point x="193.333" y="124" type="curve" smooth="yes"/>
			<point x="193.333" y="388" type="line"/>
			<point x="284" y="388" type="line" smooth="yes"/>
			<point x="296" y="388"/>
			<point x="311" y="392.333"/>
			<point x="311" y="402.333" type="curve" smooth="yes"/>
			<point x="311" y="423.333" type="line" smooth="yes"/>
			<point x="311" y="428"/>
			<point x="308.667" y="430.667"/>
			<point x="299" y="430.667" type="curve" smooth="yes"/>
			<point x="193.333" y="430.667" type="line"/>
			<point x="193.333" y="485.667" type="line" smooth="yes"/>
			<point x="193.333" y="638"/>
			<point x="237.667" y="661.333"/>
			<point x="267" y="661.333" type="curve" smooth="yes"/>
			<point x="292.667" y="661.333"/>
			<point x="304.667" y="648.333"/>
			<point x="316.333" y="617" type="curve" smooth="yes"/>
			<point x="324.667" y="594.333"/>
			<point x="340.667" y="576.667"/>
			<point x="366.667" y="576.667" type="curve" smooth="yes"/>
			<point x="389" y="576.667"/>
			<point x="413" y="597.667"/>
			<point x="413" y="625.333" type="curve" smooth="yes"/>
			<point x="413" y="673"/>
			<point x="350" y="698"/>
			<point x="286" y="698" type="curve" smooth="yes"/>
			<point x="185" y="698"/>
			<point x="97.3333" y="609.667"/>
			<point x="97.3333" y="464" type="curve" smooth="yes"/>
			<point x="97.3333" y="430.667" type="line"/>
			<point x="62.6667" y="430.667" type="line" smooth="yes"/>
			<point x="39.3333" y="430.667"/>
			<point x="22.3333" y="421"/>
			<point x="22.3333" y="413" type="curve" smooth="yes"/>
			<point x="22.3333" y="395.333" type="line" smooth="yes"/>
			<point x="22.3333" y="389.667"/>
			<point x="24.3333" y="388"/>
			<point x="34.6667" y="388" type="curve" smooth="yes"/>
			<point x="97.3333" y="388" type="line"/>
			<point x="97.3333" y="123.333" type="line" smooth="yes"/>
			<point x="97.3333" y="40.6667"/>
			<point x="81.3333" y="35"/>
			<point x="25" y="31.3333" type="curve"/>
			<point x="19" y="25.3333"/>
			<point x="19" y="4"/>
			<point x="25" y="-2" type="curve"/>
			<point x="62.3333" y="-1"/>
			<point x="100.667" y="0"/>
			<point x="145.667" y="0" type="curve" smooth="yes"/>
			<point x="190.667" y="0"/>
			<point x="237.333" y="-1"/>
			<point x="275" y="-2" type="curve"/>
			<point x="281" y="4"/>
			<point x="281" y="25.3333"/>
			<point x="275" y="31.3333" type="curve"/>
			<point x="202.667" y="35"/>
			<point x="193.333" y="40.6667"/>
		</contour>
	</outline>
	<anchor name="m.uni0316_2" x="132" y="-110"/>
	<anchor name="m.uni031A_3" x="410" y="750"/>
</glyph>
<glyph name="g" format="2">
	<unicode hex="0067"/>
	<advance width="507"/>
	<outline>
		<contour>
			<point x="55.3333" y="290" type="curve" smooth="yes"/>
			<point x="55.3333" y="192.333"/>
			<point x="141" y="138"/>
			<point x="230.333" y="138" type="curve" smooth="yes"/>
			<point x="319" y="138"/>
			<point x="403.333" y="191"/>
			<point x="403.333" y="289.667" type="curve" smooth="yes"/>
			<point x="403.333" y="339.667"/>
			<point x="384.667" y="370"/>
			<point x="354" y="399.333" type="curve"/>
			<point x="361.333" y="409.333"/>
			<point x="385.667" y="424.667"/>
			<point x="397.667" y="424.667" type="curve" smooth="yes"/>
			<point x="405.333" y="424.667"/>
			<point x="412.333" y="420.667"/>
			<point x="417.333" y="412.667" type="curve"/>
			<point x="421.333" y="403"/>
			<point x="436" y="389.333"/>
			<point x="451.667" y="389.333" type="curve" smooth="yes"/>
			<point x="473.667" y="389.333"/>
			<point x="491" y="405.333"/>
			<point x="491" y="431" type="curve" smooth="yes"/>
			<point x="491" y="451.333"/>
			<point x="469.667" y="471.667"/>
			<point x="439" y="471.667" type="curve" smooth="yes"/>
			<point x="407" y="471.667"/>
			<point x="355.667" y="449.333"/>
			<point x="328.667" y="418" type="curve"/>
			<point x="314.667" y="426.667"/>
			<point name=".hr01" x="285.667" y="440.667"/>
			<point x="231.333" y="440.667" type="curve" smooth="yes"/>
			<point x="143" y="440.667"/>
			<point x="55.3333" y="384.333"/>
		</contour>
		<contour>
			<point x="25" y="-118" type="curve" smooth="yes"/>
			<point name=".hr02" x="25" y="-215.667"/>
			<point x="110.667" y="-238"/>
			<point x="195" y="-238" type="curve" smooth="yes"/>
			<point x="331.333" y="-238"/>
			<point x="481.667" y="-170.333"/>
			<point x="481.667" y="-61.6667" type="curve" smooth="yes"/>
			<point x="481.667" y="43.6667"/>
			<point x="346.667" y="56.6667"/>
			<point x="268.667" y="56.6667" type="curve" smooth="yes"/>
			<point x="240" y="56.6667"/>
			<point x="209.667" y="51.6667"/>
			<point x="186" y="51" type="curve" smooth="yes"/>
			<point x="144.667" y="50"/>
			<point x="115" y="61"/>
			<point x="115" y="103" type="curve" smooth="yes"/>
			<point x="115" y="120"/>
			<point x="131.667" y="146"/>
			<point x="153" y="167.333" type="curve"/>
			<point x="127" y="180.667" type="line"/>
			<point x="88" y="150"/>
			<point x="46.6667" y="98.6667"/>
			<point x="46.6667" y="72" type="curve" smooth="yes"/>
			<point x="46.6667" y="9.33333"/>
			<point x="117" y="-18.3333"/>
			<point x="173" y="-18.3333" type="curve" smooth="yes"/>
			<point x="219.333" y="-18.3333"/>
			<point x="287.333" y="-17.3333"/>
			<point x="296.667" y="-35" type="curve"/>
			<point x="330" y="-47"/>
			<point x="406" y="-63.3333"/>
			<point x="395" y="-119.333" type="curve" smooth="yes"/>
			<point x="384.667" y="-173.333"/>
			<point x="297" y="-199.333"/>
			<point x="224.333" y="-199.333" type="curve" smooth="yes"/>
			<point x="178.333" y="-199.333"/>
			<point x="107.333" y="-163.667"/>
			<point x="107.333" y="-101.333" type="curve" smooth="yes"/>
			<point x="107.333" y="-62"/>
			<point x="109.333" y="-35.6667"/>
			<point x="144.333" y="1.33333" type="curve"/>
			<point x="124.667" y="4.33333" type="line"/>
			<point x="65.6667" y="-23.6667"/>
			<point x="25" y="-80.3333"/>
		</contour>
		<contour>
			<point x="150" y="303" type="curve" smooth="yes"/>
			<point x="150" y="374.333"/>
			<point name=".hr03" x="172.667" y="407.333"/>
			<point x="222.333" y="407.333" type="curve" smooth="yes"/>
			<point x="280" y="407.333"/>
			<point x="309.333" y="363.667"/>
			<point x="309.333" y="282" type="curve" smooth="yes"/>
			<point x="309.333" y="188"/>
			<point x="268.667" y="171.333"/>
			<point x="235.333" y="171.333" type="curve" smooth="yes"/>
			<point x="158.667" y="171.333"/>
			<point x="150" y="243.333"/>
		</contour>
	</outline>
	<anchor name="m.uni0302" x="231" y="645"/>
	<anchor name="m.uni0316_2" x="229" y="-319"/>
	<anchor name="m.uni031A_3" x="492" y="580"/>
</glyph>
<glyph name="i" format="2">
	<unicode hex="0069"/>
	<advance width="288"/>
	<outline>
		<component base="dotlessi"/>
		<contour>
			<point x="92.3333" y="598" type="curve" smooth="yes"/>
			<point x="92.3333" y="569.667"/>
			<point x="116.333" y="541.333"/>
			<point x="145.667" y="541.333" type="curve" smooth="yes"/>
			<point x="179.333" y="541.333"/>
			<point x="204" y="571.333"/>
			<point x="204" y="594" type="curve" smooth="yes"/>
			<point x="204" y="620"/>
			<point x="182.333" y="650.667"/>
			<point x="150.333" y="650.667" type="curve" smooth="yes"/>
			<point x="118.667" y="650.667"/>
			<point x="92.3333" y="624"/>
		</contour>
	</outline>
	<anchor name="m.uni0302" x="137" y="795"/>
	<anchor name="m.uni0316_2" x="136" y="-110"/>
	<anchor name="b.uni0321_4" x="209" y="10"/>
</glyph>
<glyph name="j" format="2">
	<unicode hex="006A"/>
	<advance width="285"/>
	<outline>
		<component base="uni0237"/>
		<contour>
			<point x="97.6667" y="598" type="curve" smooth="yes"/>
			<point x="97.6667" y="569.667"/>
			<point x="121.667" y="541.333"/>
			<point x="151" y="541.333" type="curve" smooth="yes"/>
			<point x="184.667" y="541.333"/>
			<point x="209.333" y="571.333"/>
			<point x="209.333" y="594" type="curve" smooth="yes"/>
			<point x="209.333" y="620"/>
			<point x="187.667" y="650.667"/>
			<point x="155.667" y="650.667" type="curve" smooth="yes"/>
			<point x="124" y="650.667"/>
			<point x="97.6667" y="624"/>
		</contour>
	</outline>
	<anchor name="m.uni0316_2" x="109" y="-319"/>
</glyph>
<glyph name="k" format="2">
	<unicode hex="006B"/>
	<advance width="546"/>
	<outline>
		<contour>
			<point x="20.3333" y="-2" type="curve"/>
			<point x="56.3333" y="-1"/>
			<point x="94" y="0"/>
			<point x="139" y="0" type="curve" smooth="yes"/>
			<point x="177" y="0"/>
			<point x="213.667" y="-1"/>
			<point x="237" y="-2" type="curve"/>
			<point x="243" y="4"/>
			<point x="243" y="25.3333"/>
			<point x="237" y="31.3333" type="curve"/>
			<point x="199.667" y="35.3333"/>
			<point x="186.667" y="40.6667"/>
			<point x="186.667" y="123.667" type="curve" smooth="yes"/>
			<point x="186.667" y="583" type="line" smooth="yes"/>
			<point x="186.667" y="648"/>
			<point x="190.333" y="683"/>
			<point x="190.333" y="687" type="curve" smooth="yes"/>
			<point x="190.333" y="694.667"/>
			<point x="185.333" y="698"/>
			<point x="176.333" y="698" type="curve"/>
			<point x="147.333" y="687.333"/>
			<point x="70.6667" y="674.333"/>
			<point x="20.3333" y="671.333" type="curve"/>
			<point x="18" y="662"/>
			<point x="19.6667" y="647.667"/>
			<point x="25.3333" y="640.667" type="curve"/>
			<point x="78.3333" y="639"/>
			<point x="90.6667" y="630.667"/>
			<point x="90.6667" y="585" type="curve" smooth="yes"/>
			<point x="90.6667" y="123.667" type="line" smooth="yes"/>
			<point x="90.6667" y="40.6667"/>
			<point x="78" y="35"/>
			<point x="20.3333" y="31.3333" type="curve"/>
			<point x="14.3333" y="25.3333"/>
			<point x="14.3333" y="4"/>
		</contour>
		<contour>
			<point x="166.667" y="209.667" type="line"/>
			<point x="216.667" y="209.667"/>
			<point x="243" y="200"/>
			<point x="261.667" y="174" type="curve" smooth="yes"/>
			<point x="331" y="74.6667" type="line" smooth="yes"/>
			<point x="354" y="42.6667"/>
			<point x="363.667" y="22.3333"/>
			<point x="364.333" y="2.66667" type="curve"/>
			<point x="364.333" y="0"/>
			<point x="365.667" y="-2"/>
			<point x="368.667" y="-2" type="curve"/>
			<point x="383.667" y="-1.33333"/>
			<point x="410.667" y="0"/>
			<point x="435.667" y="0" type="curve" smooth="yes"/>
			<point x="470" y="0"/>
			<point x="509.333" y="-1"/>
			<point x="535" y="-2" type="curve"/>
			<point x="541" y="4"/>
			<point x="541" y="25.3333"/>
			<point x="535" y="31.3333" type="curve"/>
			<point x="493.333" y="36"/>
			<point x="471.333" y="42.3333"/>
			<point x="447.333" y="74.6667" type="curve" smooth="yes"/>
			<point x="320.667" y="242.333" type="line" smooth="yes"/>
			<point x="317" y="247"/>
			<point x="314.333" y="251.333"/>
			<point x="314.333" y="256" type="curve" smooth="yes"/>
			<point x="314.333" y="259.333"/>
			<point x="314.667" y="262"/>
			<point x="317.667" y="265" type="curve" smooth="yes"/>
			<point x="393" y="344" type="line" smooth="yes"/>
			<point x="430.667" y="384.667"/>
			<point x="461" y="395"/>
			<point x="508" y="399.333" type="curve"/>
			<point x="514" y="405.333"/>
			<point x="514" y="426.667"/>
			<point x="508" y="432.667" type="curve"/>
			<point x="485.333" y="431.667"/>
			<point x="445.667" y="430.667"/>
			<point x="413" y="430.667" type="curve" smooth="yes"/>
			<point x="375.333" y="430.667"/>
			<point x="335" y="431.667"/>
			<point x="307.333" y="432.667" type="curve"/>
			<point x="301.333" y="426.667"/>
			<point x="301.333" y="405.333"/>
			<point x="307.333" y="399.333" type="curve"/>
			<point x="338" y="397"/>
			<point x="349.667" y="389.333"/>
			<point x="349.667" y="377.667" type="curve" smooth="yes"/>
			<point x="349.667" y="350.333"/>
			<point x="282.667" y="282.333"/>
			<point x="257" y="264.333" type="curve" smooth="yes"/>
			<point x="233.333" y="248"/>
			<point x="192.333" y="238"/>
			<point x="166.667" y="238" type="curve"/>
		</contour>
	</outline>
	<anchor name="m.uni0302" x="306" y="784"/>
	<anchor name="m.uni0316_2" x="290" y="-214"/>
	<anchor name="m.uni031A_3" x="536" y="696"/>
</glyph>
<glyph name="l" format="2">
	<unicode hex="006C"/>
	<advance width="284"/>
	<outline>
		<contour>
			<point x="96.6667" y="123.667" type="line" smooth="yes"/>
			<point x="96.6667" y="40.6667"/>
			<point x="84" y="34.3333"/>
			<point x="23" y="31.3333" type="curve"/>
			<point x="17" y="25.3333"/>
			<point x="17" y="4"/>
			<point x="23" y="-2" type="curve"/>
			<point x="60.3333" y="-1"/>
			<point x="100" y="0"/>
			<point x="145" y="0" type="curve" smooth="yes"/>
			<point x="190" y="0"/>
			<point x="230" y="-1"/>
			<point x="266.333" y="-2" type="curve"/>
			<point x="272.333" y="4"/>
			<point x="272.333" y="25.3333"/>
			<point x="266.333" y="31.3333" type="curve"/>
			<point x="205.333" y="34.3333"/>
			<point x="192.667" y="40.6667"/>
			<point x="192.667" y="123.667" type="curve" smooth="yes"/>
			<point x="192.667" y="582.333" type="line" smooth="yes"/>
			<point x="192.667" y="647.667"/>
			<point x="196.333" y="683"/>
			<point x="196.333" y="688.667" type="curve" smooth="yes"/>
			<point x="196.333" y="694.667"/>
			<point x="191.333" y="698"/>
			<point x="182.333" y="698" type="curve"/>
			<point x="153.333" y="687.333"/>
			<point x="76.6667" y="674.333"/>
			<point x="26.3333" y="671.333" type="curve"/>
			<point x="24" y="661.667"/>
			<point x="25.6667" y="647.333"/>
			<point x="31.3333" y="640" type="curve"/>
			<point x="91" y="635.667"/>
			<point x="96.6667" y="633.333"/>
			<point x="96.6667" y="560.333" type="curve" smooth="yes"/>
		</contour>
	</outline>
	<anchor name="m.uni0302" x="131.667" y="885"/>
	<anchor name="m.uni0316_2" x="135" y="-110"/>
	<anchor name="m.uni031A_3" x="249" y="733"/>
</glyph>
<glyph name="m" format="2">
	<unicode hex="006D"/>
	<advance width="828"/>
	<outline>
		<contour>
			<point x="745.333" y="130" type="line"/>
			<point x="745.333" y="281.333" type="line" smooth="yes"/>
			<point x="745.333" y="377.333"/>
			<point x="722" y="440.667"/>
			<point x="634.667" y="440.667" type="curve" smooth="yes"/>
			<point x="584.667" y="440.667"/>
			<point x="501.333" y="404"/>
			<point x="447.333" y="350.333" type="curve"/>
			<point x="451.667" y="312.667" type="line"/>
			<point x="500.667" y="365.333"/>
			<point x="552" y="381.333"/>
			<point x="586.667" y="381.333" type="curve" smooth="yes"/>
			<point x="625.333" y="381.333"/>
			<point x="649.333" y="360.667"/>
			<point x="649.333" y="297" type="curve" smooth="yes"/>
			<point x="649.333" y="130" type="line"/>
		</contour>
		<contour>
			<point x="468.333" y="130" type="line"/>
			<point x="468.333" y="282" type="line" smooth="yes"/>
			<point x="468.333" y="361"/>
			<point x="450" y="440.667"/>
			<point x="353" y="440.667" type="curve" smooth="yes"/>
			<point x="298" y="440.667"/>
			<point x="225" y="391"/>
			<point x="178" y="346" type="curve"/>
			<point x="180.667" y="310" type="line"/>
			<point x="218" y="347"/>
			<point x="263.667" y="381.333"/>
			<point x="305" y="381.333" type="curve" smooth="yes"/>
			<point x="343.667" y="381.333"/>
			<point x="372.333" y="359.333"/>
			<point x="372.333" y="295.667" type="curve" smooth="yes"/>
			<point x="372.333" y="130" type="line"/>
		</contour>
		<contour>
			<point x="191.333" y="130" type="line"/>
			<point x="191.333" y="313.667" type="line" smooth="yes"/>
			<point x="191.333" y="365"/>
			<point x="187.333" y="413"/>
			<point x="181.667" y="430.333" type="curve"/>
			<point x="179.333" y="439"/>
			<point x="175.667" y="442.667"/>
			<point x="165.667" y="442.667" type="curve"/>
			<point x="134.667" y="432"/>
			<point x="97.3333" y="421.333"/>
			<point x="28.3333" y="412.333" type="curve"/>
			<point x="26.3333" y="406.333"/>
			<point x="28.3333" y="389"/>
			<point x="30.3333" y="383" type="curve"/>
			<point x="84.6667" y="378"/>
			<point x="95.3333" y="372"/>
			<point x="95.3333" y="314.333" type="curve" smooth="yes"/>
			<point x="95.3333" y="130" type="line"/>
		</contour>
		<contour>
			<point x="95.3333" y="130" type="line"/>
			<point x="95.3333" y="40.6667"/>
			<point x="85" y="36.6667"/>
			<point x="24.6667" y="31.3333" type="curve"/>
			<point x="18.6667" y="25.3333"/>
			<point x="18.6667" y="4"/>
			<point x="24.6667" y="-2" type="curve"/>
			<point x="58.6667" y="-1"/>
			<point x="99.3333" y="0"/>
			<point x="143.667" y="0" type="curve" smooth="yes"/>
			<point x="185.667" y="0"/>
			<point x="215" y="-1"/>
			<point x="249.333" y="-2" type="curve"/>
			<point x="255.333" y="4"/>
			<point x="255.333" y="25.3333"/>
			<point x="249.333" y="31.3333" type="curve"/>
			<point x="201.333" y="36"/>
			<point x="191.333" y="40.6667"/>
			<point x="191.333" y="130" type="curve"/>
		</contour>
		<contour>
			<point x="372.333" y="130" type="line"/>
			<point x="372.333" y="40.6667"/>
			<point x="363.667" y="36.6667"/>
			<point x="314.333" y="31.3333" type="curve"/>
			<point x="308.333" y="25.3333"/>
			<point x="308.333" y="4"/>
			<point x="314.333" y="-2" type="curve"/>
			<point x="345" y="-1"/>
			<point x="381" y="0"/>
			<point x="420.667" y="0" type="curve" smooth="yes"/>
			<point x="462.667" y="0"/>
			<point x="492" y="-1"/>
			<point x="526.333" y="-2" type="curve"/>
			<point x="532.333" y="4"/>
			<point x="532.333" y="25.3333"/>
			<point x="526.333" y="31.3333" type="curve"/>
			<point x="478.333" y="36"/>
			<point x="468.333" y="40.6667"/>
			<point x="468.333" y="130" type="curve"/>
		</contour>
		<contour>
			<point x="649.333" y="130" type="line"/>
			<point x="649.333" y="40.6667"/>
			<point x="640.667" y="36.6667"/>
			<point x="591.333" y="31.3333" type="curve"/>
			<point x="585.333" y="25.3333"/>
			<point x="585.333" y="4"/>
			<point x="591.333" y="-2" type="curve"/>
			<point x="622" y="-1"/>
			<point x="658" y="0"/>
			<point x="697.667" y="0" type="curve" smooth="yes"/>
			<point x="745" y="0"/>
			<point x="777" y="-1"/>
			<point x="816" y="-2" type="curve"/>
			<point x="822" y="4"/>
			<point x="822" y="25.3333"/>
			<point x="816" y="31.3333" type="curve"/>
			<point x="757.333" y="36"/>
			<point x="745.333" y="40.6667"/>
			<point x="745.333" y="130" type="curve"/>
		</contour>
	</outline>
	<anchor name="m.uni0302" x="392" y="645"/>
	<anchor name="m.uni0316_2" x="423.667" y="-110"/>
</glyph>
<glyph name="n" format="2">
	<unicode hex="006E"/>
	<advance width="567"/>
	<outline>
		<contour>
			<point x="26" y="-2" type="curve"/>
			<point x="60" y="-1"/>
			<point x="100.667" y="0"/>
			<point x="145" y="0" type="curve" smooth="yes"/>
			<point x="187" y="0"/>
			<point x="216.333" y="-1"/>
			<point x="250.667" y="-2" type="curve"/>
			<point x="256.667" y="4"/>
			<point x="256.667" y="25.3333"/>
			<point x="250.667" y="31.3333" type="curve"/>
			<point x="202.667" y="36"/>
			<point x="192.667" y="39.6667"/>
			<point x="192.667" y="122" type="curve" smooth="yes"/>
			<point x="192.667" y="315" type="line"/>
			<point x="230.667" y="348.667"/>
			<point x="274.667" y="381.333"/>
			<point x="318" y="381.333" type="curve" smooth="yes"/>
			<point x="370" y="381.333"/>
			<point x="384.667" y="328.667"/>
			<point x="384.667" y="281" type="curve" smooth="yes"/>
			<point x="384.667" y="124" type="line" smooth="yes"/>
			<point x="384.667" y="41.3333"/>
			<point x="372.667" y="35.6667"/>
			<point x="324.333" y="31.3333" type="curve"/>
			<point x="319" y="25.3333"/>
			<point x="319" y="4"/>
			<point x="324.333" y="-2" type="curve"/>
			<point x="358.333" y="-1"/>
			<point x="390.333" y="0"/>
			<point x="433" y="0" type="curve" smooth="yes"/>
			<point x="478" y="0"/>
			<point x="516.667" y="-1"/>
			<point x="551" y="-2" type="curve"/>
			<point x="556.333" y="4"/>
			<point x="556.333" y="25.3333"/>
			<point x="551" y="31.3333" type="curve"/>
			<point x="493.333" y="35.6667"/>
			<point x="480.667" y="41.3333"/>
			<point x="480.667" y="124" type="curve" smooth="yes"/>
			<point x="480.667" y="275.333" type="line" smooth="yes"/>
			<point x="480.667" y="367.333"/>
			<point x="460.333" y="440.667"/>
			<point x="363" y="440.667" type="curve" smooth="yes"/>
			<point x="316" y="440.667"/>
			<point x="239.667" y="400.667"/>
			<point x="181.667" y="342.333" type="curve"/>
			<point x="191.667" y="337.667" type="line"/>
			<point x="189.667" y="371.333"/>
			<point x="186.333" y="422"/>
			<point x="182.667" y="431.667" type="curve"/>
			<point x="181" y="439"/>
			<point x="177" y="442.667"/>
			<point x="167" y="442.667" type="curve"/>
			<point x="136" y="432"/>
			<point x="98.6667" y="421.333"/>
			<point x="29.6667" y="412.333" type="curve"/>
			<point x="27.6667" y="406.333"/>
			<point x="29.6667" y="389"/>
			<point x="31.6667" y="383" type="curve"/>
			<point x="86" y="378"/>
			<point x="96.6667" y="372"/>
			<point x="96.6667" y="314.333" type="curve" smooth="yes"/>
			<point x="96.6667" y="122" type="line" smooth="yes"/>
			<point x="96.6667" y="39.6667"/>
			<point x="86.3333" y="36.3333"/>
			<point x="26" y="31.3333" type="curve"/>
			<point x="20" y="25.3333"/>
			<point x="20" y="4"/>
		</contour>
	</outline>
	<anchor name="t.uni0302" x="261.667" y="500"/>
	<anchor name="m.uni0316_2" x="265" y="-110"/>
</glyph>
<glyph name="r" format="2">
	<unicode hex="0072"/>
	<advance width="391"/>
	<outline>
		<contour>
			<point x="99.3333" y="120" type="line"/>
			<point x="99.3333" y="37.6667"/>
			<point x="87.6667" y="35.6667"/>
			<point x="26" y="31.3333" type="curve"/>
			<point x="20" y="25.3333"/>
			<point x="20" y="4"/>
			<point x="26" y="-2" type="curve"/>
			<point x="63.3333" y="-1"/>
			<point x="103.333" y="0"/>
			<point x="148" y="0" type="curve" smooth="yes"/>
			<point x="192.333" y="0"/>
			<point x="236.333" y="-1"/>
			<point x="274" y="-2" type="curve"/>
			<point x="280" y="4"/>
			<point x="280" y="25.3333"/>
			<point x="274" y="31.3333" type="curve"/>
			<point x="207" y="36"/>
			<point x="195.333" y="37.6667"/>
			<point x="195.333" y="120" type="curve"/>
		</contour>
		<contour>
			<point name=".hr01" x="195.333" y="120" type="line"/>
			<point x="195.333" y="263.333" type="line" smooth="yes"/>
			<point x="195.333" y="305.333"/>
			<point x="230.667" y="368.333"/>
			<point x="260.667" y="368.333" type="curve" smooth="yes"/>
			<point x="269.667" y="368.333"/>
			<point x="279.333" y="364"/>
			<point x="287.333" y="353.333" type="curve" smooth="yes"/>
			<point x="294.333" y="344"/>
			<point name=".hr02" x="308" y="332.667"/>
			<point x="327" y="332.667" type="curve" smooth="yes"/>
			<point x="352.667" y="332.667"/>
			<point x="377.333" y="359.333"/>
			<point x="377.333" y="390" type="curve" smooth="yes"/>
			<point x="377.333" y="411.333"/>
			<point x="355.333" y="440.667"/>
			<point x="315.333" y="440.667" type="curve" smooth="yes"/>
			<point x="272.333" y="440.667"/>
			<point x="232.333" y="401.333"/>
			<point x="201.667" y="353.333" type="curve"/>
			<point x="197.338" y="346"/>
			<point x="193.464" y="351.333"/>
			<point x="193.333" y="354.667" type="curve" smooth="yes"/>
			<point x="191.333" y="391.333"/>
			<point x="189" y="425"/>
			<point x="185.667" y="431.667" type="curve"/>
			<point x="184" y="438"/>
			<point x="180" y="442.667"/>
			<point x="170" y="442.667" type="curve"/>
			<point x="135.333" y="431.333"/>
			<point x="100.333" y="420.667"/>
			<point x="32.3333" y="412.333" type="curve"/>
			<point x="30.3333" y="406.333"/>
			<point x="32.3333" y="389.333"/>
			<point x="34.3333" y="383.333" type="curve"/>
			<point x="88.6667" y="378.333"/>
			<point x="99.3333" y="372"/>
			<point x="99.3333" y="314.333" type="curve" smooth="yes"/>
			<point x="99.3333" y="120" type="line"/>
		</contour>
	</outline>
	<anchor name="m.uni0302" x="191" y="646"/>
	<anchor name="m.uni0316_2" x="135" y="-110"/>
	<anchor name="m.uni031A_3" x="349" y="580"/>
</glyph>
<glyph name="u" format="2">
	<unicode hex="0075"/>
	<advance width="553"/>
	<outline>
		<contour>
			<point x="217" y="-10" type="curve" smooth="yes"/>
			<point x="258" y="-10"/>
			<point name=".hr01" x="331.333" y="28"/>
			<point x="385.333" y="69.6667" type="curve"/>
			<point x="383.667" y="107.333" type="line"/>
			<point x="343" y="71"/>
			<point name=".hr02" x="286.667" y="46"/>
			<point x="261" y="46" type="curve" smooth="yes"/>
			<point x="227.667" y="46"/>
			<point name=".hr03" x="184.333" y="57"/>
			<point x="184.333" y="139.667" type="curve" smooth="yes"/>
			<point x="184.333" y="316.667" type="line" smooth="yes"/>
			<point x="184.333" y="364.667"/>
			<point x="187.667" y="409.333"/>
			<point x="187.667" y="417.333" type="curve" smooth="yes"/>
			<point x="187.667" y="425"/>
			<point x="184.333" y="430.667"/>
			<point x="179" y="432.667" type="curve"/>
			<point x="169.667" y="431.667"/>
			<point x="152.667" y="430.667"/>
			<point x="136.667" y="430.667" type="curve" smooth="yes"/>
			<point x="98.3333" y="430.667"/>
			<point x="61.6667" y="431.667"/>
			<point x="24.6667" y="432.667" type="curve"/>
			<point x="18.6667" y="426.667"/>
			<point x="18.6667" y="405.333"/>
			<point x="24.6667" y="399.333" type="curve"/>
			<point x="72" y="396"/>
			<point x="88.3333" y="385.333"/>
			<point x="88.3333" y="314" type="curve" smooth="yes"/>
			<point x="88.3333" y="134" type="line" smooth="yes"/>
			<point x="88.3333" y="52.6667"/>
			<point name=".hr04" x="122.333" y="-10"/>
		</contour>
		<contour>
			<point x="379.333" y="2.33333" type="curve"/>
			<point x="380.333" y="-6.33333"/>
			<point x="389.667" y="-10"/>
			<point x="401.667" y="-10" type="curve"/>
			<point x="428.667" y="5.33333"/>
			<point x="472" y="20"/>
			<point x="535.667" y="27.6667" type="curve"/>
			<point name=".hr05" x="540.333" y="33.6667"/>
			<point x="539.667" y="50.3333"/>
			<point x="535" y="56.3333" type="curve"/>
			<point x="474.333" y="61.3333"/>
			<point x="464.667" y="79.3333"/>
			<point x="464.667" y="131" type="curve" smooth="yes"/>
			<point x="464.667" y="316.667" type="line" smooth="yes"/>
			<point x="464.667" y="364.667"/>
			<point x="468" y="409.333"/>
			<point x="468" y="417.333" type="curve" smooth="yes"/>
			<point x="468" y="425"/>
			<point x="464.667" y="430.667"/>
			<point x="459.333" y="432.667" type="curve"/>
			<point x="450" y="431.667"/>
			<point x="433.333" y="430.667"/>
			<point x="417" y="430.667" type="curve" smooth="yes"/>
			<point x="386.333" y="430.667"/>
			<point x="340.667" y="431.667"/>
			<point x="305" y="432.667" type="curve"/>
			<point x="299" y="426.667"/>
			<point x="299" y="405.333"/>
			<point x="305" y="399.333" type="curve"/>
			<point x="354.667" y="395.667"/>
			<point x="368.667" y="385.333"/>
			<point x="368.667" y="313.333" type="curve" smooth="yes"/>
			<point x="368.667" y="123" type="line" smooth="yes"/>
			<point x="368.667" y="79.6667"/>
			<point x="371.667" y="44.3333"/>
		</contour>
	</outline>
	<anchor name="t.uni0302" x="248" y="500"/>
	<anchor name="m.uni0316_2" x="239" y="-110"/>
	<anchor name="b.uni0321_4" x="293" y="7"/>
</glyph>
<glyph name="v" format="2">
	<unicode hex="0076"/>
	<advance width="508"/>
	<outline>
		<contour>
			<point x="330.667" y="399.333" type="curve"/>
			<point x="384.667" y="395.333"/>
			<point x="391" y="382"/>
			<point x="369.667" y="331" type="curve" smooth="yes"/>
			<point x="289.333" y="139.333" type="line" smooth="yes"/>
			<point x="277.333" y="110.333"/>
			<point x="272.667" y="112.667"/>
			<point x="261" y="143" type="curve" smooth="yes"/>
			<point x="190.333" y="335.667" type="line" smooth="yes"/>
			<point x="173.667" y="380.333"/>
			<point x="171.333" y="393"/>
			<point x="223" y="399.333" type="curve"/>
			<point x="229" y="405.333"/>
			<point x="229" y="426.667"/>
			<point x="223" y="432.667" type="curve"/>
			<point x="188.667" y="431.667"/>
			<point x="152" y="430.667"/>
			<point x="113.667" y="430.667" type="curve" smooth="yes"/>
			<point x="80" y="430.667"/>
			<point x="43" y="431.667"/>
			<point x="10.6667" y="432.667" type="curve"/>
			<point x="4.66667" y="426.667"/>
			<point x="4.66667" y="405.333"/>
			<point x="10.6667" y="399.333" type="curve"/>
			<point x="65.3333" y="393"/>
			<point x="70.6667" y="375.667"/>
			<point x="90.6667" y="325" type="curve" smooth="yes"/>
			<point x="219.667" y="9" type="line" smooth="yes"/>
			<point x="225.667" y="-6"/>
			<point x="235.333" y="-12"/>
			<point x="248.333" y="-12" type="curve" smooth="yes"/>
			<point x="258.333" y="-12"/>
			<point x="269.667" y="-7.33333"/>
			<point x="277.333" y="11" type="curve" smooth="yes"/>
			<point x="411.667" y="324" type="line" smooth="yes"/>
			<point x="431" y="368.333"/>
			<point x="442.667" y="394.333"/>
			<point x="497.667" y="399.333" type="curve"/>
			<point x="503.667" y="405.333"/>
			<point x="503.667" y="426.667"/>
			<point x="497.667" y="432.667" type="curve"/>
			<point x="477" y="431.667"/>
			<point x="450.333" y="430.667"/>
			<point x="425.667" y="430.667" type="curve" smooth="yes"/>
			<point x="391.333" y="430.667"/>
			<point x="356.333" y="431.667"/>
			<point x="330.667" y="432.667" type="curve"/>
			<point x="324.667" y="426.667"/>
			<point x="324.667" y="405.333"/>
		</contour>
	</outline>
	<anchor name="m.uni0302" x="256" y="646"/>
	<anchor name="m.uni0316_2" x="241" y="-110"/>
	<anchor name="m.uni031A_3" x="460" y="580"/>
</glyph>
<glyph name="x" format="2">
	<unicode hex="0078"/>
	<advance width="514"/>
	<outline>
		<contour>
			<point x="19.6667" y="-2" type="curve"/>
			<point x="39.6667" y="-1"/>
			<point x="64.6667" y="0"/>
			<point x="95.3333" y="0" type="curve" smooth="yes"/>
			<point x="129.667" y="0"/>
			<point x="164" y="-1"/>
			<point x="188" y="-2" type="curve"/>
			<point x="194" y="4"/>
			<point x="194" y="25.3333"/>
			<point x="188" y="31.3333" type="curve"/>
			<point x="158" y="35.3333"/>
			<point x="142.333" y="40"/>
			<point x="164.333" y="71.6667" type="curve" smooth="yes"/>
			<point x="227" y="161.333" type="line" smooth="yes"/>
			<point x="233.667" y="171"/>
			<point x="237.333" y="171.333"/>
			<point x="242.333" y="163.667" type="curve" smooth="yes"/>
			<point x="297" y="80" type="line" smooth="yes"/>
			<point x="326" y="37.3333"/>
			<point x="312" y="35"/>
			<point x="279" y="31.3333" type="curve"/>
			<point x="273" y="25.3333"/>
			<point x="273" y="4"/>
			<point x="279" y="-2" type="curve"/>
			<point x="305.667" y="-1"/>
			<point x="348.667" y="0"/>
			<point x="390.333" y="0" type="curve" smooth="yes"/>
			<point x="433" y="0"/>
			<point x="471.667" y="-1"/>
			<point x="494.333" y="-2" type="curve"/>
			<point x="500.333" y="4"/>
			<point x="500.333" y="25.3333"/>
			<point x="494.333" y="31.3333" type="curve"/>
			<point x="452" y="35.3333"/>
			<point x="430.667" y="41.6667"/>
			<point x="393.333" y="95.6667" type="curve" smooth="yes"/>
			<point x="304" y="224" type="line"/>
			<point x="299.667" y="230.667"/>
			<point x="299" y="233.667"/>
			<point x="303.333" y="239" type="curve" smooth="yes"/>
			<point x="389" y="346.333" type="line" smooth="yes"/>
			<point x="423" y="389"/>
			<point x="451" y="396.333"/>
			<point x="485.333" y="399.333" type="curve"/>
			<point x="491.333" y="405.333"/>
			<point x="491.333" y="426.667"/>
			<point x="485.333" y="432.667" type="curve"/>
			<point x="465.333" y="431.667"/>
			<point x="439.667" y="430.667"/>
			<point x="408.667" y="430.667" type="curve" smooth="yes"/>
			<point x="375.667" y="430.667"/>
			<point x="343.333" y="431.667"/>
			<point x="319.333" y="432.667" type="curve"/>
			<point x="313.333" y="426.667"/>
			<point x="313.333" y="405.333"/>
			<point x="319.333" y="399.333" type="curve"/>
			<point x="356" y="395.667"/>
			<point x="366" y="390"/>
			<point x="343.333" y="357.667" type="curve" smooth="yes"/>
			<point x="282" y="271.333" type="line" smooth="yes"/>
			<point x="276.333" y="263"/>
			<point x="272" y="263.667"/>
			<point x="265.333" y="273.333" type="curve" smooth="yes"/>
			<point x="209.667" y="358.667" type="line" smooth="yes"/>
			<point x="187.333" y="393.333"/>
			<point x="196.333" y="394.667"/>
			<point x="239" y="399.333" type="curve"/>
			<point x="245" y="405.333"/>
			<point x="245" y="426.667"/>
			<point x="239" y="432.667" type="curve"/>
			<point x="214.333" y="431.667"/>
			<point x="163.333" y="430.667"/>
			<point x="125" y="430.667" type="curve" smooth="yes"/>
			<point x="88.6667" y="430.667"/>
			<point x="49.6667" y="431.667"/>
			<point x="25.6667" y="432.667" type="curve"/>
			<point x="19.6667" y="426.667"/>
			<point x="19.6667" y="405.333"/>
			<point x="25.6667" y="399.333" type="curve"/>
			<point x="63.3333" y="397.333"/>
			<point x="88.6667" y="377"/>
			<point x="116.667" y="336.333" type="curve" smooth="yes"/>
			<point x="204.333" y="209.333" type="line" smooth="yes"/>
			<point x="208.667" y="203.333"/>
			<point x="208.667" y="200"/>
			<point x="204" y="194.333" type="curve" smooth="yes"/>
			<point x="117.333" y="84.3333" type="line" smooth="yes"/>
			<point x="82.3333" y="39.6667"/>
			<point x="53" y="34"/>
			<point x="19.6667" y="31.3333" type="curve"/>
			<point x="13.6667" y="25.3333"/>
			<point x="13.6667" y="4"/>
		</contour>
	</outline>
	<anchor name="m.uni0302" x="256" y="646"/>
	<anchor name="m.uni0316_2" x="224" y="-110"/>
	<anchor name="m.uni031A_3" x="469" y="580"/>
	<anchor name="t.uni0302" x="274.333" y="500"/>
</glyph>
<glyph name="y" format="2">
	<unicode hex="0079"/>
	<advance width="529"/>
	<outline>
		<contour>
			<point x="296.667" y="91.6667" type="line"/>
			<point x="191.333" y="335.667" type="line" smooth="yes"/>
			<point x="173.667" y="376.667"/>
			<point x="167.667" y="395"/>
			<point x="224.667" y="399.333" type="curve"/>
			<point x="230.667" y="405.333"/>
			<point x="230.667" y="426.667"/>
			<point x="224.667" y="432.667" type="curve"/>
			<point x="187.667" y="431.667"/>
			<point x="141" y="430.667"/>
			<point x="105" y="430.667" type="curve" smooth="yes"/>
			<point x="71" y="430.667"/>
			<point x="34" y="431.667"/>
			<point x="14" y="432.667" type="curve"/>
			<point x="8" y="426.667"/>
			<point x="8" y="405.333"/>
			<point x="14" y="399.333" type="curve"/>
			<point x="55.3333" y="394.667"/>
			<point x="66.6667" y="386.333"/>
			<point x="93" y="324.667" type="curve" smooth="yes"/>
			<point x="243.333" y="-24.6667" type="line"/>
		</contour>
		<contour>
			<point x="65.3333" y="-187.667" type="curve" smooth="yes"/>
			<point x="64.6667" y="-212"/>
			<point x="83.6667" y="-232"/>
			<point x="113" y="-232" type="curve" smooth="yes"/>
			<point x="180" y="-232"/>
			<point x="200.667" y="-206.667"/>
			<point x="258.333" y="-74" type="curve" smooth="yes"/>
			<point x="437" y="335.667" type="line" smooth="yes"/>
			<point x="454" y="374"/>
			<point x="474.333" y="394.333"/>
			<point x="518" y="399.333" type="curve"/>
			<point x="524" y="405.333"/>
			<point x="524" y="426.667"/>
			<point x="518" y="432.667" type="curve"/>
			<point x="496.333" y="431.667"/>
			<point x="475" y="430.667"/>
			<point x="447" y="430.667" type="curve" smooth="yes"/>
			<point x="415.333" y="430.667"/>
			<point x="383.333" y="431.667"/>
			<point x="351" y="432.667" type="curve"/>
			<point x="345" y="426.667"/>
			<point x="345" y="405.333"/>
			<point x="351" y="399.333" type="curve"/>
			<point x="383" y="396.333"/>
			<point x="415" y="390.667"/>
			<point x="399" y="354.667" type="curve" smooth="yes"/>
			<point x="196" y="-111.667" type="line" smooth="yes"/>
			<point x="186" y="-136"/>
			<point x="171" y="-147.333"/>
			<point x="145" y="-147.333" type="curve" smooth="yes"/>
			<point x="124.333" y="-147.333"/>
			<point x="118.667" y="-143.333"/>
			<point x="102.333" y="-144" type="curve" smooth="yes"/>
			<point x="82.3333" y="-144.667"/>
			<point x="66" y="-164.667"/>
		</contour>
	</outline>
	<anchor name="t.uni0302" x="262" y="500"/>
	<anchor name="m.uni0316_2" x="242" y="-319"/>
</glyph>
<glyph name="braceleft" format="2">
	<unicode hex="007B"/>
	<advance width="287"/>
	<outline>
		<contour>
			<point x="188" y="552" type="line" smooth="yes"/>
			<point x="183" y="655"/>
			<point x="230" y="672"/>
			<point x="268" y="683" type="curve"/>
			<point x="274" y="689"/>
			<point x="274" y="701"/>
			<point x="268" y="707" type="curve"/>
			<point x="178" y="707"/>
			<point x="102" y="667"/>
			<point x="106" y="554" type="curve" smooth="yes"/>
			<point x="112" y="370" type="line"/>
			<point x="112" y="320"/>
			<point x="88" y="267.333"/>
			<point x="14" y="260.333" type="curve"/>
			<point x="5" y="251.333"/>
			<point x="6" y="241.667"/>
			<point x="14" y="233.667" type="curve"/>
			<point x="88" y="224.667"/>
			<point x="114" y="182"/>
			<point x="112" y="121" type="curve" smooth="yes"/>
			<point x="106" y="-49" type="line" smooth="yes"/>
			<point x="101" y="-179"/>
			<point x="167" y="-212"/>
			<point x="268" y="-212" type="curve"/>
			<point x="274" y="-206"/>
			<point x="274" y="-194"/>
			<point x="268" y="-188" type="curve"/>
			<point x="224" y="-188"/>
			<point x="184" y="-138"/>
			<point x="188" y="-54" type="curve" smooth="yes"/>
			<point x="196" y="95" type="line" smooth="yes"/>
			<point x="200" y="177"/>
			<point x="159" y="217"/>
			<point x="91" y="245" type="curve"/>
			<point x="91" y="249" type="line"/>
			<point x="158" y="268"/>
			<point x="200" y="297"/>
			<point x="196" y="386" type="curve" smooth="yes"/>
		</contour>
	</outline>
</glyph>
<glyph name="braceright" format="2">
	<unicode hex="007D"/>
	<advance width="287"/>
	<outline>
		<contour>
			<point x="96.3333" y="-57.3333" type="line" smooth="yes"/>
			<point x="101.333" y="-160.333"/>
			<point x="54.3333" y="-177.333"/>
			<point x="16.3333" y="-188.333" type="curve"/>
			<point x="10.3333" y="-194.333"/>
			<point x="10.3333" y="-206.333"/>
			<point x="16.3333" y="-212.333" type="curve"/>
			<point x="106.333" y="-212.333"/>
			<point x="182.333" y="-172.333"/>
			<point x="178.333" y="-59.3333" type="curve" smooth="yes"/>
			<point x="172.333" y="124.667" type="line"/>
			<point x="172.333" y="174.667"/>
			<point x="196.333" y="227.333"/>
			<point x="270.333" y="234.333" type="curve"/>
			<point x="279.333" y="243.333"/>
			<point x="278.333" y="253"/>
			<point x="270.333" y="261" type="curve"/>
			<point x="197.333" y="270"/>
			<point x="170.333" y="312.667"/>
			<point x="172.333" y="373.667" type="curve" smooth="yes"/>
			<point x="178.333" y="543.667" type="line" smooth="yes"/>
			<point x="183.333" y="673.667"/>
			<point x="117.333" y="706.667"/>
			<point x="16.3333" y="706.667" type="curve"/>
			<point x="10.3333" y="700.667"/>
			<point x="10.3333" y="688.667"/>
			<point x="16.3333" y="682.667" type="curve"/>
			<point x="60.3333" y="682.667"/>
			<point x="101.333" y="632.667"/>
			<point x="96.3333" y="548.667" type="curve" smooth="yes"/>
			<point x="88.3333" y="399.667" type="line" smooth="yes"/>
			<point x="84.3333" y="317.667"/>
			<point x="125.333" y="277.667"/>
			<point x="193.333" y="249.667" type="curve"/>
			<point x="193.333" y="245.667" type="line"/>
			<point x="126.333" y="226.667"/>
			<point x="84.3333" y="197.667"/>
			<point x="88.3333" y="108.667" type="curve" smooth="yes"/>
		</contour>
	</outline>
</glyph>
<glyph name="cent" format="2">
	<unicode hex="00A2"/>
	<advance width="490"/>
	<outline>
		<contour>
			<point x="242" y="602" type="line"/>
			<point x="242" y="512" type="line"/>
			<point x="151.333" y="498.333"/>
			<point x="69" y="417"/>
			<point x="66.3333" y="294.333" type="curve" smooth="yes"/>
			<point x="66" y="287.333"/>
			<point x="66" y="281"/>
			<point x="66.6667" y="274" type="curve"/>
			<point x="68.6667" y="213.667"/>
			<point x="89.6667" y="162.667"/>
			<point x="125.333" y="128.333" type="curve" smooth="yes"/>
			<point x="155.333" y="99.6667"/>
			<point x="192.667" y="84"/>
			<point x="242" y="79.6667" type="curve"/>
			<point x="242" y="-12.6667" type="line"/>
			<point x="277.333" y="-12.6667" type="line"/>
			<point x="277.333" y="79.3333" type="line"/>
			<point x="331" y="83"/>
			<point x="382.333" y="109.333"/>
			<point x="423" y="175.333" type="curve"/>
			<point name=".hr01" x="421" y="184.667"/>
			<point x="415" y="193.667"/>
			<point x="405.333" y="194.333" type="curve"/>
			<point x="376" y="161.333"/>
			<point x="345.333" y="141.333"/>
			<point x="315.667" y="136" type="curve"/>
			<point x="307.333" y="134"/>
			<point x="298" y="133.667"/>
			<point x="289.667" y="133.667" type="curve"/>
			<point x="285.667" y="134"/>
			<point x="281.333" y="134.667"/>
			<point name=".hr02" x="277.333" y="135.667" type="curve"/>
			<point x="277.333" y="477.667" type="line"/>
			<point x="311" y="471.667"/>
			<point x="322" y="447.333"/>
			<point x="326" y="422" type="curve"/>
			<point x="327" y="417"/>
			<point x="327.333" y="411.667"/>
			<point x="329" y="407" type="curve"/>
			<point x="334" y="383.333"/>
			<point x="350" y="373"/>
			<point x="372" y="373" type="curve" smooth="yes"/>
			<point x="394" y="373"/>
			<point x="418.333" y="387"/>
			<point name=".hr03" x="420.667" y="413.667" type="curve"/>
			<point x="421.333" y="415.667"/>
			<point x="421.667" y="417.667"/>
			<point x="421.667" y="419.667" type="curve" smooth="yes"/>
			<point x="421.667" y="468.667"/>
			<point x="370" y="512"/>
			<point name=".hr04" x="277.333" y="514.333" type="curve"/>
			<point x="277.333" y="602" type="line"/>
		</contour>
		<contour>
			<point x="242" y="147.333" type="line"/>
			<point x="196.667" y="172.333"/>
			<point x="164" y="232"/>
			<point x="164" y="313" type="curve" smooth="yes"/>
			<point x="164" y="406"/>
			<point x="194.667" y="463.667"/>
			<point x="242" y="476.667" type="curve"/>
		</contour>
	</outline>
</glyph>
<glyph name="currency" format="2">
	<unicode hex="00A4"/>
	<advance width="464"/>
	<outline>
		<contour>
			<point x="230.667" y="120" type="curve" smooth="yes"/>
			<point x="272.333" y="120"/>
			<point x="309.667" y="132"/>
			<point x="343" y="155" type="curve"/>
			<point x="392" y="100.333" type="line"/>
			<point x="435.333" y="146.333" type="line"/>
			<point x="424.991" y="155.135"/>
			<point x="392.215" y="182.693"/>
			<point x="381.333" y="191.667" type="curve"/>
			<point x="406.667" y="225.333"/>
			<point x="421" y="262.333"/>
			<point x="421" y="302.333" type="curve" smooth="yes"/>
			<point x="421" y="344.333"/>
			<point x="407" y="381.333"/>
			<point x="380.333" y="414" type="curve"/>
			<point x="437.333" y="460.333" type="line"/>
			<point x="390.667" y="509.333" type="line"/>
			<point x="383.343" y="500.338"/>
			<point x="351.436" y="462.706"/>
			<point x="341" y="450.333" type="curve"/>
			<point x="308.667" y="473"/>
			<point x="273.333" y="485"/>
			<point x="231.333" y="485" type="curve" smooth="yes"/>
			<point x="191" y="485"/>
			<point x="155.333" y="474"/>
			<point x="122" y="452" type="curve"/>
			<point x="73.3333" y="506.333" type="line"/>
			<point x="29" y="459.333" type="line"/>
			<point x="39.4942" y="450.605"/>
			<point x="72.1308" y="424.762"/>
			<point x="83" y="416.333" type="curve"/>
			<point x="55.3333" y="383.333"/>
			<point x="40.3333" y="345.333"/>
			<point x="40.3333" y="302.333" type="curve" smooth="yes"/>
			<point x="40.3333" y="261"/>
			<point x="55.3333" y="223.333"/>
			<point x="82.6667" y="189.667" type="curve"/>
			<point x="27" y="145.333" type="line"/>
			<point x="76" y="97" type="line"/>
			<point x="83.2743" y="106.156"/>
			<point x="112.046" y="141.917"/>
			<point x="121.333" y="153.667" type="curve"/>
			<point x="153.667" y="131.667"/>
			<point x="190" y="120"/>
		</contour>
		<contour>
			<point x="110" y="303.333" type="curve" smooth="yes"/>
			<point x="110" y="376.333"/>
			<point x="161.667" y="437.333"/>
			<point x="232.667" y="437.333" type="curve" smooth="yes"/>
			<point x="295.333" y="437.333"/>
			<point x="351.333" y="379"/>
			<point x="351.333" y="302.333" type="curve" smooth="yes"/>
			<point x="351.333" y="229.667"/>
			<point x="302.333" y="168.333"/>
			<point x="230.667" y="168.333" type="curve" smooth="yes"/>
			<point x="158.667" y="168.333"/>
			<point x="110" y="228.667"/>
		</contour>
	</outline>
</glyph>
<glyph name="yen" format="2">
	<unicode hex="00A5"/>
	<advance width="490"/>
	<outline>
		<contour>
			<point x="441.333" y="170.333" type="line"/>
			<point x="439.667" y="173"/>
			<point x="435.333" y="174.333"/>
			<point x="431.333" y="174.333" type="curve" smooth="yes"/>
			<point x="300.333" y="174.333" type="line"/>
			<point x="300.333" y="245" type="line"/>
			<point x="415" y="245" type="line" smooth="yes"/>
			<point x="425.667" y="245"/>
			<point x="438" y="247.667"/>
			<point x="441.333" y="254.333" type="curve"/>
			<point x="441.333" y="276.333" type="line" smooth="yes"/>
			<point x="441.333" y="279.333"/>
			<point x="440.667" y="282"/>
			<point x="440" y="284.333" type="curve"/>
			<point x="437" y="285"/>
			<point x="434" y="285"/>
			<point x="431.333" y="285" type="curve" smooth="yes"/>
			<point x="307" y="285" type="line"/>
			<point x="314.667" y="309.333"/>
			<point x="323" y="329"/>
			<point x="335" y="354.333" type="curve" smooth="yes"/>
			<point x="396" y="486" type="line"/>
			<point x="400" y="494"/>
			<point x="403.667" y="501.667"/>
			<point x="407" y="509.333" type="curve" smooth="yes"/>
			<point x="429" y="557"/>
			<point x="440.333" y="564.667"/>
			<point x="486.667" y="568.667" type="curve"/>
			<point x="492.667" y="574.667"/>
			<point x="494" y="596"/>
			<point x="488" y="602" type="curve"/>
			<point x="458.333" y="601"/>
			<point x="438" y="600"/>
			<point x="419.667" y="600" type="curve" smooth="yes"/>
			<point x="416.333" y="600"/>
			<point x="412.333" y="600"/>
			<point x="407.667" y="600" type="curve" smooth="yes"/>
			<point x="388.667" y="600"/>
			<point x="360" y="601"/>
			<point x="329.333" y="602" type="curve"/>
			<point x="323.333" y="596"/>
			<point x="323.333" y="574.667"/>
			<point x="329.333" y="568.667" type="curve"/>
			<point x="364.667" y="566.333"/>
			<point x="377.333" y="562.667"/>
			<point x="370.667" y="540.333" type="curve"/>
			<point x="368" y="529"/>
			<point x="362" y="514.333"/>
			<point x="352.333" y="494" type="curve"/>
			<point x="351.667" y="491.667"/>
			<point x="350.333" y="489.333"/>
			<point x="349.667" y="487" type="curve"/>
			<point x="297.667" y="366.667" type="line"/>
			<point x="281.667" y="330.667" type="line"/>
			<point x="279.333" y="327"/>
			<point x="277.667" y="325"/>
			<point x="275.333" y="325.333" type="curve"/>
			<point x="271" y="331.667"/>
			<point x="266" y="339.667"/>
			<point x="261.333" y="350.333" type="curve"/>
			<point x="178.333" y="521.667" type="line"/>
			<point x="173.667" y="531" type="line" smooth="yes"/>
			<point x="158.333" y="562.333"/>
			<point x="166.333" y="567.667"/>
			<point x="209" y="568.667" type="curve"/>
			<point x="215" y="574.667"/>
			<point x="215" y="596"/>
			<point x="209" y="602" type="curve"/>
			<point x="185" y="601.667"/>
			<point x="158" y="600.667"/>
			<point x="133.333" y="600.667" type="curve"/>
			<point x="118.333" y="600"/>
			<point x="105.667" y="600"/>
			<point x="100" y="600" type="curve" smooth="yes"/>
			<point x="78.3333" y="600"/>
			<point x="33.3333" y="601"/>
			<point x="4.33333" y="602" type="curve"/>
			<point x="-1.66667" y="596"/>
			<point x="-1.33333" y="574.667"/>
			<point x="4.66667" y="568.667" type="curve"/>
			<point x="44.3333" y="565"/>
			<point x="66.3333" y="543.333"/>
			<point x="86" y="505.333" type="curve" smooth="yes"/>
			<point x="88.6667" y="500"/>
			<point x="91" y="495.333"/>
			<point x="94" y="490" type="curve"/>
			<point x="176.333" y="327.333" type="line" smooth="yes"/>
			<point x="185" y="310.333"/>
			<point x="191" y="297.667"/>
			<point x="196.667" y="285" type="curve"/>
			<point x="78" y="285" type="line"/>
			<point x="66" y="282"/>
			<point x="62" y="270"/>
			<point x="62" y="261.667" type="curve" smooth="yes"/>
			<point x="62" y="253.667" type="line" smooth="yes"/>
			<point x="62" y="250.667"/>
			<point x="62" y="248"/>
			<point x="62.6667" y="245.667" type="curve"/>
			<point x="65" y="245"/>
			<point x="68" y="245"/>
			<point x="71" y="245" type="curve" smooth="yes"/>
			<point x="200.333" y="245" type="line"/>
			<point x="200.333" y="174.333" type="line"/>
			<point x="78" y="174.333" type="line"/>
			<point x="66" y="171.333"/>
			<point x="62" y="160.667"/>
			<point x="62" y="152.333" type="curve" smooth="yes"/>
			<point x="62" y="143.667" type="line" smooth="yes"/>
			<point x="62" y="140.667"/>
			<point x="62" y="138"/>
			<point x="62.6667" y="135.667" type="curve"/>
			<point x="65" y="135"/>
			<point x="68" y="134.333"/>
			<point x="71" y="134.333" type="curve" smooth="yes"/>
			<point x="200.333" y="134.333" type="line"/>
			<point x="200.333" y="125.333" type="line" smooth="yes"/>
			<point x="200.333" y="39"/>
			<point x="183.333" y="34.3333"/>
			<point x="100" y="31.3333" type="curve"/>
			<point x="94" y="25.3333"/>
			<point x="94" y="4"/>
			<point x="100" y="-2" type="curve"/>
			<point x="149.667" y="-1"/>
			<point x="190.667" y="0"/>
			<point x="248" y="0" type="curve" smooth="yes"/>
			<point x="266" y="0" type="line" smooth="yes"/>
			<point x="316.667" y="0"/>
			<point x="352.667" y="-1"/>
			<point x="400.667" y="-2" type="curve"/>
			<point x="406.667" y="4"/>
			<point x="406.667" y="25.3333"/>
			<point x="400.667" y="31.3333" type="curve"/>
			<point x="317.333" y="34.3333"/>
			<point x="300.333" y="39"/>
			<point x="300.333" y="125.333" type="curve" smooth="yes"/>
			<point x="300.333" y="134.333" type="line"/>
			<point x="415" y="134.333" type="line" smooth="yes"/>
			<point x="425.667" y="134.333"/>
			<point x="438" y="137"/>
			<point x="441.333" y="143.667" type="curve"/>
		</contour>
	</outline>
</glyph>
<glyph name="brokenbar" format="2">
	<unicode hex="00A6"/>
	<advance width="214"/>
	<outline>
		<contour>
			<point x="133.333" y="161" type="line"/>
			<point x="80.6667" y="161" type="line"/>
			<point x="80.6667" y="-201" type="line"/>
			<point x="133.333" y="-201" type="line"/>
		</contour>
		<contour>
			<point x="133.333" y="674" type="line"/>
			<point x="80.6667" y="674" type="line"/>
			<point x="80.6667" y="312" type="line"/>
			<point x="133.333" y="312" type="line"/>
		</contour>
	</outline>
</glyph>
<glyph name="copyright" format="2">
	<unicode hex="00A9"/>
	<advance width="677"/>
	<outline>
		<contour>
			<point x="321" y="21" type="curve" smooth="yes"/>
			<point x="478" y="21"/>
			<point x="608.333" y="149"/>
			<point x="608.333" y="306" type="curve" smooth="yes"/>
			<point x="608.333" y="463"/>
			<point x="478" y="590"/>
			<point x="321" y="590" type="curve" smooth="yes"/>
			<point x="164" y="590"/>
			<point x="33.3333" y="463"/>
			<point x="33.3333" y="306" type="curve" smooth="yes"/>
			<point x="33.3333" y="150"/>
			<point x="163" y="21"/>
		</contour>
		<contour>
			<point x="321" y="552.333" type="curve" smooth="yes"/>
			<point x="457" y="552.333"/>
			<point x="564.333" y="442.333"/>
			<point x="564.333" y="306" type="curve" smooth="yes"/>
			<point x="564.333" y="169.667"/>
			<point x="456.333" y="59"/>
			<point x="321" y="59" type="curve" smooth="yes"/>
			<point x="183.667" y="59"/>
			<point x="77.3333" y="170.667"/>
			<point x="77.3333" y="306" type="curve" smooth="yes"/>
			<point x="77.3333" y="442"/>
			<point x="184" y="552.333"/>
		</contour>
		<contour>
			<point x="439" y="216.667" type="curve"/>
			<point x="434.333" y="222.667"/>
			<point x="430.333" y="228.667"/>
			<point x="420.667" y="231.667" type="curve"/>
			<point x="410.667" y="217.333"/>
			<point x="389" y="191.333"/>
			<point x="346.333" y="187.333" type="curve"/>
			<point x="343" y="186.667"/>
			<point x="339.667" y="186.667"/>
			<point x="335.667" y="186.667" type="curve" smooth="yes"/>
			<point x="281.333" y="186.667"/>
			<point x="246" y="237"/>
			<point x="246" y="309" type="curve" smooth="yes"/>
			<point x="246" y="403.333"/>
			<point x="288.667" y="428.333"/>
			<point x="325.333" y="428.333" type="curve" smooth="yes"/>
			<point x="377.667" y="428.333"/>
			<point x="393" y="401.333"/>
			<point x="412" y="355.667" type="curve"/>
			<point x="419.667" y="355.667"/>
			<point x="426.667" y="356.333"/>
			<point x="431.333" y="359.333" type="curve"/>
			<point x="431.333" y="361.333"/>
			<point x="431.333" y="362.333"/>
			<point x="431" y="364.333" type="curve"/>
			<point x="431.333" y="385.333"/>
			<point x="431" y="405.667"/>
			<point x="428.333" y="438" type="curve"/>
			<point x="409" y="441.333"/>
			<point x="392.333" y="454.667"/>
			<point x="324.667" y="454.667" type="curve" smooth="yes"/>
			<point x="278.667" y="454.667"/>
			<point x="236.667" y="436.333"/>
			<point x="208.667" y="405.333" type="curve" smooth="yes"/>
			<point x="185" y="379"/>
			<point x="172.333" y="342.667"/>
			<point x="172.333" y="304.667" type="curve" smooth="yes"/>
			<point x="172.333" y="264.333"/>
			<point x="187.333" y="225.667"/>
			<point x="215.667" y="196.667" type="curve" smooth="yes"/>
			<point x="218.667" y="193.667"/>
			<point x="221.333" y="191.667"/>
			<point x="224.333" y="188.667" type="curve"/>
			<point x="251" y="166.667"/>
			<point x="288" y="154"/>
			<point x="325.333" y="154" type="curve" smooth="yes"/>
			<point x="378.333" y="154"/>
			<point x="419.667" y="186"/>
		</contour>
	</outline>
</glyph>
<glyph name="logicalnot" format="2">
	<unicode hex="00AC"/>
	<advance width="586"/>
	<outline>
		<contour>
			<point x="487" y="110.333" type="line"/>
			<point x="504.326" y="104.333"/>
			<point x="532.338" y="106.333"/>
			<point x="547.667" y="110.333" type="curve"/>
			<point x="547.667" y="378.333" type="line"/>
			<point x="34.6667" y="378.333" type="line"/>
			<point x="30" y="362.482"/>
			<point x="32" y="342.379"/>
			<point x="34.6667" y="331" type="curve"/>
			<point x="487" y="331" type="line"/>
		</contour>
	</outline>
</glyph>
<glyph name="uni00AD" format="2">
	<unicode hex="00AD"/>
	<advance width="342"/>
	<outline>
		<contour>
			<point x="271.667" y="220.333" type="line" smooth="yes"/>
			<point x="288" y="220.333"/>
			<point x="305.333" y="254"/>
			<point x="305.333" y="266.333" type="curve" smooth="yes"/>
			<point x="305.333" y="276.667"/>
			<point x="300" y="286.667"/>
			<point x="284" y="286.667" type="curve" smooth="yes"/>
			<point x="71.3333" y="286.667" type="line" smooth="yes"/>
			<point x="56.3333" y="286.667"/>
			<point x="39.3333" y="257.667"/>
			<point x="39.3333" y="240" type="curve" smooth="yes"/>
			<point x="39.3333" y="229.667"/>
			<point x="47.6667" y="220.333"/>
			<point x="61.6667" y="220.333" type="curve" smooth="yes"/>
		</contour>
	</outline>
</glyph>
<glyph name="degree" format="2">
	<unicode hex="00B0"/>
	<advance width="267"/>
	<outline>
		<contour>
			<point x="32" y="514.333" type="curve" smooth="yes"/>
			<point x="32" y="458.333"/>
			<point x="78" y="412.667"/>
			<point x="134" y="412.667" type="curve" smooth="yes"/>
			<point x="190" y="412.667"/>
			<point x="235" y="458.333"/>
			<point x="235" y="514.333" type="curve" smooth="yes"/>
			<point x="235" y="571.333"/>
			<point x="190" y="617"/>
			<point x="134" y="617" type="curve" smooth="yes"/>
			<point x="78" y="617"/>
			<point x="32" y="571.333"/>
		</contour>
		<contour>
			<point x="198" y="513.333" type="curve" smooth="yes"/>
			<point x="198" y="480"/>
			<point x="174.333" y="445.333"/>
			<point x="134" y="445.333" type="curve" smooth="yes"/>
			<point x="93" y="445.333"/>
			<point x="69" y="479"/>
			<point x="69" y="513.333" type="curve" smooth="yes"/>
			<point x="69" y="548.667"/>
			<point x="92" y="584.333"/>
			<point x="134" y="584.333" type="curve" smooth="yes"/>
			<point x="178" y="584.333"/>
			<point x="198" y="545.667"/>
		</contour>
	</outline>
</glyph>
<glyph name="plusminus" format="2">
	<unicode hex="00B1"/>
	<advance width="542"/>
	<outline>
		<contour>
			<point x="302" y="358.667" type="line"/>
			<point x="302" y="514.333" type="line" smooth="yes"/>
			<point x="302" y="525.667"/>
			<point x="296" y="532.667"/>
			<point x="290.667" y="537.333" type="curve"/>
			<point x="275.667" y="537.333"/>
			<point x="252.333" y="528"/>
			<point x="244" y="519.333" type="curve"/>
			<point x="244" y="358.667" type="line"/>
			<point x="77" y="358.667" type="line"/>
			<point x="69" y="350.333"/>
			<point x="60.3333" y="329.667"/>
			<point x="60.3333" y="311.333" type="curve"/>
			<point x="65" y="306"/>
			<point x="74" y="300.667"/>
			<point x="84.6667" y="300.667" type="curve" smooth="yes"/>
			<point x="244" y="300.667" type="line"/>
			<point x="244" y="146.667" type="line" smooth="yes"/>
			<point x="244" y="136"/>
			<point x="249.333" y="127.667"/>
			<point x="254.667" y="123" type="curve"/>
			<point x="273" y="123"/>
			<point x="293.667" y="131.667"/>
			<point x="302" y="139.667" type="curve"/>
			<point x="302" y="300.667" type="line"/>
			<point x="467.667" y="300.667" type="line"/>
			<point x="476.333" y="309"/>
			<point x="485.667" y="332.333"/>
			<point x="485.667" y="347.333" type="curve"/>
			<point x="481" y="352.667"/>
			<point x="473.667" y="358.667"/>
			<point x="462" y="358.667" type="curve" smooth="yes"/>
		</contour>
		<contour>
			<point x="484.333" y="72.3333" type="curve"/>
			<point x="477" y="77.6667"/>
			<point x="467" y="83.6667"/>
			<point x="453" y="83.6667" type="curve" smooth="yes"/>
			<point x="81.3333" y="83.6667" type="line"/>
			<point x="72.3333" y="77"/>
			<point x="62.3333" y="57.6667"/>
			<point x="61.3333" y="41" type="curve"/>
			<point x="68.6667" y="35.6667"/>
			<point x="80" y="30.3333"/>
			<point x="93.6667" y="30.3333" type="curve" smooth="yes"/>
			<point x="463" y="30.3333" type="line"/>
			<point x="472.667" y="37"/>
			<point x="483.333" y="59"/>
		</contour>
	</outline>
</glyph>
<glyph name="uni00B2" format="2">
	<unicode hex="00B2"/>
	<advance width="318"/>
	<outline>
		<contour>
			<point x="42.3333" y="616" type="curve" smooth="yes"/>
			<point x="42.3333" y="599"/>
			<point x="54" y="585.667"/>
			<point x="71" y="585.667" type="curve" smooth="yes"/>
			<point x="84.6667" y="585.667"/>
			<point x="100.333" y="592"/>
			<point x="103.333" y="609.333" type="curve"/>
			<point x="104.333" y="612.333"/>
			<point x="103.667" y="616.333"/>
			<point x="103.667" y="620.333" type="curve" smooth="yes"/>
			<point x="103.667" y="624.667"/>
			<point x="103.667" y="629"/>
			<point x="104.333" y="633.333" type="curve"/>
			<point x="104.333" y="635.333"/>
			<point x="104.333" y="637.667"/>
			<point x="105" y="640" type="curve"/>
			<point x="105.667" y="644"/>
			<point x="107" y="648.667"/>
			<point x="109.333" y="651" type="curve"/>
			<point x="115.667" y="660"/>
			<point x="128" y="665"/>
			<point x="150" y="665" type="curve" smooth="yes"/>
			<point x="157.333" y="665"/>
			<point x="168.667" y="662.667"/>
			<point x="176" y="656.667" type="curve" smooth="yes"/>
			<point x="187.333" y="647.667"/>
			<point x="196.667" y="632"/>
			<point x="196.667" y="605.333" type="curve" smooth="yes"/>
			<point x="196.667" y="568.667"/>
			<point x="182.333" y="543.667"/>
			<point x="153.667" y="517.667" type="curve" smooth="yes"/>
			<point x="146.667" y="511.333"/>
			<point x="138.667" y="505.333"/>
			<point x="131" y="498.333" type="curve"/>
			<point x="119.667" y="489.333"/>
			<point x="108.667" y="479.333"/>
			<point x="98.6667" y="470.333" type="curve"/>
			<point x="65.3333" y="438.333"/>
			<point x="41.6667" y="402.667"/>
			<point x="41.6667" y="364" type="curve"/>
			<point x="257.667" y="364" type="line"/>
			<point x="266.667" y="391.667"/>
			<point x="276" y="427.333"/>
			<point x="280" y="464.333" type="curve"/>
			<point x="275" y="468.333"/>
			<point x="265.667" y="469.667"/>
			<point x="254.667" y="469.667" type="curve"/>
			<point x="243.667" y="441"/>
			<point name=".hr01" x="226.333" y="404.333"/>
			<point x="195.333" y="404.333" type="curve" smooth="yes"/>
			<point x="112.667" y="404.333" type="line"/>
			<point x="117.333" y="424"/>
			<point x="125.667" y="443"/>
			<point x="144.333" y="461.333" type="curve"/>
			<point name=".hr02" x="153.667" y="470"/>
			<point x="163.333" y="478.667"/>
			<point x="175.333" y="487.667" type="curve"/>
			<point x="186" y="496.333" type="line"/>
			<point x="206" y="511.667"/>
			<point x="225.333" y="528.333"/>
			<point x="238.667" y="543.333" type="curve" smooth="yes"/>
			<point x="258.667" y="565.333"/>
			<point x="267.667" y="585.333"/>
			<point x="267.667" y="610.667" type="curve" smooth="yes"/>
			<point x="267.667" y="642.667"/>
			<point x="255.667" y="663"/>
			<point x="234.667" y="677" type="curve" smooth="yes"/>
			<point x="212.667" y="691.333"/>
			<point x="183" y="695"/>
			<point x="157.333" y="695" type="curve" smooth="yes"/>
			<point x="78.3333" y="695"/>
			<point x="42.3333" y="642.667"/>
		</contour>
	</outline>
</glyph>
<glyph name="uni00B3" format="2">
	<unicode hex="00B3"/>
	<advance width="318"/>
	<outline>
		<contour>
			<point x="189.667" y="627.667" type="curve" smooth="yes"/>
			<point x="189.667" y="586"/>
			<point x="155.667" y="558.667"/>
			<point x="111.667" y="552.667" type="curve"/>
			<point x="109.667" y="543.333"/>
			<point x="109.667" y="532.667"/>
			<point x="113" y="524.667" type="curve"/>
			<point x="122.667" y="526.333"/>
			<point x="130" y="527.333"/>
			<point x="137.667" y="527.333" type="curve" smooth="yes"/>
			<point x="167.333" y="527.333"/>
			<point name=".hr01" x="212.667" y="520.667"/>
			<point x="212.667" y="468" type="curve" smooth="yes"/>
			<point x="212.667" y="404.667"/>
			<point x="168" y="388.333"/>
			<point x="142" y="388.333" type="curve" smooth="yes"/>
			<point x="121" y="388.333"/>
			<point x="109.333" y="393.667"/>
			<point x="102" y="400" type="curve"/>
			<point x="99.3333" y="403"/>
			<point x="97" y="406.667"/>
			<point x="94.3333" y="411.333" type="curve" smooth="yes"/>
			<point x="88.6667" y="421.667"/>
			<point x="80.6667" y="429"/>
			<point x="67.6667" y="429.667" type="curve"/>
			<point x="64.3333" y="430.333"/>
			<point x="62" y="430.333"/>
			<point x="59" y="430" type="curve" smooth="yes"/>
			<point x="45.3333" y="428.333"/>
			<point x="33.3333" y="417.667"/>
			<point x="33.3333" y="403.667" type="curve" smooth="yes"/>
			<point x="33.3333" y="401.333"/>
			<point x="33.6667" y="398.333"/>
			<point x="34.6667" y="396" type="curve"/>
			<point x="44" y="369.333"/>
			<point x="98" y="359.667"/>
			<point x="131.333" y="358.333" type="curve"/>
			<point x="133.333" y="358.333"/>
			<point x="134.667" y="358.333"/>
			<point x="136" y="358.333" type="curve" smooth="yes"/>
			<point x="219.333" y="358.333"/>
			<point x="285.667" y="404.667"/>
			<point x="285.667" y="476" type="curve" smooth="yes"/>
			<point x="285.667" y="532.667"/>
			<point x="242.333" y="557.333"/>
			<point x="208" y="563" type="curve"/>
			<point x="207.333" y="563.333"/>
			<point x="207.667" y="564"/>
			<point x="208" y="564.333" type="curve"/>
			<point x="237" y="581.333"/>
			<point name=".hr02" x="257.667" y="605"/>
			<point x="257.667" y="632.667" type="curve" smooth="yes"/>
			<point x="257.667" y="671.333"/>
			<point x="220.333" y="695"/>
			<point x="164" y="695" type="curve" smooth="yes"/>
			<point x="71.6667" y="695"/>
			<point x="42.3333" y="642.333"/>
			<point x="42.3333" y="624.667" type="curve" smooth="yes"/>
			<point x="42.3333" y="621.333"/>
			<point x="45.3333" y="603.333"/>
			<point x="68.6667" y="603.333" type="curve" smooth="yes"/>
			<point x="93.6667" y="603.333"/>
			<point x="96.6667" y="624"/>
			<point x="100" y="636" type="curve" smooth="yes"/>
			<point x="105.333" y="654.333"/>
			<point x="131.667" y="665"/>
			<point x="150.333" y="665" type="curve" smooth="yes"/>
			<point x="168.333" y="665"/>
			<point x="189.667" y="654.667"/>
		</contour>
	</outline>
</glyph>
<glyph name="acute" format="2">
	<unicode hex="00B4"/>
	<advance width="341"/>
	<outline>
		<contour>
			<point x="179" y="663" type="curve"/>
			<point x="100.667" y="540" type="line" smooth="yes"/>
			<point x="93.3333" y="528.333"/>
			<point x="90.6667" y="521.333"/>
			<point x="90.6667" y="513.333" type="curve" smooth="yes"/>
			<point x="90.6667" y="506.667"/>
			<point x="98" y="500"/>
			<point x="105.333" y="500" type="curve" smooth="yes"/>
			<point x="113.333" y="500"/>
			<point x="123.333" y="504"/>
			<point x="138" y="518" type="curve" smooth="yes"/>
			<point x="254.667" y="626.667" type="line"/>
			<point x="249.333" y="641.667" type="line"/>
			<point x="231.333" y="659.667"/>
			<point x="207.667" y="665"/>
			<point x="193.667" y="665" type="curve" smooth="yes"/>
			<point x="188.667" y="665"/>
			<point x="182" y="664"/>
		</contour>
	</outline>
	<anchor name="_t.uni0302" x="175" y="500"/>
</glyph>
<glyph name="mu" format="2">
	<unicode hex="00B5"/>
	<advance width="530"/>
	<outline>
		<contour>
			<point x="342.333" y="56.3333" type="line"/>
			<point x="346.667" y="26.6667"/>
			<point x="363.667" y="-3.33333"/>
			<point x="407.667" y="-8.66667" type="curve"/>
			<point x="415" y="-9.33333"/>
			<point x="423" y="-9.66667"/>
			<point x="431.333" y="-9.33333" type="curve" smooth="yes"/>
			<point x="479.667" y="-7.33333"/>
			<point x="515.333" y="25.6667"/>
			<point x="525.333" y="38.6667" type="curve"/>
			<point x="525.333" y="47.3333"/>
			<point x="518" y="54.6667"/>
			<point x="511.333" y="58" type="curve"/>
			<point x="504" y="55.6667"/>
			<point x="499.333" y="43.3333"/>
			<point x="478.333" y="43" type="curve"/>
			<point x="473.667" y="42.6667"/>
			<point x="469" y="43.3333"/>
			<point x="464.667" y="44" type="curve"/>
			<point x="439.333" y="49.3333"/>
			<point x="435.333" y="80"/>
			<point x="435.333" y="123" type="curve" smooth="yes"/>
			<point x="435.333" y="442" type="line"/>
			<point x="403.667" y="438.333"/>
			<point x="370.333" y="432.333"/>
			<point x="339.333" y="430.667" type="curve"/>
			<point x="339.333" y="104" type="line"/>
			<point x="316.667" y="72"/>
			<point name=".hr01" x="263" y="41"/>
			<point x="212.667" y="41" type="curve" smooth="yes"/>
			<point x="163.667" y="41"/>
			<point x="149.667" y="89"/>
			<point x="149.667" y="151.333" type="curve" smooth="yes"/>
			<point x="149.667" y="343" type="line" smooth="yes"/>
			<point x="149.667" y="375"/>
			<point x="146.667" y="441.667"/>
			<point x="146.667" y="441.667" type="curve"/>
			<point x="111.333" y="438.333"/>
			<point x="74" y="432"/>
			<point x="42.6667" y="430.667" type="curve"/>
			<point x="42.6667" y="430.667"/>
			<point x="53.6667" y="349.333"/>
			<point x="53.6667" y="322.333" type="curve" smooth="yes"/>
			<point x="53.6667" y="135" type="line" smooth="yes"/>
			<point x="53.6667" y="103.333"/>
			<point x="59.3333" y="68.6667"/>
			<point name=".hr02" x="62.3333" y="42" type="curve" smooth="yes"/>
			<point x="64" y="22.6667"/>
			<point x="65.3333" y="6.66667"/>
			<point x="65.3333" y="-6.66667" type="curve" smooth="yes"/>
			<point x="65.3333" y="-41.3333"/>
			<point x="60" y="-70"/>
			<point x="56" y="-97.3333" type="curve" smooth="yes"/>
			<point x="52" y="-121.333"/>
			<point x="49" y="-144.667"/>
			<point x="49" y="-167" type="curve" smooth="yes"/>
			<point x="49" y="-207"/>
			<point x="89.3333" y="-231"/>
			<point x="108.333" y="-233" type="curve" smooth="yes"/>
			<point x="112" y="-233.333"/>
			<point x="116" y="-232.667"/>
			<point x="119.333" y="-232" type="curve"/>
			<point x="140.333" y="-228.667"/>
			<point x="158" y="-211"/>
			<point x="160.333" y="-177.667" type="curve" smooth="yes"/>
			<point x="160.667" y="-174"/>
			<point x="161" y="-169.333"/>
			<point x="160.333" y="-165.333" type="curve"/>
			<point x="159.667" y="-147.667"/>
			<point x="153" y="-123.333"/>
			<point x="147" y="-98.6667" type="curve" smooth="yes"/>
			<point x="142.333" y="-80.3333"/>
			<point x="138.333" y="-60.3333"/>
			<point x="136.333" y="-39.6667" type="curve"/>
			<point x="134.333" y="-27.3333"/>
			<point x="133" y="-14.6667"/>
			<point x="133" y="-2" type="curve" smooth="yes"/>
			<point x="133" y="2.66667"/>
			<point x="137.333" y="6.33333"/>
			<point x="141.333" y="7.66667" type="curve"/>
			<point x="153" y="-2.66667"/>
			<point x="174" y="-9.66667"/>
			<point x="196" y="-10" type="curve"/>
			<point x="197.333" y="-10"/>
			<point x="198.667" y="-10"/>
			<point x="200" y="-10" type="curve" smooth="yes"/>
			<point x="261" y="-10"/>
			<point x="298.667" y="15.6667"/>
			<point x="338.333" y="56" type="curve"/>
		</contour>
	</outline>
</glyph>
<glyph name="ordmasculine" format="2">
	<unicode hex="00BA"/>
	<advance width="355"/>
	<outline>
		<contour>
			<point x="39" y="480" type="curve" smooth="yes"/>
			<point x="39" y="408.667"/>
			<point x="96.3333" y="354"/>
			<point x="175" y="354" type="curve" smooth="yes"/>
			<point x="271" y="354"/>
			<point x="317.333" y="420"/>
			<point x="317.333" y="486" type="curve" smooth="yes"/>
			<point x="317.333" y="531"/>
			<point x="295.667" y="575.333"/>
			<point x="255.333" y="598.667" type="curve" smooth="yes"/>
			<point x="234" y="611.333"/>
			<point x="210.333" y="617"/>
			<point x="181.333" y="617" type="curve" smooth="yes"/>
			<point x="98" y="617"/>
			<point x="39" y="562.333"/>
		</contour>
		<contour>
			<point x="174" y="590" type="curve" smooth="yes"/>
			<point x="224" y="590"/>
			<point x="249.667" y="550"/>
			<point x="249.667" y="470" type="curve" smooth="yes"/>
			<point x="249.667" y="398"/>
			<point x="213" y="382.333"/>
			<point x="186" y="382.333" type="curve" smooth="yes"/>
			<point x="126" y="382.333"/>
			<point x="107" y="441"/>
			<point x="107" y="490" type="curve" smooth="yes"/>
			<point x="107" y="544"/>
			<point x="124" y="590"/>
		</contour>
	</outline>
</glyph>
<glyph name="guillemotright" format="2">
	<unicode hex="00BB"/>
	<advance width="547"/>
	<outline>
		<contour>
			<point x="235.667" y="217.667" type="curve"/>
			<point x="188.333" y="210"/>
			<point x="148" y="190.333"/>
			<point x="89.6667" y="165.667" type="curve"/>
			<point x="88.6667" y="158"/>
			<point x="91" y="149.667"/>
			<point x="96" y="145.667" type="curve"/>
			<point x="162.667" y="178"/>
			<point x="207" y="191.333"/>
			<point x="254" y="211" type="curve"/>
			<point x="243.667" y="198.999"/>
			<point x="232.667" y="185.945"/>
			<point x="219.333" y="162.333" type="curve"/>
			<point x="184.333" y="191.667"/>
			<point x="156" y="221.333"/>
			<point x="105.667" y="277" type="curve"/>
			<point x="122.667" y="304.333"/>
			<point x="130.333" y="312"/>
			<point x="151" y="325.667" type="curve"/>
			<point x="185.667" y="274.188"/>
			<point x="211" y="245.621"/>
		</contour>
		<contour>
			<point x="418.333" y="217.667" type="curve"/>
			<point x="371" y="210"/>
			<point x="330.667" y="190.333"/>
			<point x="272.333" y="165.667" type="curve"/>
			<point x="271.333" y="158"/>
			<point x="273.667" y="149.667"/>
			<point x="278.667" y="145.667" type="curve"/>
			<point x="345.333" y="178"/>
			<point x="389.667" y="191.333"/>
			<point x="436.667" y="211" type="curve"/>
			<point x="426.333" y="198.999"/>
			<point x="415.333" y="185.945"/>
			<point x="402" y="162.333" type="curve"/>
			<point x="367" y="191.667"/>
			<point x="338.667" y="221.333"/>
			<point x="288.333" y="277" type="curve"/>
			<point x="305.333" y="304.333"/>
			<point x="313" y="312"/>
			<point x="333.667" y="325.667" type="curve"/>
			<point x="368.333" y="274.188"/>
			<point x="393.667" y="245.621"/>
		</contour>
	</outline>
</glyph>
<glyph name="onequarter" format="2">
	<unicode hex="00BC"/>
	<advance width="673"/>
	<outline>
		<contour>
			<point x="588.667" y="-20.6667" type="curve" smooth="yes"/>
			<point x="588.667" y="2.33333" type="line"/>
			<point x="641" y="2.33333" type="line"/>
			<point x="646" y="39" type="line"/>
			<point x="588.667" y="39" type="line"/>
			<point x="588.667" y="224.333" type="line" smooth="yes"/>
			<point x="588.667" y="233.333"/>
			<point x="578.333" y="234.333"/>
			<point x="572" y="234.333" type="curve" smooth="yes"/>
			<point x="564.333" y="234.333"/>
			<point x="553" y="234.333"/>
			<point x="546.667" y="233.667" type="curve"/>
			<point x="533.667" y="224.333"/>
			<point x="523" y="212.667"/>
			<point x="513.667" y="201" type="curve" smooth="yes"/>
			<point x="477.333" y="157"/>
			<point x="430" y="99.6667"/>
			<point x="395.333" y="46" type="curve"/>
			<point x="391" y="40.3333"/>
			<point x="387.333" y="35"/>
			<point x="383.667" y="28" type="curve"/>
			<point x="381.667" y="25" type="line"/>
			<point x="382.333" y="21"/>
			<point x="382.333" y="15"/>
			<point x="385" y="9.66667" type="curve"/>
			<point x="387.667" y="5.66667"/>
			<point x="392.667" y="2.33333"/>
			<point x="402.667" y="2.33333" type="curve" smooth="yes"/>
			<point x="526.333" y="2.33333" type="line"/>
			<point x="526.333" y="-20.6667" type="line" smooth="yes"/>
			<point x="526.333" y="-65"/>
			<point x="507.333" y="-68"/>
			<point x="467.333" y="-70" type="curve"/>
			<point x="462.333" y="-78"/>
			<point x="463.333" y="-93.3333"/>
			<point x="467.333" y="-99.3333" type="curve"/>
			<point x="494.667" y="-98.3333"/>
			<point x="513.667" y="-98.3333"/>
			<point x="542" y="-98.3333" type="curve" smooth="yes"/>
			<point x="556.333" y="-98.3333" type="line" smooth="yes"/>
			<point x="588.333" y="-98.3333"/>
			<point x="610.667" y="-98.3333"/>
			<point x="639.333" y="-99.3333" type="curve"/>
			<point x="643.333" y="-92.3333"/>
			<point x="643.333" y="-78"/>
			<point x="639.333" y="-70" type="curve"/>
			<point x="605.333" y="-68"/>
			<point x="588.667" y="-65"/>
		</contour>
		<contour>
			<point x="132" y="577.667" type="curve" smooth="yes"/>
			<point x="144" y="577.667"/>
			<point x="146" y="568.667"/>
			<point x="146" y="536.667" type="curve" smooth="yes"/>
			<point x="146" y="400" type="line" smooth="yes"/>
			<point x="146" y="349"/>
			<point x="115" y="346"/>
			<point x="75" y="344" type="curve"/>
			<point x="70" y="336"/>
			<point x="71" y="320.667"/>
			<point x="75" y="314.667" type="curve"/>
			<point x="105" y="315.667"/>
			<point x="142.333" y="315.667"/>
			<point x="177.333" y="315.667" type="curve" smooth="yes"/>
			<point x="212.333" y="315.667"/>
			<point x="236.333" y="315.667"/>
			<point x="266.333" y="314.667" type="curve"/>
			<point x="270.333" y="321.667"/>
			<point x="270.333" y="336"/>
			<point x="266.333" y="344" type="curve"/>
			<point x="234.333" y="346"/>
			<point x="214" y="348.333"/>
			<point x="212" y="390.667" type="curve"/>
			<point x="211.333" y="393.333"/>
			<point x="211.333" y="396.667"/>
			<point x="211.333" y="400" type="curve" smooth="yes"/>
			<point x="211.333" y="647.667" type="line"/>
			<point x="207" y="652"/>
			<point x="198" y="651"/>
			<point x="191.667" y="648.333" type="curve"/>
			<point x="190.333" y="648.333"/>
			<point x="189.333" y="648"/>
			<point x="188.667" y="647.667" type="curve"/>
			<point x="144.333" y="622"/>
			<point x="112" y="608.667"/>
			<point x="65" y="591.667" type="curve"/>
			<point x="65" y="579.667"/>
			<point x="67" y="568.667"/>
			<point x="75" y="562.667" type="curve"/>
			<point x="100" y="571.667"/>
			<point x="119" y="577.667"/>
		</contour>
		<contour>
			<point x="562" y="601" type="line"/>
			<point x="103.333" y="-54" type="line"/>
			<point x="145" y="-62" type="line"/>
			<point x="603.333" y="593" type="line"/>
		</contour>
		<contour>
			<point x="526.333" y="174.667" type="curve"/>
			<point x="526.333" y="39" type="line"/>
			<point x="429.333" y="39" type="line"/>
			<point x="444.667" y="65"/>
			<point x="489.667" y="128"/>
		</contour>
	</outline>
</glyph>
<glyph name="Aring" format="2">
	<unicode hex="00C5"/>
	<advance width="710"/>
	<outline>
		<contour>
			<point x="158.333" y="79" type="curve" smooth="yes"/>
			<point x="212.667" y="222" type="line" smooth="yes"/>
			<point x="217.667" y="235"/>
			<point x="223.667" y="239"/>
			<point x="247.667" y="239" type="curve" smooth="yes"/>
			<point x="451.667" y="239" type="line"/>
			<point x="509" y="72" type="line" smooth="yes"/>
			<point x="519.667" y="41.3333"/>
			<point x="493.333" y="35.6667"/>
			<point x="456.667" y="33" type="curve"/>
			<point x="450" y="32.3333"/>
			<point x="442.333" y="32"/>
			<point x="435" y="31.3333" type="curve"/>
			<point x="429" y="25.3333"/>
			<point x="429" y="4"/>
			<point x="435" y="-2" type="curve"/>
			<point x="472" y="-1"/>
			<point x="540.333" y="0"/>
			<point x="579.333" y="0" type="curve" smooth="yes"/>
			<point x="620.333" y="0"/>
			<point x="664.333" y="-1"/>
			<point x="700" y="-2" type="curve"/>
			<point x="706" y="4"/>
			<point x="706" y="25.3333"/>
			<point x="700" y="31.3333" type="curve"/>
			<point x="661" y="35.3333"/>
			<point x="627.333" y="37"/>
			<point x="610" y="86" type="curve" smooth="yes"/>
			<point x="411" y="638.667" type="line"/>
			<point x="433.667" y="652.333"/>
			<point x="449.333" y="677.333"/>
			<point x="449.333" y="704" type="curve" smooth="yes"/>
			<point x="449.333" y="749"/>
			<point x="411" y="785.333"/>
			<point x="367.667" y="787.667" type="curve" smooth="yes"/>
			<point x="361.667" y="788"/>
			<point x="356.667" y="787.667"/>
			<point x="350.667" y="787" type="curve" smooth="yes"/>
			<point x="309" y="781.667"/>
			<point x="275" y="746"/>
			<point x="275" y="704" type="curve" smooth="yes"/>
			<point x="275" y="669.333"/>
			<point x="298.667" y="639.333"/>
			<point x="329.333" y="627" type="curve"/>
			<point x="107" y="102" type="line" smooth="yes"/>
			<point x="81" y="40"/>
			<point x="51" y="34.3333"/>
			<point x="7" y="31.3333" type="curve"/>
			<point x="1" y="25.3333"/>
			<point x="1" y="4"/>
			<point x="7" y="-2" type="curve"/>
			<point x="36.6667" y="-1"/>
			<point x="64.6667" y="0"/>
			<point x="97.6667" y="0" type="curve" smooth="yes"/>
			<point x="138.667" y="0"/>
			<point x="190.333" y="-1"/>
			<point x="227.333" y="-2" type="curve"/>
			<point x="233.333" y="4"/>
			<point x="233.333" y="25.3333"/>
			<point x="227.333" y="31.3333" type="curve"/>
			<point x="189.333" y="34.3333"/>
			<point x="142.333" y="38"/>
		</contour>
		<contour>
			<point x="362" y="755.667" type="curve" smooth="yes"/>
			<point x="391" y="755.667"/>
			<point x="410" y="734.333"/>
			<point x="410" y="704" type="curve" smooth="yes"/>
			<point x="410" y="676.667"/>
			<point x="392.333" y="652.333"/>
			<point x="362" y="652.333" type="curve" smooth="yes"/>
			<point x="331.667" y="652.333"/>
			<point x="314.333" y="676.667"/>
			<point x="314.333" y="704" type="curve" smooth="yes"/>
			<point x="314.333" y="733.333"/>
			<point x="332" y="755.667"/>
		</contour>
		<contour>
			<point x="266.333" y="283" type="line" smooth="yes"/>
			<point x="244.333" y="283"/>
			<point x="237.333" y="286"/>
			<point x="241.333" y="296" type="curve" smooth="yes"/>
			<point x="338.667" y="543.333" type="line"/>
			<point x="345" y="543.333" type="line"/>
			<point x="435" y="283" type="line"/>
		</contour>
	</outline>
	<anchor name="m.uni0302" x="364" y="894"/>
</glyph>
<glyph name="multiply" format="2">
	<unicode hex="00D7"/>
	<advance width="542"/>
	<outline>
		<contour>
			<point x="307.333" y="245.333" type="line"/>
			<point x="429.333" y="367" type="line"/>
			<point x="391.333" y="404.333" type="line"/>
			<point x="271.333" y="282.333" type="line"/>
			<point x="150.333" y="404.333" type="line"/>
			<point x="111.667" y="365.333" type="line"/>
			<point x="233" y="243.667" type="line"/>
			<point x="111.667" y="123.667" type="line"/>
			<point x="149.333" y="86.3333" type="line"/>
			<point x="270" y="207" type="line"/>
			<point x="391.667" y="86.3333" type="line"/>
			<point x="429.333" y="123.667" type="line"/>
		</contour>
	</outline>
</glyph>
<glyph name="Thorn" format="2">
	<unicode hex="00DE"/>
	<advance width="557"/>
	<outline>
		<contour>
			<point x="160" y="255.667" type="curve"/>
			<point x="160" y="146.667" type="line"/>
			<point x="170" y="115.667"/>
			<point x="178" y="111.667"/>
			<point x="183" y="110.667" type="curve"/>
			<point x="298.333" y="108.667"/>
			<point x="335.667" y="180"/>
			<point x="339" y="228" type="curve"/>
			<point x="352.333" y="275.667"/>
			<point x="353.667" y="348.667"/>
			<point x="243.667" y="348.667" type="curve"/>
			<point x="244.333" y="348.667"/>
			<point x="245" y="347"/>
			<point x="234.333" y="345.333" type="curve"/>
			<point x="237.667" y="347.725"/>
			<point x="237.667" y="356.941"/>
			<point x="234.333" y="359.333" type="curve"/>
			<point x="216" y="415.667"/>
			<point x="218" y="420.333"/>
			<point x="264.667" y="450" type="curve"/>
			<point x="268.667" y="455.355"/>
			<point x="268.667" y="477.978"/>
			<point name=".hr01" x="264.667" y="483.333" type="curve"/>
			<point x="237.667" y="481"/>
			<point x="229" y="480"/>
			<point x="206.333" y="480" type="curve"/>
			<point x="232" y="480"/>
			<point x="234.667" y="520"/>
			<point x="201.333" y="545.667" type="curve"/>
			<point x="197.333" y="565.333"/>
			<point x="182.333" y="587.667"/>
			<point x="124.667" y="583.667" type="curve"/>
			<point x="165.667" y="581.667"/>
			<point x="162.333" y="578.333"/>
			<point x="150" y="522.333" type="curve"/>
			<point x="150" y="255.667" type="line" smooth="yes"/>
			<point x="150" y="228"/>
			<point x="148" y="226"/>
			<point x="119.667" y="225" type="curve"/>
			<point x="119" y="223"/>
			<point x="119" y="216.333"/>
			<point x="119.667" y="214.333" type="curve"/>
			<point x="139" y="214.667"/>
			<point x="135" y="215"/>
			<point x="155.667" y="215" type="curve" smooth="yes"/>
			<point x="175.667" y="215"/>
			<point x="170.333" y="214.667"/>
			<point x="190.333" y="214.333" type="curve"/>
			<point x="191" y="216.333"/>
			<point x="191" y="223"/>
			<point x="190.333" y="225" type="curve"/>
			<point x="162" y="226"/>
			<point x="160" y="228"/>
		</contour>
		<contour>
			<point x="206.667" y="384" type="curve"/>
			<point x="220.667" y="399.501"/>
			<point x="253.333" y="475.995"/>
			<point x="266" y="486" type="curve"/>
			<point x="313" y="486"/>
			<point x="374" y="469.333"/>
			<point x="380" y="389.333" type="curve"/>
			<point x="400" y="303.333"/>
			<point x="361" y="265.667"/>
			<point x="313" y="236.333" type="curve"/>
			<point x="287.667" y="200"/>
			<point x="259.333" y="187"/>
			<point x="229.333" y="189" type="curve"/>
			<point x="218" y="237.429"/>
			<point x="210.333" y="367.934"/>
		</contour>
	</outline>
	<anchor name="m.uni0302" x="281" y="850"/>
</glyph>
<glyph name="germandbls" format="2">
	<unicode hex="00DF"/>
	<advance width="566"/>
	<outline>
		<contour>
			<point x="94.6667" y="123.333" type="line" smooth="yes"/>
			<point x="94.6667" y="40.6667"/>
			<point x="81.3333" y="34.3333"/>
			<point x="23" y="31.3333" type="curve"/>
			<point x="17" y="25.3333"/>
			<point x="17" y="4"/>
			<point name=".hr01" x="23" y="-2" type="curve"/>
			<point x="55.3333" y="-1"/>
			<point x="94.6667" y="0"/>
			<point x="137" y="0" type="curve" smooth="yes"/>
			<point x="143" y="0"/>
			<point x="148.333" y="0"/>
			<point x="154.333" y="0" type="curve" smooth="yes"/>
			<point x="184.333" y="0"/>
			<point x="211.333" y="-0.666667"/>
			<point x="231.667" y="-2" type="curve"/>
			<point x="237.667" y="4"/>
			<point name=".hr02" x="237.667" y="25.3333"/>
			<point x="231.667" y="31.3333" type="curve"/>
			<point x="204" y="36"/>
			<point x="190.667" y="40.6667"/>
			<point x="190.667" y="124" type="curve" smooth="yes"/>
			<point x="190.667" y="443.667" type="line" smooth="yes"/>
			<point x="190.667" y="551.667"/>
			<point x="206.667" y="662"/>
			<point x="300" y="662" type="curve" smooth="yes"/>
			<point x="353" y="662"/>
			<point x="372" y="620"/>
			<point x="372" y="570.667" type="curve" smooth="yes"/>
			<point x="372" y="497.667"/>
			<point x="346.667" y="461"/>
			<point x="279.667" y="409" type="curve"/>
			<point x="279.667" y="392.667" type="line"/>
			<point x="363.667" y="328.667"/>
			<point name=".hr03" x="420.667" y="249"/>
			<point x="420.667" y="156" type="curve" smooth="yes"/>
			<point x="420.667" y="83.6667"/>
			<point x="397.667" y="31.3333"/>
			<point x="369" y="26.6667" type="curve"/>
			<point x="367.667" y="26"/>
			<point x="365.667" y="26"/>
			<point x="363.667" y="26" type="curve" smooth="yes"/>
			<point x="345.667" y="26"/>
			<point x="323.333" y="29"/>
			<point x="317.333" y="43" type="curve"/>
			<point x="316" y="47.6667"/>
			<point x="315.667" y="52.3333"/>
			<point x="316" y="58" type="curve"/>
			<point x="317.667" y="70.3333"/>
			<point x="325.667" y="79.6667"/>
			<point x="325.667" y="96" type="curve" smooth="yes"/>
			<point x="325.667" y="112.667"/>
			<point x="319" y="122"/>
			<point x="303.667" y="124" type="curve"/>
			<point x="300.333" y="127.333"/>
			<point x="295.333" y="129.333"/>
			<point x="290.667" y="129.333" type="curve" smooth="yes"/>
			<point x="270.667" y="129.333"/>
			<point x="255.333" y="106.667"/>
			<point x="255.333" y="90" type="curve" smooth="yes"/>
			<point x="255.333" y="43"/>
			<point x="280" y="-10"/>
			<point x="363.667" y="-10" type="curve" smooth="yes"/>
			<point x="455.667" y="-10"/>
			<point x="524.667" y="68"/>
			<point x="524.667" y="173" type="curve" smooth="yes"/>
			<point x="524.667" y="289"/>
			<point x="425" y="363.333"/>
			<point x="340" y="409" type="curve"/>
			<point x="340" y="411" type="line"/>
			<point x="373.667" y="433"/>
			<point x="405.333" y="453"/>
			<point x="428.667" y="478.333" type="curve" smooth="yes"/>
			<point x="456" y="507.667"/>
			<point name=".hr04" x="472.333" y="543"/>
			<point x="472.333" y="583.667" type="curve" smooth="yes"/>
			<point x="472.333" y="611.667"/>
			<point x="454.333" y="649.667"/>
			<point x="418" y="672" type="curve" smooth="yes"/>
			<point x="393.333" y="688"/>
			<point x="355.333" y="698"/>
			<point x="312.333" y="698" type="curve" smooth="yes"/>
			<point x="233.667" y="698"/>
			<point x="94.6667" y="643.333"/>
			<point x="94.6667" y="478.667" type="curve" smooth="yes"/>
			<point x="94.6667" y="447.667"/>
			<point x="85.6667" y="434"/>
			<point x="61.3333" y="432.667" type="curve"/>
			<point x="55.3333" y="432"/>
			<point x="49.6667" y="431.667"/>
			<point x="43.6667" y="431" type="curve"/>
			<point x="35" y="429.333"/>
			<point x="29.3333" y="419"/>
			<point name=".hr05" x="28" y="410.667" type="curve"/>
			<point x="28" y="405"/>
			<point x="28" y="400.333"/>
			<point x="29.3333" y="396.667" type="curve"/>
			<point name=".hr06" x="32" y="395.333"/>
			<point x="37" y="395.333"/>
			<point x="41.6667" y="395" type="curve"/>
			<point x="81.6667" y="393.333" type="line" smooth="yes"/>
			<point x="92.3333" y="392.667"/>
			<point x="94.6667" y="389.333"/>
			<point x="94.6667" y="380" type="curve" smooth="yes"/>
		</contour>
	</outline>
</glyph>
<glyph name="ae" format="2">
	<unicode hex="00E6"/>
	<advance width="696"/>
	<outline>
		<contour>
			<point x="38.3333" y="101" type="curve" smooth="yes"/>
			<point x="38.3333" y="13"/>
			<point x="107.667" y="-10"/>
			<point x="182" y="-10" type="curve" smooth="yes"/>
			<point x="226.667" y="-10"/>
			<point x="285" y="13.3333"/>
			<point x="333" y="67.6667" type="curve"/>
			<point x="365.333" y="10.6667"/>
			<point x="424" y="-10"/>
			<point x="496.333" y="-10" type="curve" smooth="yes"/>
			<point x="563.333" y="-10"/>
			<point x="621.333" y="27.6667"/>
			<point x="657.333" y="88" type="curve"/>
			<point x="655.333" y="95.6667"/>
			<point x="648.333" y="108.333"/>
			<point x="639" y="109" type="curve"/>
			<point x="605.333" y="71.6667"/>
			<point name=".hr01" x="560" y="49.6667"/>
			<point x="511.333" y="49.6667" type="curve" smooth="yes"/>
			<point x="441" y="49.6667"/>
			<point x="386.333" y="124"/>
			<point x="386" y="217.667" type="curve"/>
			<point x="521.667" y="218.333"/>
			<point x="596.333" y="224.333"/>
			<point x="651.333" y="243.333" type="curve"/>
			<point x="655" y="263.333"/>
			<point x="656" y="282"/>
			<point x="656" y="307.667" type="curve" smooth="yes"/>
			<point x="656" y="359"/>
			<point x="623.333" y="440.667"/>
			<point x="497.667" y="440.667" type="curve" smooth="yes"/>
			<point x="440.667" y="440.667"/>
			<point x="390" y="419.667"/>
			<point x="354.667" y="370.667" type="curve"/>
			<point x="321.333" y="433.333"/>
			<point x="247" y="440.667"/>
			<point x="213.333" y="440.667" type="curve" smooth="yes"/>
			<point x="134.667" y="440.667"/>
			<point x="51" y="396.333"/>
			<point x="51" y="337.667" type="curve" smooth="yes"/>
			<point x="51" y="315.667"/>
			<point x="62.6667" y="290.333"/>
			<point x="95" y="290.333" type="curve" smooth="yes"/>
			<point x="126.667" y="290.333"/>
			<point x="140" y="310.667"/>
			<point x="140" y="326" type="curve" smooth="yes"/>
			<point x="140" y="340"/>
			<point x="133.667" y="347.667"/>
			<point x="133.667" y="365.667" type="curve" smooth="yes"/>
			<point x="133.667" y="392.333"/>
			<point x="167.667" y="404.667"/>
			<point x="206" y="404.667" type="curve" smooth="yes"/>
			<point x="283.667" y="404.667"/>
			<point x="295.667" y="333.667"/>
			<point name=".hr02" x="295.667" y="249.333" type="curve"/>
			<point x="180.667" y="240.667"/>
			<point x="38.3333" y="211.333"/>
		</contour>
		<contour>
			<point x="124.333" y="108.333" type="curve" smooth="yes"/>
			<point x="124.333" y="176.667"/>
			<point x="225.333" y="206.333"/>
			<point x="295.667" y="213" type="curve"/>
			<point x="295.333" y="164"/>
			<point x="295" y="123.667"/>
			<point x="290" y="106.333" type="curve"/>
			<point x="273.333" y="66"/>
			<point x="224.333" y="34.6667"/>
			<point x="195" y="34.6667" type="curve" smooth="yes"/>
			<point x="144.667" y="34.6667"/>
			<point x="124.333" y="69.6667"/>
		</contour>
		<contour>
			<point x="387.333" y="253.667" type="curve"/>
			<point x="395.667" y="336.667"/>
			<point name=".hr03" x="430.667" y="404.667"/>
			<point x="493.333" y="404.667" type="curve" smooth="yes"/>
			<point x="544" y="404.667"/>
			<point x="576.333" y="343.333"/>
			<point x="576.333" y="274.333" type="curve"/>
			<point x="545.667" y="258"/>
			<point x="477.333" y="255.333"/>
		</contour>
	</outline>
	<anchor name="m.uni0302" x="344" y="644.667"/>
	<anchor name="m.uni0316_2" x="327" y="-109"/>
	<anchor name="b.uni0321_4" x="604" y="30"/>
	<anchor name="t.uni0302" x="346.667" y="500"/>
</glyph>
<glyph name="divide" format="2">
	<unicode hex="00F7"/>
	<advance width="547"/>
	<outline>
		<contour>
			<point x="484.333" y="261.333" type="curve"/>
			<point x="477" y="266.667"/>
			<point x="467" y="272.667"/>
			<point x="453" y="272.667" type="curve" smooth="yes"/>
			<point x="81.3333" y="272.667" type="line"/>
			<point x="72.3333" y="266"/>
			<point x="62.3333" y="246.667"/>
			<point x="61.3333" y="230" type="curve"/>
			<point x="68.6667" y="224.667"/>
			<point x="80" y="219.333"/>
			<point x="93.6667" y="219.333" type="curve" smooth="yes"/>
			<point x="463" y="219.333" type="line"/>
			<point x="472.667" y="226"/>
			<point x="483.333" y="248"/>
		</contour>
		<contour>
			<point x="219.667" y="107.667" type="curve" smooth="yes"/>
			<point x="219.667" y="81"/>
			<point x="242" y="59.3333"/>
			<point x="269" y="59.3333" type="curve" smooth="yes"/>
			<point x="297" y="59.3333"/>
			<point x="320" y="81.6667"/>
			<point x="320" y="108" type="curve" smooth="yes"/>
			<point x="320" y="135"/>
			<point x="297.667" y="156.667"/>
			<point x="269.667" y="156.667" type="curve" smooth="yes"/>
			<point x="242.667" y="156.667"/>
			<point x="219.667" y="134.333"/>
		</contour>
		<contour>
			<point x="219.667" y="386.333" type="curve" smooth="yes"/>
			<point x="219.667" y="359.667"/>
			<point x="242" y="338"/>
			<point x="269" y="338" type="curve" smooth="yes"/>
			<point x="297" y="338"/>
			<point x="320" y="360.333"/>
			<point x="320" y="386.667" type="curve" smooth="yes"/>
			<point x="320" y="413.667"/>
			<point x="297.667" y="435.333"/>
			<point x="269.667" y="435.333" type="curve" smooth="yes"/>
			<point x="242.667" y="435.333"/>
			<point x="219.667" y="413"/>
		</contour>
	</outline>
</glyph>
<glyph name="aogonek" format="2">
	<unicode hex="0105"/>
	<advance width="473"/>
	<outline>
		<contour>
			<point x="469" y="-149" type="curve"/>
			<point x="466.333" y="-139.667"/>
			<point x="461" y="-133"/>
			<point x="451.333" y="-130.667" type="curve"/>
			<point x="431.667" y="-150.333"/>
			<point x="413" y="-162"/>
			<point x="388" y="-162" type="curve" smooth="yes"/>
			<point x="361" y="-162"/>
			<point x="345.667" y="-148.333"/>
			<point x="343.667" y="-125.667" type="curve"/>
			<point x="343" y="-123"/>
			<point x="343" y="-121"/>
			<point x="343" y="-118.333" type="curve" smooth="yes"/>
			<point x="343" y="-71.6667"/>
			<point x="370.667" y="-40.6667"/>
			<point x="418" y="0" type="curve"/>
			<point x="417.667" y="0.333333" type="line"/>
			<point x="438.667" y="8"/>
			<point x="457" y="20"/>
			<point x="471.333" y="33.3333" type="curve"/>
			<point x="469.333" y="45.3333"/>
			<point x="465.333" y="54"/>
			<point x="454" y="60.6667" type="curve"/>
			<point x="445" y="53.3333"/>
			<point x="430.333" y="45.3333"/>
			<point x="415.333" y="45.3333" type="curve" smooth="yes"/>
			<point x="388.667" y="45.3333"/>
			<point name=".hr01" x="386" y="77.3333"/>
			<point x="386" y="124.333" type="curve"/>
			<point x="386.667" y="270.333" type="line"/>
			<point x="386.667" y="413"/>
			<point x="305" y="440.667"/>
			<point x="229" y="440.667" type="curve" smooth="yes"/>
			<point x="152.667" y="440.667"/>
			<point x="63.3333" y="394.667"/>
			<point x="58" y="336.667" type="curve"/>
			<point x="57.3333" y="333.333"/>
			<point x="57.3333" y="330"/>
			<point x="57.6667" y="326.667" type="curve"/>
			<point x="58.3333" y="304.667"/>
			<point x="69.6667" y="292"/>
			<point x="92.6667" y="290.333" type="curve" smooth="yes"/>
			<point x="97.3333" y="290"/>
			<point x="101.667" y="290.667"/>
			<point x="107" y="291.333" type="curve" smooth="yes"/>
			<point x="133" y="294.667"/>
			<point x="149.667" y="312.667"/>
			<point x="149.667" y="328" type="curve" smooth="yes"/>
			<point x="149.667" y="334.333"/>
			<point x="148.667" y="341"/>
			<point x="147" y="345.667" type="curve"/>
			<point x="146" y="350"/>
			<point x="144.667" y="356"/>
			<point x="144.667" y="365.667" type="curve" smooth="yes"/>
			<point x="144.667" y="368.667"/>
			<point x="145.333" y="372.667"/>
			<point x="145.667" y="375.667" type="curve"/>
			<point x="150" y="390.667"/>
			<point x="168" y="401.333"/>
			<point x="195.667" y="403.333" type="curve" smooth="yes"/>
			<point x="203" y="404"/>
			<point x="210.667" y="404.667"/>
			<point x="217.667" y="404.333" type="curve" smooth="yes"/>
			<point x="251" y="402.667"/>
			<point x="290.667" y="383"/>
			<point x="292" y="277.667" type="curve"/>
			<point x="292" y="270.333"/>
			<point x="290" y="265"/>
			<point x="288" y="261.667" type="curve"/>
			<point x="208.333" y="240.667" type="line" smooth="yes"/>
			<point x="112.667" y="214.333"/>
			<point x="43.3333" y="172"/>
			<point name=".hr02" x="39.3333" y="103.667" type="curve"/>
			<point x="38.6667" y="100"/>
			<point x="38.6667" y="96"/>
			<point x="39" y="92.6667" type="curve"/>
			<point x="40.3333" y="21"/>
			<point x="86" y="-8"/>
			<point x="155.667" y="-10" type="curve"/>
			<point x="159.333" y="-10"/>
			<point x="163.667" y="-10"/>
			<point x="167.333" y="-9.66667" type="curve"/>
			<point x="199.667" y="-8.33333"/>
			<point x="234.333" y="5"/>
			<point x="273.667" y="35" type="curve"/>
			<point x="279.667" y="39"/>
			<point x="284.667" y="44"/>
			<point x="290.333" y="48" type="curve"/>
			<point x="293.667" y="48.3333" type="line"/>
			<point x="298.667" y="18.6667"/>
			<point x="313.667" y="-2"/>
			<point x="346.333" y="-7.33333" type="curve"/>
			<point x="349.667" y="-8"/>
			<point x="353" y="-8.66667"/>
			<point x="357" y="-9.33333" type="curve"/>
			<point x="306.667" y="-46.6667"/>
			<point x="267.667" y="-88.6667"/>
			<point x="267.667" y="-132.667" type="curve" smooth="yes"/>
			<point x="267.667" y="-183.667"/>
			<point x="302.333" y="-208"/>
			<point x="348.333" y="-210" type="curve"/>
			<point x="352.333" y="-210.667"/>
			<point x="356" y="-210.667"/>
			<point x="360.667" y="-210.667" type="curve"/>
			<point x="400.333" y="-209.333"/>
			<point x="441.667" y="-190"/>
		</contour>
		<contour>
			<point x="292" y="228" type="line"/>
			<point name=".hr03" x="292" y="105.667" type="line"/>
			<point x="292" y="96" type="line"/>
			<point x="290.667" y="86.3333"/>
			<point x="285.333" y="80.3333"/>
			<point x="278.667" y="75.3333" type="curve" smooth="yes"/>
			<point x="254.333" y="56.3333"/>
			<point x="225" y="37.3333"/>
			<point x="201.333" y="37.3333" type="curve" smooth="yes"/>
			<point x="153.667" y="37.3333"/>
			<point x="134" y="73.6667"/>
			<point x="134" y="104.667" type="curve" smooth="yes"/>
			<point x="134" y="147"/>
			<point x="149" y="188"/>
			<point x="222" y="208.333" type="curve" smooth="yes"/>
		</contour>
	</outline>
	<anchor name="m.uni0302" x="209" y="645"/>
	<anchor name="m.uni0316_2" x="146" y="-108"/>
</glyph>
<glyph name="Eogonek" format="2">
	<unicode hex="0118"/>
	<advance width="574"/>
	<outline>
		<contour>
			<point x="497.667" y="-149" type="curve"/>
			<point x="493.333" y="-141.667"/>
			<point x="487.667" y="-136.667"/>
			<point x="480" y="-134" type="curve"/>
			<point x="461.667" y="-152.333"/>
			<point x="445.333" y="-164.667"/>
			<point x="421.333" y="-165" type="curve"/>
			<point x="415" y="-165.333"/>
			<point x="408.667" y="-164.667"/>
			<point x="404" y="-164" type="curve"/>
			<point x="383" y="-159.333"/>
			<point x="371.667" y="-144.667"/>
			<point x="371.667" y="-120" type="curve" smooth="yes"/>
			<point x="371.667" y="-72"/>
			<point x="411.333" y="-12.3333"/>
			<point x="468" y="-2.33333" type="curve" smooth="yes"/>
			<point x="471.333" y="-1.66667"/>
			<point x="475.333" y="-1.66667"/>
			<point x="479.333" y="-1.66667" type="curve" smooth="yes"/>
			<point x="491.667" y="-1.66667"/>
			<point x="502.333" y="-2"/>
			<point x="502.333" y="-2" type="curve"/>
			<point x="508.333" y="-2" type="line"/>
			<point x="522.333" y="48"/>
			<point x="534" y="114"/>
			<point x="542" y="165" type="curve"/>
			<point x="532" y="171"/>
			<point x="516.667" y="173"/>
			<point x="503.667" y="170" type="curve"/>
			<point x="483.667" y="98"/>
			<point x="445.333" y="40"/>
			<point x="369.333" y="40" type="curve" smooth="yes"/>
			<point x="268.333" y="40" type="line"/>
			<point x="258.333" y="40" type="line" smooth="yes"/>
			<point x="227" y="40"/>
			<point x="210.667" y="55"/>
			<point x="208" y="86" type="curve"/>
			<point x="207.333" y="91"/>
			<point x="207.333" y="96.6667"/>
			<point x="207.333" y="103" type="curve" smooth="yes"/>
			<point x="207.333" y="321.667" type="line"/>
			<point x="286" y="321.667" type="line" smooth="yes"/>
			<point x="295" y="321.667"/>
			<point x="304" y="321.667"/>
			<point x="311.667" y="321" type="curve"/>
			<point x="375.333" y="318.333"/>
			<point x="383" y="296.667"/>
			<point x="386" y="255" type="curve"/>
			<point x="392" y="249"/>
			<point x="416.333" y="249"/>
			<point x="422.333" y="255" type="curve"/>
			<point x="421.333" y="284"/>
			<point x="420.333" y="309"/>
			<point x="420.333" y="343" type="curve" smooth="yes"/>
			<point x="420.333" y="373"/>
			<point x="421.333" y="403"/>
			<point x="422.333" y="429" type="curve"/>
			<point x="416.333" y="435"/>
			<point x="392" y="435"/>
			<point x="386" y="429" type="curve"/>
			<point x="383" y="378"/>
			<point x="374.667" y="364.333"/>
			<point x="311.667" y="363" type="curve"/>
			<point x="305.667" y="362.333"/>
			<point x="298" y="362.333"/>
			<point x="290.667" y="362.333" type="curve" smooth="yes"/>
			<point x="207.333" y="362.333" type="line"/>
			<point x="207.333" y="545.333" type="line" smooth="yes"/>
			<point x="207.333" y="582.667"/>
			<point x="221" y="604.333"/>
			<point x="265" y="604.333" type="curve" smooth="yes"/>
			<point x="338.667" y="604.333" type="line"/>
			<point x="343.333" y="604.333" type="line" smooth="yes"/>
			<point x="418.333" y="604.333"/>
			<point x="436" y="565"/>
			<point x="458" y="496" type="curve"/>
			<point x="470" y="494"/>
			<point x="484.333" y="496"/>
			<point x="494.333" y="501" type="curve"/>
			<point x="489.333" y="542"/>
			<point x="477.667" y="638"/>
			<point x="475.667" y="646" type="curve"/>
			<point x="475.667" y="648"/>
			<point x="474.667" y="649"/>
			<point x="471.667" y="649" type="curve"/>
			<point x="460.667" y="647.333"/>
			<point x="453.333" y="646.333"/>
			<point x="440.667" y="645.667" type="curve"/>
			<point x="432.667" y="645"/>
			<point x="423.667" y="645"/>
			<point x="412.333" y="645" type="curve" smooth="yes"/>
			<point x="165" y="645" type="line"/>
			<point x="150.667" y="645" type="line" smooth="yes"/>
			<point x="121.333" y="645"/>
			<point x="57" y="646"/>
			<point x="17" y="647" type="curve"/>
			<point x="11" y="641"/>
			<point x="11" y="619.667"/>
			<point x="17" y="613.667" type="curve"/>
			<point x="87" y="610.667"/>
			<point x="104" y="605.667"/>
			<point x="104" y="522.667" type="curve" smooth="yes"/>
			<point x="104" y="132" type="line" smooth="yes"/>
			<point x="104" y="126"/>
			<point x="104" y="120"/>
			<point x="103.667" y="114.333" type="curve"/>
			<point x="102.667" y="38.6667"/>
			<point x="84.6667" y="34.3333"/>
			<point x="17" y="31.3333" type="curve"/>
			<point x="11" y="25.3333"/>
			<point x="11" y="4"/>
			<point x="17" y="-2" type="curve"/>
			<point x="54.6667" y="-1"/>
			<point name=".hr01" x="120" y="0"/>
			<point x="151.667" y="0" type="curve" smooth="yes"/>
			<point x="165.333" y="0" type="line"/>
			<point x="369.667" y="0" type="line"/>
			<point x="396.667" y="0" type="line"/>
			<point x="339.333" y="-28.3333"/>
			<point x="299.667" y="-86"/>
			<point x="299.667" y="-129.333" type="curve" smooth="yes"/>
			<point x="299.667" y="-158.667"/>
			<point x="310.333" y="-178.333"/>
			<point x="326" y="-191.333" type="curve" smooth="yes"/>
			<point x="337.333" y="-200.333"/>
			<point x="351" y="-206.667"/>
			<point x="367.333" y="-208.667" type="curve" smooth="yes"/>
			<point x="376.667" y="-210"/>
			<point x="387.333" y="-210.333"/>
			<point x="398" y="-209.333" type="curve"/>
			<point x="435.333" y="-207"/>
			<point x="472" y="-188"/>
		</contour>
	</outline>
	<anchor name="m.uni0302" x="273" y="850"/>
	<anchor name="m.uni0316_2" x="279" y="-110"/>
	<anchor name="m.uni031A_3" x="519" y="732"/>
</glyph>
<glyph name="eogonek" format="2">
	<unicode hex="0119"/>
	<advance width="461"/>
	<outline>
		<contour>
			<point x="401" y="105" type="curve"/>
			<point x="362.667" y="65.6667"/>
			<point x="325.333" y="51.3333"/>
			<point x="274" y="51.3333" type="curve" smooth="yes"/>
			<point x="233.333" y="51.3333"/>
			<point x="192.667" y="71.6667"/>
			<point x="165.333" y="118.667" type="curve" smooth="yes"/>
			<point x="150.667" y="143.333"/>
			<point x="142" y="174.667"/>
			<point x="139.333" y="213.667" type="curve" smooth="yes"/>
			<point x="138.667" y="224"/>
			<point x="138.333" y="233.333"/>
			<point x="138.333" y="243.667" type="curve"/>
			<point x="385" y="242.333" type="line"/>
			<point x="391" y="242.333"/>
			<point x="396" y="242.667"/>
			<point x="400.667" y="243.333" type="curve" smooth="yes"/>
			<point x="411" y="244.667"/>
			<point x="417" y="250.667"/>
			<point x="417.667" y="260.333" type="curve"/>
			<point x="418" y="261.667"/>
			<point x="418" y="263"/>
			<point x="418" y="264" type="curve"/>
			<point x="418" y="348.333"/>
			<point x="387" y="439.333"/>
			<point x="245.333" y="439.333" type="curve" smooth="yes"/>
			<point x="152.333" y="439.333"/>
			<point x="37" y="353"/>
			<point x="37" y="200.667" type="curve" smooth="yes"/>
			<point x="37" y="145.667"/>
			<point x="52" y="91.3333"/>
			<point x="86" y="53" type="curve"/>
			<point x="89" y="49"/>
			<point x="92.3333" y="46"/>
			<point x="96.3333" y="42" type="curve" smooth="yes"/>
			<point x="129.667" y="9.66667"/>
			<point x="173.667" y="-8.66667"/>
			<point x="237" y="-9.66667" type="curve"/>
			<point x="244.333" y="-10"/>
			<point x="251.333" y="-10"/>
			<point x="258" y="-9.33333" type="curve"/>
			<point x="210" y="-46"/>
			<point x="174.667" y="-86"/>
			<point x="174.667" y="-128" type="curve" smooth="yes"/>
			<point x="174.667" y="-178.333"/>
			<point x="208.667" y="-202.667"/>
			<point x="253.333" y="-205.333" type="curve"/>
			<point x="258" y="-206"/>
			<point x="263" y="-206"/>
			<point x="268.333" y="-205.667" type="curve"/>
			<point x="308" y="-204.667"/>
			<point x="349" y="-185"/>
			<point x="376" y="-144.333" type="curve"/>
			<point x="373.333" y="-135"/>
			<point x="368" y="-128.333"/>
			<point x="358.333" y="-126" type="curve"/>
			<point x="338.667" y="-145.667"/>
			<point x="320" y="-157.333"/>
			<point x="295" y="-157.333" type="curve" smooth="yes"/>
			<point x="269.333" y="-157.333"/>
			<point x="254" y="-145"/>
			<point x="251.333" y="-123.667" type="curve"/>
			<point x="250.667" y="-120.333"/>
			<point x="250" y="-117"/>
			<point x="250" y="-113.667" type="curve" smooth="yes"/>
			<point x="250" y="-71"/>
			<point x="273" y="-42"/>
			<point x="319" y="-1" type="curve"/>
			<point x="325.333" y="3.33333"/>
			<point x="331.333" y="7.33333"/>
			<point x="338" y="12.3333" type="curve"/>
			<point x="370" y="28"/>
			<point x="397.333" y="52.6667"/>
			<point x="420" y="84" type="curve"/>
			<point x="418" y="95"/>
			<point x="412.333" y="104.333"/>
		</contour>
		<contour>
			<point x="141.667" y="279.667" type="line"/>
			<point x="147.333" y="323.333"/>
			<point x="161" y="356"/>
			<point x="178.333" y="374" type="curve"/>
			<point x="198.333" y="396"/>
			<point x="224" y="402.667"/>
			<point x="237.667" y="403.333" type="curve"/>
			<point x="239.667" y="403.333"/>
			<point x="242" y="403.333"/>
			<point x="244" y="403" type="curve"/>
			<point x="278" y="401.667"/>
			<point x="318.333" y="378.333"/>
			<point x="318.333" y="298" type="curve" smooth="yes"/>
			<point x="318.333" y="290"/>
			<point x="315.667" y="282.333"/>
			<point x="307.667" y="281.667" type="curve"/>
		</contour>
	</outline>
	<anchor name="m.uni0302" x="231" y="645"/>
	<anchor name="m.uni0316_2" x="70" y="-108"/>
</glyph>
<glyph name="hcircumflex" format="2">
	<unicode hex="0125"/>
	<advance width="565"/>
	<outline>
		<contour>
			<point x="480" y="124" type="curve" smooth="yes"/>
			<point x="480" y="270" type="line" smooth="yes"/>
			<point x="480" y="276"/>
			<point x="480" y="281.667"/>
			<point x="480" y="287.333" type="curve"/>
			<point x="479.333" y="339"/>
			<point x="471" y="380"/>
			<point x="449" y="406.667" type="curve" smooth="yes"/>
			<point x="431.333" y="428"/>
			<point x="402" y="439.667"/>
			<point x="368" y="440.333" type="curve"/>
			<point x="366" y="440.667"/>
			<point x="364.333" y="440.667"/>
			<point x="362.333" y="440.667" type="curve" smooth="yes"/>
			<point x="318.333" y="440.667"/>
			<point x="258" y="421.667"/>
			<point x="199.333" y="366" type="curve"/>
			<point x="199.333" y="365.333"/>
			<point x="198.667" y="365.333"/>
			<point x="198" y="364.667" type="curve"/>
			<point x="195.333" y="362"/>
			<point x="192.333" y="359.667"/>
			<point x="189.333" y="358" type="curve"/>
			<point x="188" y="359.667"/>
			<point x="187.333" y="362.333"/>
			<point x="187.333" y="368" type="curve"/>
			<point x="188" y="583" type="line"/>
			<point x="188" y="648"/>
			<point x="191.667" y="687"/>
			<point x="191.667" y="687" type="curve"/>
			<point x="191.667" y="694.667"/>
			<point x="186.667" y="698"/>
			<point x="177.667" y="698" type="curve"/>
			<point x="148.667" y="687.333"/>
			<point x="72" y="674.333"/>
			<point x="21.6667" y="671.333" type="curve"/>
			<point x="19.3333" y="662"/>
			<point x="21" y="647.667"/>
			<point x="26.6667" y="640.667" type="curve"/>
			<point x="31.3333" y="640.333"/>
			<point x="35.6667" y="640.333"/>
			<point x="39.6667" y="640" type="curve" smooth="yes"/>
			<point x="83.3333" y="636.667"/>
			<point x="92" y="633.667"/>
			<point x="92" y="561" type="curve" smooth="yes"/>
			<point x="92" y="123.667" type="line" smooth="yes"/>
			<point x="92" y="40.6667"/>
			<point x="78.6667" y="35"/>
			<point x="19.6667" y="31.3333" type="curve"/>
			<point x="13.6667" y="25.3333"/>
			<point x="13.6667" y="4"/>
			<point x="19.6667" y="-2" type="curve"/>
			<point x="54" y="-1"/>
			<point x="92" y="0"/>
			<point x="134.333" y="0" type="curve" smooth="yes"/>
			<point x="140.333" y="0"/>
			<point x="147" y="0"/>
			<point x="153" y="0" type="curve" smooth="yes"/>
			<point x="189" y="0"/>
			<point x="217.333" y="-1"/>
			<point x="247" y="-2" type="curve"/>
			<point x="253" y="4"/>
			<point x="253" y="25.3333"/>
			<point x="247" y="31.3333" type="curve"/>
			<point x="199" y="35"/>
			<point x="188" y="40.6667"/>
			<point x="188" y="123.667" type="curve" smooth="yes"/>
			<point x="188" y="285.667" type="line" smooth="yes"/>
			<point x="188" y="304.667"/>
			<point x="194" y="318"/>
			<point x="199.333" y="329.333" type="curve"/>
			<point x="233.333" y="357.333"/>
			<point x="269" y="374"/>
			<point x="297" y="379.333" type="curve"/>
			<point x="307" y="380.667"/>
			<point x="316.333" y="381"/>
			<point x="325.333" y="380" type="curve" smooth="yes"/>
			<point x="344.333" y="378.333"/>
			<point x="363.333" y="366"/>
			<point x="374" y="344.333" type="curve" smooth="yes"/>
			<point x="379.333" y="333"/>
			<point x="382" y="319"/>
			<point x="383.333" y="303.667" type="curve" smooth="yes"/>
			<point x="384" y="293.333"/>
			<point x="384" y="281.667"/>
			<point x="384" y="270" type="curve" smooth="yes"/>
			<point x="384" y="135.333" type="line"/>
			<point x="384" y="124" type="line" smooth="yes"/>
			<point x="384" y="41.3333"/>
			<point x="372" y="35.6667"/>
			<point x="323.667" y="31.3333" type="curve"/>
			<point x="318.333" y="25.3333"/>
			<point x="318.333" y="4"/>
			<point x="323.667" y="-2" type="curve"/>
			<point x="353.667" y="-1"/>
			<point x="383" y="0"/>
			<point x="421" y="0" type="curve" smooth="yes"/>
			<point x="427" y="0"/>
			<point x="432.333" y="0"/>
			<point x="438.333" y="0" type="curve" smooth="yes"/>
			<point x="480.667" y="0"/>
			<point x="515.667" y="-1"/>
			<point x="550.333" y="-2" type="curve"/>
			<point x="555.667" y="4"/>
			<point x="555.667" y="25.3333"/>
			<point x="550.333" y="31.3333" type="curve"/>
			<point x="492.667" y="35.6667"/>
			<point x="480" y="41.3333"/>
		</contour>
		<contour>
			<point x="360.333" y="675.333" type="curve"/>
			<point x="348.667" y="677.333"/>
			<point x="336" y="676.667"/>
			<point x="324.333" y="675.333" type="curve"/>
			<point x="296.333" y="627.333"/>
			<point x="255.667" y="574.333"/>
			<point x="222.333" y="532.667" type="curve"/>
			<point x="228.333" y="524.667"/>
			<point x="236.667" y="517.667"/>
			<point x="244.667" y="514.333" type="curve"/>
			<point x="282" y="538.333"/>
			<point x="309.333" y="563.667"/>
			<point x="341.333" y="598.667" type="curve"/>
			<point x="371" y="565"/>
			<point x="400.667" y="539.667"/>
			<point x="437.667" y="514.333" type="curve"/>
			<point x="445.667" y="517.667"/>
			<point x="455.333" y="526"/>
			<point x="460.667" y="532.667" type="curve"/>
			<point x="427" y="574.333"/>
			<point x="387.667" y="626.333"/>
		</contour>
	</outline>
</glyph>
<glyph name="Hbar" format="2">
	<unicode hex="0126"/>
	<advance width="759"/>
	<outline>
		<contour>
			<point x="212.667" y="543" type="curve"/>
			<point x="215.667" y="607"/>
			<point x="238.333" y="610.667"/>
			<point x="297.667" y="613.667" type="curve"/>
			<point x="305" y="619.667"/>
			<point x="305" y="641"/>
			<point x="297.667" y="647" type="curve"/>
			<point x="261.667" y="646"/>
			<point x="213.667" y="645"/>
			<point x="171.667" y="645" type="curve" smooth="yes"/>
			<point x="156" y="645" type="line" smooth="yes"/>
			<point x="109" y="645"/>
			<point x="60.3333" y="646"/>
			<point x="23" y="647" type="curve"/>
			<point x="15.6667" y="641"/>
			<point x="15.6667" y="619.667"/>
			<point x="23" y="613.667" type="curve"/>
			<point x="82.3333" y="610.667"/>
			<point x="104.667" y="607"/>
			<point x="108" y="543.333" type="curve"/>
			<point x="80.3333" y="543.667"/>
			<point x="54.6667" y="543.667"/>
			<point x="36.3333" y="544" type="curve"/>
			<point x="33.3333" y="504.667" type="line"/>
			<point x="52.6667" y="505"/>
			<point x="79" y="505.333"/>
			<point x="108.667" y="505.333" type="curve"/>
			<point x="108.667" y="122" type="line" smooth="yes"/>
			<point x="108.667" y="39"/>
			<point x="88" y="34.3333"/>
			<point x="23" y="31.3333" type="curve"/>
			<point x="15.6667" y="25.3333"/>
			<point x="15.6667" y="4"/>
			<point x="23" y="-2" type="curve"/>
			<point x="64.3333" y="-1"/>
			<point x="117.667" y="0"/>
			<point x="156.667" y="0" type="curve" smooth="yes"/>
			<point x="169" y="0" type="line" smooth="yes"/>
			<point x="205.667" y="0"/>
			<point x="258.333" y="-1"/>
			<point x="297.667" y="-2" type="curve"/>
			<point x="305" y="4"/>
			<point x="305" y="25.3333"/>
			<point x="297.667" y="31.3333" type="curve"/>
			<point x="232.667" y="34.3333"/>
			<point x="212" y="39"/>
			<point x="212" y="122" type="curve" smooth="yes"/>
			<point x="212" y="320.333" type="line"/>
			<point x="543.333" y="320.333" type="line"/>
			<point x="543.333" y="122" type="line" smooth="yes"/>
			<point x="543.333" y="39"/>
			<point x="522.667" y="34.3333"/>
			<point x="457.667" y="31.3333" type="curve"/>
			<point x="450.333" y="25.3333"/>
			<point x="450.333" y="4"/>
			<point x="457.667" y="-2" type="curve"/>
			<point x="497.667" y="-1"/>
			<point x="550.333" y="0"/>
			<point x="587" y="0" type="curve" smooth="yes"/>
			<point x="600" y="0" type="line" smooth="yes"/>
			<point x="638.333" y="0"/>
			<point x="691" y="-1"/>
			<point x="732.333" y="-2" type="curve"/>
			<point x="739.667" y="4"/>
			<point x="739.667" y="25.3333"/>
			<point x="732.333" y="31.3333" type="curve"/>
			<point x="667.333" y="34.3333"/>
			<point x="646.667" y="39"/>
			<point x="646.667" y="122" type="curve" smooth="yes"/>
			<point x="646.667" y="505" type="line"/>
			<point x="664.667" y="505"/>
			<point x="682.333" y="505"/>
			<point x="697.333" y="504.667" type="curve"/>
			<point x="700.333" y="544" type="line"/>
			<point x="685" y="543.667"/>
			<point x="667" y="543.667"/>
			<point x="647.333" y="543.667" type="curve"/>
			<point x="650.667" y="607"/>
			<point x="673.333" y="610.667"/>
			<point x="732.333" y="613.667" type="curve"/>
			<point x="739.667" y="619.667"/>
			<point x="739.667" y="641"/>
			<point x="732.333" y="647" type="curve"/>
			<point x="693" y="646"/>
			<point x="638.333" y="645"/>
			<point x="599.333" y="645" type="curve" smooth="yes"/>
			<point x="586.333" y="645" type="line" smooth="yes"/>
			<point x="549.667" y="645"/>
			<point x="497" y="646"/>
			<point x="457.667" y="647" type="curve"/>
			<point x="450.333" y="641"/>
			<point x="450.333" y="619.667"/>
			<point x="457.667" y="613.667" type="curve"/>
			<point x="517" y="610.667"/>
			<point x="539.667" y="607"/>
			<point x="542.667" y="543" type="curve"/>
			<point x="477" y="542.667"/>
			<point x="412.333" y="542.667"/>
			<point x="363.333" y="542.667" type="curve" smooth="yes"/>
			<point x="321.667" y="542.667"/>
			<point x="268.667" y="542.667"/>
		</contour>
		<contour>
			<point x="543.333" y="505.667" type="curve"/>
			<point x="543.333" y="364.333" type="line"/>
			<point x="212" y="364.333" type="line"/>
			<point x="212" y="506" type="line"/>
			<point x="347.667" y="506" type="line" smooth="yes"/>
			<point x="401.667" y="506"/>
			<point x="473" y="506"/>
		</contour>
	</outline>
</glyph>
<glyph name="hbar" format="2">
	<unicode hex="0127"/>
	<advance width="565"/>
	<outline>
		<contour>
			<point x="480" y="124" type="curve" smooth="yes"/>
			<point x="480" y="270" type="line" smooth="yes"/>
			<point x="480" y="276"/>
			<point x="480" y="281.667"/>
			<point x="480" y="287.333" type="curve"/>
			<point x="479.333" y="339"/>
			<point x="471" y="380"/>
			<point x="449" y="406.667" type="curve" smooth="yes"/>
			<point x="430.333" y="429"/>
			<point x="399" y="440.667"/>
			<point x="362.333" y="440.667" type="curve" smooth="yes"/>
			<point x="318.333" y="440.667"/>
			<point x="257.667" y="421.667"/>
			<point x="199" y="365.667" type="curve"/>
			<point x="199" y="365"/>
			<point x="198.333" y="365"/>
			<point x="197.667" y="364.333" type="curve"/>
			<point x="195.333" y="362"/>
			<point x="192.333" y="359.667"/>
			<point x="189.333" y="358" type="curve"/>
			<point x="188" y="359.667"/>
			<point x="187.333" y="362"/>
			<point x="187.333" y="367.667" type="curve"/>
			<point x="188" y="527.667" type="line"/>
			<point x="236.333" y="527.667"/>
			<point x="284.333" y="527.333"/>
			<point x="331.667" y="526.667" type="curve"/>
			<point x="334.667" y="569.333" type="line"/>
			<point x="286.667" y="568.667"/>
			<point x="237.333" y="568.333"/>
			<point x="188" y="568.333" type="curve"/>
			<point x="188" y="583" type="line" smooth="yes"/>
			<point x="188" y="648"/>
			<point x="191.667" y="687"/>
			<point x="191.667" y="687" type="curve"/>
			<point x="191.667" y="694.667"/>
			<point x="186.667" y="698"/>
			<point x="177.667" y="698" type="curve"/>
			<point x="148.667" y="687.333"/>
			<point x="72" y="674.333"/>
			<point x="21.6667" y="671.333" type="curve"/>
			<point x="19.3333" y="662"/>
			<point x="21" y="647.667"/>
			<point x="26.6667" y="640.667" type="curve"/>
			<point x="31.3333" y="640.333"/>
			<point x="35.6667" y="640.333"/>
			<point x="39.6667" y="640" type="curve" smooth="yes"/>
			<point x="82" y="636.667"/>
			<point x="91.3333" y="634"/>
			<point x="92" y="568.333" type="curve"/>
			<point x="69" y="568.333"/>
			<point x="47.3333" y="568.667"/>
			<point x="25.3333" y="569.333" type="curve"/>
			<point x="22.3333" y="526.667" type="line"/>
			<point x="45" y="527.333"/>
			<point x="68" y="527.667"/>
			<point x="92" y="527.667" type="curve"/>
			<point x="92" y="123.667" type="line" smooth="yes"/>
			<point x="92" y="40.6667"/>
			<point x="78.6667" y="35"/>
			<point x="19.6667" y="31.3333" type="curve"/>
			<point x="13.6667" y="25.3333"/>
			<point x="13.6667" y="4"/>
			<point x="19.6667" y="-2" type="curve"/>
			<point x="54" y="-1"/>
			<point x="92" y="0"/>
			<point x="134.333" y="0" type="curve" smooth="yes"/>
			<point x="139.667" y="0"/>
			<point x="145.667" y="0"/>
			<point x="151" y="0" type="curve" smooth="yes"/>
			<point x="187.667" y="0"/>
			<point x="216.667" y="-1"/>
			<point x="247" y="-2" type="curve"/>
			<point x="253" y="4"/>
			<point x="253" y="25.3333"/>
			<point x="247" y="31.3333" type="curve"/>
			<point x="199" y="35"/>
			<point x="188" y="40.6667"/>
			<point x="188" y="123.667" type="curve" smooth="yes"/>
			<point x="188" y="285.667" type="line" smooth="yes"/>
			<point x="188" y="304.667"/>
			<point x="194" y="318"/>
			<point x="199.333" y="329.333" type="curve"/>
			<point x="233.333" y="358"/>
			<point x="270.333" y="375.333"/>
			<point x="299" y="379.333" type="curve" smooth="yes"/>
			<point x="308.333" y="380.667"/>
			<point x="317" y="381"/>
			<point x="325.333" y="380" type="curve"/>
			<point x="344.333" y="378.333"/>
			<point x="363.333" y="366"/>
			<point x="374" y="344.333" type="curve" smooth="yes"/>
			<point x="379.333" y="333"/>
			<point x="382" y="319"/>
			<point x="383.333" y="303.667" type="curve" smooth="yes"/>
			<point x="384" y="293.667"/>
			<point x="384" y="282.333"/>
			<point x="384" y="271" type="curve" smooth="yes"/>
			<point x="384" y="124" type="line" smooth="yes"/>
			<point x="384" y="41.3333"/>
			<point x="372" y="35.6667"/>
			<point x="323.667" y="31.3333" type="curve"/>
			<point x="318.333" y="25.3333"/>
			<point x="318.333" y="4"/>
			<point x="323.667" y="-2" type="curve"/>
			<point x="353.667" y="-1"/>
			<point x="383" y="0"/>
			<point x="421" y="0" type="curve" smooth="yes"/>
			<point x="427" y="0"/>
			<point x="432.333" y="0"/>
			<point x="438.333" y="0" type="curve" smooth="yes"/>
			<point x="480.667" y="0"/>
			<point x="515.667" y="-1"/>
			<point x="550.333" y="-2" type="curve"/>
			<point x="555.667" y="4"/>
			<point x="555.667" y="25.3333"/>
			<point x="550.333" y="31.3333" type="curve"/>
			<point x="492.667" y="35.6667"/>
			<point x="480" y="41.3333"/>
		</contour>
	</outline>
</glyph>
<glyph name="Iogonek" format="2">
	<unicode hex="012E"/>
	<advance width="320"/>
	<outline>
		<contour>
			<point x="273" y="-149" type="curve"/>
			<point x="268.667" y="-141.667"/>
			<point x="263" y="-136.667"/>
			<point x="255.333" y="-134" type="curve"/>
			<point x="237" y="-152.333"/>
			<point x="220.667" y="-164.667"/>
			<point x="196.667" y="-165" type="curve"/>
			<point x="191" y="-165.333"/>
			<point x="185.333" y="-164.667"/>
			<point x="180.667" y="-164" type="curve" smooth="yes"/>
			<point x="162.333" y="-161.333"/>
			<point x="149.667" y="-149.333"/>
			<point x="147.667" y="-128.667" type="curve"/>
			<point x="147" y="-126"/>
			<point x="147" y="-122.667"/>
			<point x="147" y="-120" type="curve" smooth="yes"/>
			<point x="147" y="-73.6667"/>
			<point x="183" y="-18.3333"/>
			<point x="234.333" y="-4" type="curve"/>
			<point x="241" y="-2.66667"/>
			<point x="247.667" y="-1.33333"/>
			<point x="255" y="-1.33333" type="curve"/>
			<point x="255" y="-0.666667" type="line"/>
			<point x="270.333" y="-1.66667"/>
			<point x="285.333" y="-1.66667"/>
			<point x="297.667" y="-2" type="curve"/>
			<point x="305" y="4"/>
			<point x="305" y="25.3333"/>
			<point x="297.667" y="31.3333" type="curve"/>
			<point x="232.667" y="34.3333"/>
			<point name=".hr01" x="212" y="39"/>
			<point x="212" y="122" type="curve" smooth="yes"/>
			<point x="212" y="523" type="line" smooth="yes"/>
			<point x="212" y="606"/>
			<point x="232.667" y="610.667"/>
			<point x="297.667" y="613.667" type="curve"/>
			<point x="305" y="619.667"/>
			<point x="305" y="641"/>
			<point x="297.667" y="647" type="curve"/>
			<point x="255" y="646"/>
			<point x="199.667" y="645"/>
			<point x="160.333" y="645" type="curve" smooth="yes"/>
			<point x="125" y="645"/>
			<point x="67.6667" y="646"/>
			<point x="23" y="647" type="curve"/>
			<point x="15.6667" y="641"/>
			<point x="15.6667" y="619.667"/>
			<point x="23" y="613.667" type="curve"/>
			<point x="88" y="610.667"/>
			<point x="108.667" y="606"/>
			<point x="108.667" y="523" type="curve" smooth="yes"/>
			<point x="108.667" y="132" type="line"/>
			<point x="108.667" y="122" type="line" smooth="yes"/>
			<point x="108.667" y="39"/>
			<point x="88" y="34.3333"/>
			<point x="23" y="31.3333" type="curve"/>
			<point x="15.6667" y="25.3333"/>
			<point x="15.6667" y="4"/>
			<point x="23" y="-2" type="curve"/>
			<point x="64.3333" y="-1"/>
			<point x="116.667" y="0"/>
			<point x="154.333" y="0" type="curve" smooth="yes"/>
			<point x="172" y="0" type="line"/>
			<point x="114.667" y="-28.3333"/>
			<point name=".hr02" x="75" y="-85.3333"/>
			<point x="75" y="-129.333" type="curve" smooth="yes"/>
			<point x="75" y="-158.667"/>
			<point x="85.6667" y="-178.333"/>
			<point x="101.333" y="-191.333" type="curve" smooth="yes"/>
			<point x="112.667" y="-200.333"/>
			<point x="126.333" y="-206.667"/>
			<point x="142.667" y="-208.667" type="curve" smooth="yes"/>
			<point x="152" y="-210"/>
			<point x="162.667" y="-210.333"/>
			<point x="173.333" y="-209.333" type="curve"/>
			<point x="210.667" y="-207"/>
			<point x="247.333" y="-188"/>
		</contour>
	</outline>
	<anchor name="m.uni0302" x="146" y="850"/>
</glyph>
<glyph name="uni0137" format="2">
	<unicode hex="0137"/>
	<advance width="546"/>
	<outline>
		<contour>
			<point x="90.6667" y="123.667" type="line" smooth="yes"/>
			<point x="90.6667" y="40.6667"/>
			<point x="78" y="35"/>
			<point x="20.3333" y="31.3333" type="curve"/>
			<point x="14.3333" y="25.3333"/>
			<point x="14.3333" y="4"/>
			<point x="20.3333" y="-2" type="curve"/>
			<point x="55" y="-1"/>
			<point x="91.3333" y="0"/>
			<point x="134" y="0" type="curve" smooth="yes"/>
			<point x="147.667" y="0" type="line" smooth="yes"/>
			<point x="182.333" y="0"/>
			<point x="215.667" y="-1"/>
			<point x="237" y="-2" type="curve"/>
			<point x="243" y="4"/>
			<point x="243" y="25.3333"/>
			<point x="237" y="31.3333" type="curve"/>
			<point x="199.667" y="35.3333"/>
			<point x="186.667" y="40.6667"/>
			<point x="186.667" y="123.667" type="curve" smooth="yes"/>
			<point x="186.667" y="209" type="line"/>
			<point x="202.333" y="208.333"/>
			<point x="215" y="207.667"/>
			<point x="224.667" y="205.333" type="curve"/>
			<point x="238" y="199.333"/>
			<point x="249.333" y="191.667"/>
			<point x="259.667" y="177.333" type="curve" smooth="yes"/>
			<point x="283.333" y="144"/>
			<point x="309.333" y="109"/>
			<point x="331" y="74.6667" type="curve" smooth="yes"/>
			<point x="349.333" y="46.6667"/>
			<point x="358.333" y="31.6667"/>
			<point x="361.667" y="18.6667" type="curve"/>
			<point x="363.667" y="14"/>
			<point x="364.333" y="9.66667"/>
			<point x="364.333" y="6.33333" type="curve" smooth="yes"/>
			<point x="364.333" y="4.33333"/>
			<point x="364.333" y="1.33333"/>
			<point x="365" y="-0.666667" type="curve"/>
			<point x="365.667" y="-1.33333" type="line"/>
			<point x="366.333" y="-2"/>
			<point x="367.333" y="-2"/>
			<point x="368.667" y="-2" type="curve"/>
			<point x="378" y="-1.66667"/>
			<point x="395.333" y="-0.666667"/>
			<point x="411" y="-0.666667" type="curve"/>
			<point x="423" y="0"/>
			<point x="436.333" y="0"/>
			<point x="449" y="0" type="curve"/>
			<point x="480.667" y="-0.333333"/>
			<point x="513" y="-1"/>
			<point x="535" y="-2" type="curve"/>
			<point x="541" y="4"/>
			<point x="541" y="25.3333"/>
			<point x="535" y="31.3333" type="curve"/>
			<point x="499.333" y="35.3333"/>
			<point x="475.333" y="37"/>
			<point x="447.333" y="74.6667" type="curve" smooth="yes"/>
			<point x="320.667" y="242.333" type="line"/>
			<point x="318" y="245.667"/>
			<point x="316" y="248.333"/>
			<point x="316" y="251.667" type="curve"/>
			<point x="314.333" y="256.667"/>
			<point x="313.667" y="260.667"/>
			<point x="317.667" y="265" type="curve" smooth="yes"/>
			<point x="381" y="332" type="line" smooth="yes"/>
			<point x="386.667" y="338"/>
			<point x="392.667" y="344"/>
			<point x="398.333" y="349.667" type="curve"/>
			<point x="427" y="380.667"/>
			<point x="460.333" y="394.333"/>
			<point x="508" y="399.333" type="curve"/>
			<point x="514" y="405.333"/>
			<point x="514" y="426.667"/>
			<point x="508" y="432.667" type="curve"/>
			<point x="485.333" y="431.667"/>
			<point x="445.667" y="430.667"/>
			<point x="413" y="430.667" type="curve" smooth="yes"/>
			<point x="375.333" y="430.667"/>
			<point x="335" y="431.667"/>
			<point x="307.333" y="432.667" type="curve"/>
			<point x="301.333" y="426.667"/>
			<point x="301.333" y="405.333"/>
			<point x="307.333" y="399.333" type="curve"/>
			<point x="357.333" y="396"/>
			<point x="355.333" y="375"/>
			<point x="339" y="351.667" type="curve"/>
			<point x="337.333" y="349"/>
			<point x="335" y="346.333"/>
			<point x="333.333" y="343.667" type="curve"/>
			<point x="317" y="322.667"/>
			<point x="298" y="301.333"/>
			<point x="279.667" y="284.333" type="curve" smooth="yes"/>
			<point x="271.667" y="276.667"/>
			<point x="262" y="269.333"/>
			<point x="251.333" y="263.667" type="curve"/>
			<point x="230.667" y="251"/>
			<point x="205" y="241"/>
			<point x="186.667" y="239" type="curve"/>
			<point x="186.667" y="583" type="line" smooth="yes"/>
			<point x="186.667" y="648"/>
			<point x="190.333" y="687"/>
			<point x="190.333" y="687" type="curve"/>
			<point x="190.333" y="694.667"/>
			<point x="185.333" y="698"/>
			<point x="176.333" y="698" type="curve"/>
			<point x="147.333" y="687.333"/>
			<point x="70.6667" y="674.333"/>
			<point x="20.3333" y="671.333" type="curve"/>
			<point x="18" y="662"/>
			<point x="19.6667" y="647.667"/>
			<point x="25.3333" y="640.667" type="curve"/>
			<point x="29.6667" y="640.333"/>
			<point x="33.6667" y="640.333"/>
			<point x="37.6667" y="640" type="curve" smooth="yes"/>
			<point x="82" y="636.667"/>
			<point x="90.6667" y="634"/>
			<point x="90.6667" y="561" type="curve" smooth="yes"/>
		</contour>
		<contour>
			<point x="278" y="-44.3333" type="curve" smooth="yes"/>
			<point x="253" y="-44.3333"/>
			<point x="231" y="-61.3333"/>
			<point x="228.333" y="-80.3333" type="curve"/>
			<point x="227.667" y="-83.6667"/>
			<point x="227.667" y="-86"/>
			<point x="228" y="-89" type="curve"/>
			<point x="228.667" y="-110.667"/>
			<point x="244.333" y="-121.333"/>
			<point x="261.333" y="-125.333" type="curve" smooth="yes"/>
			<point x="264" y="-126"/>
			<point x="266.667" y="-127"/>
			<point x="268.667" y="-127" type="curve"/>
			<point x="282" y="-129"/>
			<point x="294.333" y="-132.333"/>
			<point x="296.333" y="-145.667" type="curve"/>
			<point x="297" y="-147.667"/>
			<point x="297" y="-149.667"/>
			<point x="297" y="-151.667" type="curve" smooth="yes"/>
			<point x="297" y="-169.667"/>
			<point x="271.333" y="-193.667"/>
			<point x="225.333" y="-204.667" type="curve"/>
			<point x="224" y="-214.667"/>
			<point x="225.333" y="-224"/>
			<point x="232.667" y="-230" type="curve"/>
			<point x="292.333" y="-220.333"/>
			<point x="341.667" y="-188"/>
			<point x="343.333" y="-130.333" type="curve"/>
			<point x="343.333" y="-127"/>
			<point x="343.333" y="-124"/>
			<point x="343.333" y="-120.333" type="curve"/>
			<point x="340.667" y="-68.6667"/>
			<point x="312" y="-44.3333"/>
		</contour>
	</outline>
</glyph>
<glyph name="lacute" format="2">
	<unicode hex="013A"/>
	<advance width="284"/>
	<outline>
		<contour>
			<point x="96.6667" y="123.667" type="line" smooth="yes"/>
			<point x="96.6667" y="40.6667"/>
			<point x="84" y="34.3333"/>
			<point x="23" y="31.3333" type="curve"/>
			<point x="17" y="25.3333"/>
			<point x="17" y="4"/>
			<point x="23" y="-2" type="curve"/>
			<point x="60.3333" y="-1"/>
			<point x="100" y="0"/>
			<point x="145" y="0" type="curve" smooth="yes"/>
			<point x="190" y="0"/>
			<point x="230" y="-1"/>
			<point x="266.333" y="-2" type="curve"/>
			<point x="272.333" y="4"/>
			<point x="272.333" y="25.3333"/>
			<point x="266.333" y="31.3333" type="curve"/>
			<point x="205.333" y="34.3333"/>
			<point x="192.667" y="40.6667"/>
			<point x="192.667" y="123.667" type="curve" smooth="yes"/>
			<point x="192.667" y="583" type="line" smooth="yes"/>
			<point x="192.667" y="648"/>
			<point x="196.333" y="687"/>
			<point x="196.333" y="687" type="curve"/>
			<point x="196.333" y="694.667"/>
			<point x="191.333" y="698"/>
			<point x="182.333" y="698" type="curve"/>
			<point x="153.333" y="687.333"/>
			<point x="76.6667" y="674.333"/>
			<point x="26.3333" y="671.333" type="curve"/>
			<point x="24" y="662"/>
			<point x="25.6667" y="647.667"/>
			<point x="31.3333" y="640.667" type="curve"/>
			<point x="91" y="636.333"/>
			<point x="96.6667" y="634"/>
			<point x="96.6667" y="561" type="curve" smooth="yes"/>
		</contour>
		<contour>
			<point x="199.333" y="852.333" type="curve"/>
			<point x="159.667" y="824.333"/>
			<point x="111.333" y="790.333"/>
			<point x="75.6667" y="764.333" type="curve"/>
			<point x="73.3333" y="762.333"/>
			<point x="70.6667" y="760.667"/>
			<point x="69" y="759" type="curve"/>
			<point x="61.6667" y="752.333"/>
			<point x="61" y="747.667"/>
			<point x="61" y="742" type="curve" smooth="yes"/>
			<point x="61" y="734"/>
			<point x="68.6667" y="727"/>
			<point x="77.6667" y="727" type="curve" smooth="yes"/>
			<point x="86.6667" y="727"/>
			<point x="98.6667" y="729.333"/>
			<point x="117.333" y="737.333" type="curve" smooth="yes"/>
			<point x="250.667" y="791.333" type="line"/>
			<point x="262.333" y="799.333" type="line"/>
			<point x="249.333" y="820.333"/>
			<point x="227" y="839.667"/>
		</contour>
	</outline>
</glyph>
<glyph name="Lslash" format="2">
	<unicode hex="0141"/>
	<advance width="544"/>
	<outline>
		<contour>
			<point x="323" y="313.333" type="curve"/>
			<point x="223.667" y="268" type="line"/>
			<point x="216.667" y="278.408"/>
			<point x="212" y="339.263"/>
			<point x="212" y="389" type="curve" smooth="yes"/>
			<point x="212" y="466.435"/>
			<point x="223.333" y="508.01"/>
			<point x="270" y="528.667" type="curve"/>
			<point x="284.667" y="539"/>
			<point x="295.333" y="559.333"/>
			<point x="300" y="568" type="curve"/>
			<point x="268.961" y="570.103"/>
			<point x="233.543" y="580.329"/>
			<point x="207.333" y="582.667" type="curve"/>
			<point x="176.333" y="577.667"/>
			<point x="136.667" y="573"/>
			<point x="97.3333" y="568" type="curve"/>
			<point x="93.3333" y="568.503"/>
			<point x="93.3333" y="583.163"/>
			<point x="97.3333" y="583.667" type="curve"/>
			<point x="144" y="609.333"/>
			<point x="164.667" y="607.333"/>
			<point x="183" y="553" type="curve"/>
			<point x="186.333" y="536.378"/>
			<point x="186.333" y="454.289"/>
			<point x="183" y="437.667" type="curve"/>
			<point x="137.505" y="426.904"/>
			<point x="87.1919" y="403.42"/>
			<point x="65" y="398.333" type="curve" smooth="yes"/>
			<point x="53.225" y="395.65"/>
			<point x="25.6667" y="378.333"/>
			<point x="25.6667" y="378.333" type="curve"/>
			<point x="30.4682" y="381.038"/>
			<point x="69.5318" y="396.295"/>
			<point x="81" y="399" type="curve"/>
			<point x="99.3333" y="376.384"/>
			<point x="108.667" y="315.905"/>
			<point x="108.667" y="255.667" type="curve" smooth="yes"/>
			<point x="108.667" y="181.776"/>
			<point x="97.3333" y="146.332"/>
			<point x="50.6667" y="128.667" type="curve"/>
			<point x="36" y="118.667"/>
			<point x="25.6667" y="99"/>
			<point x="21" y="90.3333" type="curve"/>
			<point x="47.9002" y="88.5996"/>
			<point x="90.2155" y="77.7587"/>
			<point x="113.667" y="75.6667" type="curve"/>
			<point x="140.819" y="80.3333"/>
			<point x="245.049" y="85.6667"/>
			<point x="279.333" y="91" type="curve"/>
			<point x="297.333" y="85.2908"/>
			<point x="358.667" y="39.3333"/>
			<point x="358.667" y="39.3333" type="curve"/>
			<point x="365.333" y="45"/>
			<point x="362.667" y="87"/>
			<point x="348.333" y="120.667" type="curve"/>
			<point x="338.333" y="122"/>
			<point x="331" y="116"/>
			<point x="326.333" y="112.667" type="curve"/>
			<point x="313" y="64.6667"/>
			<point x="326.667" y="26"/>
			<point x="269" y="26" type="curve"/>
			<point x="301.333" y="26" type="line"/>
			<point x="285" y="26"/>
			<point x="303.333" y="38"/>
			<point x="303.333" y="72" type="curve"/>
			<point x="306.667" y="111.891"/>
			<point x="310" y="240.492"/>
			<point x="312" y="281.667" type="curve"/>
			<point x="320.306" y="290.045"/>
			<point x="380.335" y="329.363"/>
			<point x="389" y="336" type="curve"/>
			<point x="380.355" y="315.297"/>
			<point x="360.78" y="308.701"/>
		</contour>
	</outline>
</glyph>
<glyph name="lslash" format="2">
	<unicode hex="0142"/>
	<advance width="284"/>
	<outline>
		<contour>
			<point x="238.667" y="417.333" type="line"/>
			<point x="240.342" y="418.368"/>
			<point x="219.02" y="406.069"/>
			<point x="220.667" y="406.667" type="curve"/>
			<point x="214.667" y="546" type="line"/>
			<point x="208" y="584.667"/>
			<point x="203" y="606"/>
			<point x="195.333" y="601" type="curve"/>
			<point x="195.333" y="615.399"/>
			<point name=".hr01" x="192.667" y="647.154"/>
			<point name=".hr02" x="186.667" y="659.667" type="curve"/>
			<point x="170" y="674.667"/>
			<point x="121" y="677.667"/>
			<point x="94.3333" y="675.667" type="curve"/>
			<point x="93" y="673.333"/>
			<point x="92" y="664"/>
			<point x="93" y="660" type="curve"/>
			<point x="119.333" y="653.333"/>
			<point name=".hr03" x="96.6667" y="647.667"/>
			<point x="73" y="596.667" type="curve"/>
			<point x="72" y="566.62"/>
			<point x="72.3333" y="472.014"/>
			<point x="74" y="447.333" type="curve"/>
			<point x="79.28" y="436.482"/>
			<point x="54.4965" y="420.695"/>
			<point x="37.3333" y="387.667" type="curve"/>
			<point x="48.6667" y="295.333" type="line"/>
			<point x="47.1428" y="294.611"/>
			<point x="69.8572" y="307.639"/>
			<point x="68.3333" y="307.333" type="curve"/>
			<point x="74.3333" y="164.667" type="line"/>
			<point x="81.3333" y="114"/>
			<point x="81.3333" y="116"/>
			<point x="48.6667" y="119" type="curve"/>
			<point x="44.6667" y="108.305"/>
			<point x="44.6667" y="51.6954"/>
			<point x="48.6667" y="41" type="curve"/>
			<point x="72" y="14"/>
			<point x="91.3333" y="11.6667"/>
			<point x="97.6667" y="10.6667" type="curve"/>
			<point x="122.333" y="8.66667"/>
			<point x="147.667" y="0.666667"/>
			<point x="171.667" y="-2" type="curve"/>
			<point x="189.667" y="2.33333"/>
			<point x="204.667" y="16.6667"/>
			<point x="219" y="20.6667" type="curve"/>
			<point x="196.667" y="22.6667"/>
			<point x="204" y="25.6667"/>
			<point x="218.333" y="80.6667" type="curve"/>
			<point x="220.333" y="100.962"/>
			<point x="220.333" y="229.038"/>
			<point x="218.333" y="249.333" type="curve"/>
			<point x="210.298" y="257.484"/>
			<point x="233.286" y="276.949"/>
			<point x="250" y="314.333" type="curve"/>
		</contour>
	</outline>
</glyph>
<glyph name="uni0145" format="2">
	<unicode hex="0145"/>
	<advance width="713"/>
	<outline>
		<contour>
			<point x="598.333" y="-6.66667" type="curve"/>
			<point x="607.667" y="-6.66667"/>
			<point x="613.333" y="5"/>
			<point x="613" y="23" type="curve" smooth="yes"/>
			<point x="612.667" y="49.3333"/>
			<point x="612" y="79.6667"/>
			<point x="612" y="104.667" type="curve" smooth="yes"/>
			<point x="612" y="512" type="line" smooth="yes"/>
			<point x="612" y="601"/>
			<point x="629" y="606.667"/>
			<point x="699" y="613.667" type="curve"/>
			<point x="705" y="619.667"/>
			<point x="705" y="641"/>
			<point x="699" y="647" type="curve"/>
			<point x="655.333" y="646"/>
			<point x="618.333" y="645"/>
			<point x="588.333" y="645" type="curve" smooth="yes"/>
			<point x="559.333" y="645"/>
			<point x="521.667" y="646"/>
			<point x="475.667" y="647" type="curve"/>
			<point x="469.667" y="641"/>
			<point x="469.667" y="619.667"/>
			<point x="475.667" y="613.667" type="curve"/>
			<point x="545.667" y="606.667"/>
			<point x="562.667" y="603"/>
			<point x="562.667" y="512" type="curve" smooth="yes"/>
			<point x="562.667" y="229.667" type="line"/>
			<point x="562.667" y="200.333" type="line" smooth="yes"/>
			<point x="562.667" y="182"/>
			<point x="560.667" y="173.667"/>
			<point x="553.333" y="175.333" type="curve"/>
			<point x="551.333" y="176"/>
			<point x="548.667" y="178"/>
			<point x="545.667" y="181.333" type="curve" smooth="yes"/>
			<point x="539.667" y="187.667"/>
			<point x="528.667" y="200.667"/>
			<point x="512.667" y="221.333" type="curve" smooth="yes"/>
			<point x="261.333" y="532" type="line"/>
			<point x="170.333" y="645" type="line"/>
			<point x="26" y="647" type="line"/>
			<point x="20" y="641"/>
			<point x="20" y="619.667"/>
			<point x="26" y="613.667" type="curve"/>
			<point x="69" y="610.667"/>
			<point x="99" y="576"/>
			<point x="105" y="550" type="curve"/>
			<point x="105" y="133" type="line" smooth="yes"/>
			<point x="105" y="44"/>
			<point x="88" y="38.3333"/>
			<point x="18" y="31.3333" type="curve"/>
			<point x="12" y="25.3333"/>
			<point x="12" y="4"/>
			<point x="18" y="-2" type="curve"/>
			<point x="63" y="-1"/>
			<point x="99.3333" y="0"/>
			<point x="130" y="0" type="curve" smooth="yes"/>
			<point x="160" y="0"/>
			<point x="196.667" y="-1"/>
			<point x="241.333" y="-2" type="curve"/>
			<point x="247.333" y="4"/>
			<point x="247.333" y="25.3333"/>
			<point x="241.333" y="31.3333" type="curve"/>
			<point x="171.333" y="38.3333"/>
			<point x="154.333" y="42"/>
			<point x="154.333" y="133" type="curve" smooth="yes"/>
			<point x="154.333" y="436" type="line" smooth="yes"/>
			<point x="154.333" y="462"/>
			<point x="155" y="475.333"/>
			<point x="162.333" y="475.333" type="curve" smooth="yes"/>
			<point x="168" y="475.333"/>
			<point x="178" y="465.667"/>
			<point x="193" y="446.667" type="curve" smooth="yes"/>
			<point x="519.333" y="42.6667" type="line" smooth="yes"/>
			<point x="529.667" y="29.6667"/>
			<point x="540.333" y="17"/>
			<point x="548.667" y="7.33333" type="curve"/>
			<point x="550" y="6"/>
			<point x="550.667" y="5.33333"/>
			<point x="550.667" y="5.33333" type="curve"/>
			<point x="569.667" y="-4.66667"/>
			<point x="581.667" y="-9.66667"/>
		</contour>
		<contour>
			<point x="356.667" y="-44.3333" type="curve" smooth="yes"/>
			<point x="331.667" y="-44.3333"/>
			<point x="309.667" y="-61.3333"/>
			<point x="307" y="-80.3333" type="curve"/>
			<point x="306.333" y="-83.6667"/>
			<point x="306.333" y="-86"/>
			<point x="306.667" y="-89" type="curve"/>
			<point x="307.333" y="-110.667"/>
			<point x="323" y="-121.333"/>
			<point x="340" y="-125.333" type="curve" smooth="yes"/>
			<point x="342.667" y="-126"/>
			<point x="345.333" y="-127"/>
			<point x="347.333" y="-127" type="curve"/>
			<point x="360.667" y="-129"/>
			<point x="373" y="-132.333"/>
			<point x="375" y="-145.667" type="curve"/>
			<point x="375.667" y="-147.667"/>
			<point x="375.667" y="-149.667"/>
			<point x="375.667" y="-151.667" type="curve" smooth="yes"/>
			<point x="375.667" y="-169.667"/>
			<point x="350" y="-193.667"/>
			<point x="304" y="-204.667" type="curve"/>
			<point x="302.667" y="-214.667"/>
			<point x="304" y="-224"/>
			<point x="311.333" y="-230" type="curve"/>
			<point x="371" y="-220.333"/>
			<point x="420.333" y="-188"/>
			<point x="422" y="-130.333" type="curve"/>
			<point x="422" y="-127"/>
			<point x="422" y="-124"/>
			<point x="422" y="-120.333" type="curve"/>
			<point x="420" y="-68.6667"/>
			<point x="390.667" y="-44.3333"/>
		</contour>
	</outline>
</glyph>
<glyph name="napostrophe" format="2">
	<unicode hex="0149"/>
	<advance width="550"/>
	<outline>
		<contour>
			<point x="205.667" y="122" type="curve" smooth="yes"/>
			<point x="205.667" y="288.667" type="line" smooth="yes"/>
			<point x="205.667" y="306"/>
			<point x="211.667" y="317"/>
			<point x="217" y="326.333" type="curve"/>
			<point x="250.333" y="355.333"/>
			<point x="287" y="375.333"/>
			<point x="315" y="379.333" type="curve" smooth="yes"/>
			<point x="323.667" y="380.667"/>
			<point x="332" y="381"/>
			<point x="340.333" y="380" type="curve"/>
			<point x="357.667" y="378.667"/>
			<point x="375.333" y="367.667"/>
			<point x="385.667" y="348.667" type="curve"/>
			<point x="393" y="336"/>
			<point x="396.333" y="319.333"/>
			<point x="397" y="300.333" type="curve"/>
			<point x="397.667" y="291.333"/>
			<point x="397.667" y="281.333"/>
			<point x="397.667" y="271.667" type="curve" smooth="yes"/>
			<point x="397.667" y="124" type="line" smooth="yes"/>
			<point x="397.667" y="41.3333"/>
			<point x="385.667" y="35.6667"/>
			<point x="337.333" y="31.3333" type="curve"/>
			<point x="332" y="25.3333"/>
			<point x="332" y="4"/>
			<point x="337.333" y="-2" type="curve"/>
			<point x="368.667" y="-1"/>
			<point x="398" y="0"/>
			<point x="436" y="0" type="curve" smooth="yes"/>
			<point x="451.333" y="0" type="line" smooth="yes"/>
			<point x="494" y="0"/>
			<point x="531" y="-1"/>
			<point x="564" y="-2" type="curve"/>
			<point x="569.333" y="4"/>
			<point x="569.333" y="25.3333"/>
			<point x="564" y="31.3333" type="curve"/>
			<point x="506.333" y="35.6667"/>
			<point x="493.667" y="41.3333"/>
			<point x="493.667" y="124" type="curve" smooth="yes"/>
			<point x="493.667" y="270.667" type="line" smooth="yes"/>
			<point x="493.667" y="276.333"/>
			<point x="493.667" y="281"/>
			<point x="493.667" y="286" type="curve"/>
			<point x="493" y="336.333"/>
			<point x="485.667" y="377.667"/>
			<point x="464.333" y="405" type="curve" smooth="yes"/>
			<point x="445.333" y="428.667"/>
			<point x="413.667" y="440.667"/>
			<point x="376" y="440.667" type="curve" smooth="yes"/>
			<point x="331" y="440.667"/>
			<point x="272.667" y="419.667"/>
			<point x="215.667" y="362.333" type="curve"/>
			<point x="210.333" y="356.667"/>
			<point x="204.667" y="354.333"/>
			<point name=".hr01" x="203.333" y="359.333" type="curve"/>
			<point x="201.667" y="386.333"/>
			<point x="199.667" y="416.333"/>
			<point x="197" y="427" type="curve"/>
			<point x="197" y="429"/>
			<point x="196.333" y="430.333"/>
			<point x="195.667" y="431.667" type="curve"/>
			<point x="194" y="437.667"/>
			<point x="191.667" y="441.333"/>
			<point x="184" y="442" type="curve"/>
			<point x="183" y="442.333"/>
			<point x="181.667" y="442.667"/>
			<point x="180" y="442.667" type="curve"/>
			<point x="149" y="432"/>
			<point x="111.667" y="421.333"/>
			<point x="42.6667" y="412.333" type="curve"/>
			<point x="40.6667" y="406.333"/>
			<point x="42.6667" y="389"/>
			<point x="44.6667" y="383" type="curve"/>
			<point x="99" y="378"/>
			<point x="109.667" y="372"/>
			<point x="109.667" y="314.333" type="curve" smooth="yes"/>
			<point x="109.667" y="122" type="line" smooth="yes"/>
			<point x="109.667" y="39.6667"/>
			<point x="99.3333" y="36.3333"/>
			<point x="39" y="31.3333" type="curve"/>
			<point x="33" y="25.3333"/>
			<point x="33" y="4"/>
			<point x="39" y="-2" type="curve"/>
			<point x="71.6667" y="-1"/>
			<point x="111" y="0"/>
			<point x="152.667" y="0" type="curve" smooth="yes"/>
			<point x="168" y="0" type="line" smooth="yes"/>
			<point name=".hr02" x="205.333" y="0"/>
			<point x="232" y="-1"/>
			<point x="263.667" y="-2" type="curve"/>
			<point x="269.667" y="4"/>
			<point x="269.667" y="25.3333"/>
			<point x="263.667" y="31.3333" type="curve"/>
			<point x="215.667" y="36"/>
			<point x="205.667" y="39.6667"/>
		</contour>
		<contour>
			<point x="72" y="698" type="curve" smooth="yes"/>
			<point x="40" y="698"/>
			<point x="27" y="680"/>
			<point x="27" y="664" type="curve" smooth="yes"/>
			<point x="27" y="648"/>
			<point x="32" y="625"/>
			<point x="73" y="625" type="curve" smooth="yes"/>
			<point x="80.6667" y="625"/>
			<point x="86" y="617"/>
			<point name=".hr03" x="86" y="605" type="curve" smooth="yes"/>
			<point x="86" y="582"/>
			<point x="66" y="545"/>
			<point x="24" y="536" type="curve"/>
			<point x="28.6667" y="519" type="line"/>
			<point x="105.667" y="526"/>
			<point x="132" y="592.333"/>
			<point x="132" y="625" type="curve" smooth="yes"/>
			<point x="132" y="661"/>
			<point x="110" y="698"/>
		</contour>
	</outline>
</glyph>
<glyph name="ohungarumlaut" format="2">
	<unicode hex="0151"/>
	<advance width="520"/>
	<outline>
		<contour>
			<point x="39.6667" y="205.667" type="curve" smooth="yes"/>
			<point x="39.6667" y="94"/>
			<point x="119.667" y="-10"/>
			<point x="259" y="-10" type="curve" smooth="yes"/>
			<point x="325.333" y="-10"/>
			<point x="377.667" y="12"/>
			<point x="414" y="46.3333" type="curve" smooth="yes"/>
			<point x="461" y="90.6667"/>
			<point x="480" y="155.333"/>
			<point x="480" y="214.667" type="curve" smooth="yes"/>
			<point x="480" y="327.667"/>
			<point x="412.333" y="440.667"/>
			<point x="260.667" y="440.667" type="curve" smooth="yes"/>
			<point x="189" y="440.667"/>
			<point x="132.333" y="413"/>
			<point x="94.6667" y="369.333" type="curve" smooth="yes"/>
			<point x="58" y="326"/>
			<point x="39.6667" y="267.333"/>
		</contour>
		<contour>
			<point x="245.333" y="403.333" type="curve" smooth="yes"/>
			<point x="325.333" y="403.333"/>
			<point x="376" y="324.333"/>
			<point x="376" y="182.667" type="curve" smooth="yes"/>
			<point x="376" y="58.6667"/>
			<point x="317" y="27.3333"/>
			<point x="273.667" y="27.3333" type="curve" smooth="yes"/>
			<point x="177" y="27.3333"/>
			<point x="143.667" y="152.333"/>
			<point x="143.667" y="228.333" type="curve" smooth="yes"/>
			<point x="143.667" y="317"/>
			<point x="163" y="403.333"/>
		</contour>
		<contour>
			<point x="368.333" y="613" type="curve" smooth="yes"/>
			<point x="368.333" y="632"/>
			<point x="350.333" y="649.667"/>
			<point x="329" y="649.667" type="curve" smooth="yes"/>
			<point x="317.333" y="649.667"/>
			<point x="308" y="647"/>
			<point x="303" y="637.333" type="curve" smooth="yes"/>
			<point x="231.333" y="500" type="line"/>
			<point x="230" y="497.667"/>
			<point x="229.667" y="495"/>
			<point x="229.667" y="493" type="curve" smooth="yes"/>
			<point x="229.667" y="484.333"/>
			<point x="237.333" y="479"/>
			<point x="243.333" y="479" type="curve" smooth="yes"/>
			<point x="247" y="479"/>
			<point x="251" y="480.333"/>
			<point x="255.333" y="485.333" type="curve"/>
			<point x="362" y="595" type="line" smooth="yes"/>
			<point x="367.333" y="600.667"/>
			<point x="368.333" y="607.333"/>
		</contour>
		<contour>
			<point x="323.333" y="613" type="curve" smooth="yes"/>
			<point x="323.333" y="635"/>
			<point x="306.667" y="651.333"/>
			<point x="284.333" y="651.333" type="curve" smooth="yes"/>
			<point x="275.333" y="651.333"/>
			<point x="262.333" y="645.667"/>
			<point x="257.667" y="636" type="curve" smooth="yes"/>
			<point x="192.333" y="498.333" type="line"/>
			<point x="190.667" y="496"/>
			<point x="190.333" y="493.667"/>
			<point x="190.333" y="491.667" type="curve" smooth="yes"/>
			<point x="190.333" y="483.333"/>
			<point x="198.333" y="478"/>
			<point x="204.667" y="478" type="curve" smooth="yes"/>
			<point x="208.333" y="478"/>
			<point x="212" y="479.667"/>
			<point x="215" y="482.667" type="curve"/>
			<point x="315.667" y="594.333" type="line" smooth="yes"/>
			<point x="321" y="600"/>
			<point x="323.333" y="605.667"/>
		</contour>
	</outline>
	<anchor name="m.uni0316_2" x="243" y="-110"/>
	<anchor name="b.uni0321_4" x="372" y="44"/>
</glyph>
